<?xml version="1.0" encoding="UTF-8" standalone="no"?>
<!DOCTYPE svg PUBLIC "-//W3C//DTD SVG 1.1//EN" "http://www.w3.org/Graphics/SVG/1.1/DTD/svg11.dtd">
<svg width="100%" height="100%" viewBox="0 0 119 237" version="1.1" xmlns="http://www.w3.org/2000/svg" xmlns:xlink="http://www.w3.org/1999/xlink" xml:space="preserve" xmlns:serif="http://www.serif.com/" style="fill-rule:evenodd;clip-rule:evenodd;stroke-linecap:round;stroke-linejoin:round;stroke-miterlimit:1.5;">
    <g>
        <g>
            <path d="M15.483,110.399c-0.602,0.2 -1.335,0.51 -1.715,1.081c-0.207,0.311 -0.291,0.85 -0.559,1.118c-1.093,1.093 -1.56,2.635 -2.237,3.989c-0.773,1.545 -1.256,3.179 -1.939,4.772c-1.254,2.928 -1.996,5.962 -0.484,8.985c0.597,1.195 1.948,1.969 2.982,2.796c1.359,1.088 2.84,1.831 4.66,1.603c0.766,-0.095 1.692,-0.946 2.272,-1.416c1.57,-1.254 3.06,-2.428 4.59,-3.654c2.84,-2.276 5.27,-5.132 7.94,-7.717c1.08,-1.046 2.07,-2.329 3.17,-3.43c1.54,-1.545 3.12,-3.188 4.47,-4.884c0.92,-1.15 1.83,-2.461 2.87,-3.504c0.85,-0.851 1.94,-1.935 2.24,-3.132c0.24,-0.945 -0.36,-1.627 -0.97,-2.237c-0.51,-0.511 -0.85,-1.178 -1.42,-1.603c-0.55,-0.414 -1.02,-1.1 -1.53,-1.603c-0.66,-0.667 -1.52,-1.153 -2.16,-1.79c-0.96,-0.966 -1.8,-2.052 -2.87,-2.908c-0.73,-0.583 -1.44,-1.289 -2.05,-1.901c-0.23,-0.233 -0.62,-0.192 -0.89,-0.261c-0.91,-0.225 -1.96,-0.071 -2.76,0.41c-1.67,1.001 -2.68,2.718 -4.25,3.766c-3.02,2.01 -6.18,4.593 -8.055,7.717c-1.117,1.862 -1.938,3.839 -2.834,5.853c-0.263,0.592 -0.648,1.543 -1.118,2.013" style="fill:none;stroke:#ffa400;stroke-width:4px;"/>
            <path d="M16.154,108.423c0.307,1.043 0.858,1.877 1.491,2.721c0.238,0.314 0.438,0.886 0.748,1.119c0.56,0.423 1.35,1.168 1.79,1.752c1.56,2.086 3.25,4.068 5.33,5.629c1.14,0.853 2.04,2.349 3.65,2.349c0.22,0 0.67,0.089 0.86,-0.037c0.13,-0.087 0.58,-1.173 0.52,-1.23c-0.2,-0.205 -1.25,-0.047 -1.53,-0.075c-1.08,-0.109 -2.03,-0.629 -2.35,-1.715c-0.07,-0.275 -0.26,-0.707 -0.14,-1.006c0.64,-1.616 2.26,-1.561 3.5,-2.387c0.43,-0.284 0.55,-0.71 0.82,-1.118c0.09,-0.139 0.16,-0.295 0.22,-0.447c0.03,-0.062 0.08,-0.254 0.08,-0.187c0,0.307 -0.41,0.629 -0.6,0.858c-0.37,0.465 -1.49,2.137 -2.31,1.864c-0.93,-0.31 -1.07,-2.573 -2.27,-2.573" style="fill:none;stroke:#ffa400;stroke-width:4px;"/>
            <path d="M16.788,127.138c-0.547,0.391 -1.658,1.23 -2.312,1.23" style="fill:none;stroke:#ffa400;stroke-width:4px;"/>
            <path d="M27.673,121.471c0.06,0.537 0.08,1.033 0.08,1.566c0,0.055 -0.05,0.437 0,0.485c0.14,0.147 0.76,-0.494 0.89,-0.559c0.82,-0.408 1.38,-1.224 2.31,-1.38c0.1,-0.016 0.62,-0.169 0.71,-0.074c0.27,0.275 0.23,0.913 0.3,1.304c0.11,0.698 0.24,1.726 0.63,2.312c0.98,1.466 1.99,2.585 3.28,3.877c1.28,1.272 2.33,2.8 3.88,3.728c2.14,1.282 4.1,-0.646 5.7,-1.789c2.4,-1.71 4.24,-4.29 6.49,-6.264c1.61,-1.404 3.33,-2.679 4.7,-4.324c0.58,-0.704 1.26,-1.311 1.64,-2.2c0.65,-1.509 -0.35,-3.08 -1.16,-4.287c-1.27,-1.917 -3.38,-3.36 -5.22,-4.735c-1.01,-0.76 -1.87,-1.709 -2.94,-2.349c-0.87,-0.521 -2.4,-0.335 -3.39,-0.335c-0.18,0 -1.11,0.233 -1.23,0.112c-0.06,-0.057 -0.1,-0.598 -0.15,-0.709c-0.36,-0.723 -0.88,-1.378 -1.23,-2.087c-0.03,-0.056 0.32,-0.038 0.37,-0.038c0.35,0 0.73,0.267 1.08,0.336c0.8,0.16 1.5,-0.473 1.9,-1.081c2.21,-3.318 4.41,-6.73 6.71,-9.955c0.61,-0.847 1.36,-1.616 2.09,-2.348c0.19,-0.192 0.71,-0.665 0.71,-0.932" style="fill:none;stroke:#ffa400;stroke-width:4px;"/>
            <path d="M43.963,95.486c-0.46,0.242 -1.22,0.516 -1.6,0.895" style="fill:none;stroke:#ffa400;stroke-width:4px;"/>
            <path d="M40.503,123.186c0.28,0.719 0.67,2.501 1.56,2.796c0.98,0.325 1.73,-0.818 2.09,-1.528c0.04,-0.085 0.13,-1.056 0.04,-1.119c-0.45,-0.296 -1.35,-0.335 -1.87,-0.335c-0.15,0 -0.63,0.101 -0.63,0.298" style="fill:none;stroke:#ffa400;stroke-width:4px;"/>
            <path d="M32.413,93.549c1.26,-0.553 1.98,-1.553 3.01,-2.432c1.18,-1.009 2.48,-2.005 3.94,-2.586c2.53,-1.015 5.16,-0.399 7.83,-0.695c3.99,-0.444 8.22,-0.789 12.16,0c1.58,0.316 3.33,0.008 4.94,0.154c0.54,0.05 1.49,-0.102 1.93,0.232" style="fill:none;stroke:#ffa400;stroke-width:4px;"/>
            <path d="M38.973,87.797c-1.24,0.124 -2.11,-0.063 -3.28,-0.231c-2.49,-0.356 -5.05,-0.541 -7.6,-0.541c-0.95,0 -2.05,-0.155 -2.98,0c-1.61,0.269 -3.03,0.708 -4.47,1.429c-0.47,0.234 -0.96,0.457 -1.43,0.694c-0.18,0.09 -0.33,0.183 -0.5,0.271c-0.01,0.004 -0.17,0.126 -0.16,0.115c0.11,-0.217 0.59,-0.453 0.77,-0.656c0.81,-0.907 1.89,-1.514 2.82,-2.277c1,-0.816 1.86,-1.871 2.93,-2.586c2.23,-1.483 4.88,-2.249 6.95,-3.976c0.9,-0.752 2.07,-1.573 3.09,-2.084c0.43,-0.214 0.81,-0.603 1.27,-0.734c0.54,-0.154 1.07,-0.417 1.63,-0.54c0.25,-0.058 0.77,-0.193 0.77,-0.193c0,0 -0.26,0.065 -0.35,0.154c-0.21,0.206 -0.44,0.402 -0.66,0.618c-0.52,0.528 -1.37,1.013 -2.04,1.351c-1.94,0.969 -3.84,2.032 -5.71,3.204c-0.4,0.246 -0.77,0.489 -1.16,0.733c-0.08,0.048 -0.5,0.258 -0.5,0.347c0,0.037 0.26,-0.034 0.27,-0.038c0.39,-0.148 0.72,-0.428 1.12,-0.579c1.16,-0.448 2.32,-0.955 3.51,-1.351c1.47,-0.491 2.85,-1.209 4.4,-1.467c2.05,-0.342 4.1,-0.425 6.21,-0.425c2.2,0 4.9,1.225 6.6,2.548c1.26,0.98 2.25,2.327 3.32,3.397c0.52,0.52 1.53,0.73 2.24,0.849c0.13,0.022 0.73,0.196 0.85,0.077c0.11,-0.113 -0.05,-0.679 -0.12,-0.772c-0.44,-0.665 -0.75,-1.399 -1.27,-2.007c-1.28,-1.497 -2.43,-3.246 -3.82,-4.632c-0.95,-0.944 -1.96,-2.064 -2.55,-3.242c-0.09,-0.192 0.15,0.701 0.23,0.849c0.36,0.64 0.85,1.225 1.08,1.93c0.02,0.057 0.22,0.888 0.2,0.888c-0.61,0 -1.65,-0.874 -2.2,-1.12c-2.05,-0.91 -4.18,-2.093 -6.33,-2.74c-2.36,-0.706 -4.78,-1.002 -7.22,-1.351c-0.65,-0.092 -1.27,-0.475 -1.89,-0.579c-2.42,-0.402 -4.67,-1.418 -7.03,-2.007c-3.23,-0.807 -6.49,-0.907 -9.802,-1.274c-1.071,-0.119 -2.079,-0.309 -3.165,-0.309c-1.072,0 -2.209,-0.091 -3.243,0.116c-0.162,0.032 -0.995,0.094 -0.888,0.309c0.139,0.277 1.622,0.127 1.892,0.154c2.041,0.204 4.095,0.339 6.137,0.579c3.859,0.454 7.689,1.652 11.429,2.586c3.58,0.896 7.2,1.372 10.73,2.548c1.72,0.574 3.5,1.422 5.05,2.354c0.33,0.196 1.55,0.78 1.55,1.197" style="fill:none;stroke:#ffa400;stroke-width:4px;"/>
            <path d="M12.949,69.448c1.238,-1.02 2.584,-1.824 4.121,-2.264c0.475,-0.135 0.913,-0.483 1.383,-0.642c1.18,-0.393 2.4,-0.835 3.65,-1.013c0.39,-0.056 0.74,-0.315 1.12,-0.439c0.91,-0.306 1.9,-0.703 2.87,-0.811c3.52,-0.391 7.14,0.048 10.57,0.811c0.47,0.105 0.98,0.448 1.42,0.642c1.76,0.78 3.53,1.914 5,3.175c0.8,0.684 1.64,1.317 2.43,1.993c0.98,0.837 1.74,1.971 2.57,2.939c0.42,0.489 0.91,1.01 1.35,1.453c0.07,0.071 0.34,0.248 0.34,0.371c0,0.067 -0.3,-0.19 -0.31,-0.203c-0.14,-0.203 -0.34,-0.354 -0.5,-0.54c-0.51,-0.563 -1.01,-1.144 -1.56,-1.655c-1.79,-1.659 -3.54,-3.534 -5.47,-5.034c-2.56,-1.992 -4.81,-4.305 -7.4,-6.249c-2.42,-1.817 -5.25,-3.154 -7.67,-5.033c-1.38,-1.076 -2.82,-2.034 -4.25,-3.04c-0.48,-0.333 -1.31,-0.98 -1.93,-0.98" style="fill:none;stroke:#ffa400;stroke-width:4px;"/>
            <path d="M21.293,53.224c-0.67,-0.542 -1.43,-0.798 -2.09,-1.315c-1.478,-1.149 -3.341,-2.292 -5.031,-2.855c-0.993,-0.331 -1.845,-1.11 -2.809,-1.495c-0.832,-0.333 -1.815,-0.756 -2.72,-0.907c-0.351,-0.058 -1.382,-0.113 -1.631,-0.362c-0.263,-0.264 0.582,-0.671 0.68,-0.725c0.839,-0.466 1.866,-0.854 2.81,-1.043c3.868,-0.773 7.411,-0.484 11.281,0c2.63,0.328 5.38,0.705 7.89,1.541c1.4,0.468 2.82,1.098 4.21,1.496c1.53,0.434 2.91,1.52 4.31,2.22c3.8,1.901 7.16,4.639 10.42,7.252c6.35,5.078 10.77,12.119 13.33,19.805c0.76,2.298 1.09,4.608 1.09,7.024c0,0.765 -0.06,1.567 0.09,2.312c0.03,0.154 -0.03,0.516 0.09,0.634" style="fill:none;stroke:#ffa400;stroke-width:4px;"/>
            <path d="M34.703,45.202c2.4,2.168 5.36,3.678 7.89,5.574c0.69,0.518 1.58,0.818 2.26,1.36c1.81,1.443 3.63,2.873 5.49,4.26c1.31,0.984 2.17,2.537 3.3,3.671c2.83,2.828 4.84,6.639 6.3,10.288c1.35,3.361 2.7,6.456 3.49,10.016c0.46,2.072 1.19,4.008 1.77,6.027c0.25,0.879 0.72,1.993 0.72,2.855" style="fill:none;stroke:#ffa400;stroke-width:4px;"/>
            <path d="M33.853,46.158c-0.23,-1.347 0.47,-3.639 -0.5,-4.768c-0.56,-0.653 -1.35,-0.957 -1.94,-1.545c-0.16,-0.164 -0.43,-0.364 -0.62,-0.493c-0.12,-0.082 -0.39,-0.197 -0.39,-0.197c0,0 0.2,-0.004 0.29,0.033c0.27,0.105 0.51,0.31 0.76,0.46c0.58,0.36 1.25,0.862 1.74,1.348c1.62,1.616 3.58,2.992 4.96,4.833c0.49,0.645 1.03,1.262 1.45,1.94c0.04,0.067 0.49,0.629 0.4,0.723c-0.08,0.077 -0.19,-0.116 -0.27,-0.197c-0.31,-0.346 -0.59,-0.724 -0.92,-1.052c-0.86,-0.863 -1.65,-1.729 -2.6,-2.499c-2.32,-1.892 -4.33,-4.147 -6.77,-5.885c-0.81,-0.58 -1.42,-1.498 -2.27,-2.006c-2.39,-1.438 -4.77,-3.142 -7.3,-4.405c-0.97,-0.486 -1.99,-1.079 -2.889,-1.677c-0.053,-0.036 -0.683,-0.645 -0.46,-0.756c0.726,-0.363 1.669,-0.372 2.469,-0.46c0.8,-0.09 1.59,-0.216 2.4,-0.296c1.24,-0.125 2.53,0.122 3.78,-0.033c0.97,-0.122 1.99,0.04 2.96,-0.099c1.44,-0.207 3.01,-0.195 4.47,-0.033c2.05,0.228 4.18,1.269 6.05,2.072c1.34,0.574 2.82,0.928 4.04,1.742c1.19,0.794 2.59,1.436 3.72,2.334c1.58,1.268 3.24,2.487 4.8,3.781c0.6,0.5 1.4,0.986 1.87,1.578c0.7,0.875 1.5,1.776 2.24,2.663c1.74,2.097 3.5,4.381 4.47,6.97c0.39,1.058 1.08,2.21 1.08,3.354" style="fill:none;stroke:#ffa400;stroke-width:4px;"/>
            <path d="M50.123,48.591c2.22,1.441 4.16,3.772 5.59,5.918c0.5,0.746 0.65,1.78 0.89,2.63c0.35,1.247 0.18,2.516 0.39,3.781c0.08,0.439 0.19,0.877 0.23,1.315c0.02,0.16 0.11,0.271 0.14,0.427c0.01,0.066 0.03,0.264 0.03,0.197c0,-1.34 -0.02,-2.812 0.33,-4.109c0.46,-1.738 1.53,-3.345 2.72,-4.537" style="fill:none;stroke:#ffa400;stroke-width:4px;"/>
            <path d="M42.943,31.462c-0.31,-0.651 -0.56,-1.36 -0.87,-1.99c-0.26,-0.51 -0.66,-0.933 -0.97,-1.399c-0.5,-0.755 -0.92,-1.629 -1.37,-2.425c-0.32,-0.576 -0.53,-1.205 -0.87,-1.773c-0.74,-1.239 -1.68,-2.372 -2.33,-3.668c-0.44,-0.881 -0.84,-1.842 -1.4,-2.674c-0.04,-0.057 -0.47,-0.79 -0.31,-0.871c0.13,-0.064 0.51,0 0.65,0c0.77,0 1.38,0.163 2.12,0.311c1.84,0.368 3.63,0.979 5.5,1.213c6,0.749 11.95,3.498 17.01,6.716c1.36,0.864 2.54,1.846 3.76,2.891c0.5,0.43 1.12,1.064 1.34,1.71c0.41,1.226 -1.18,2.492 -1.96,3.172c-0.52,0.454 -0.91,1.044 -1.46,1.461c-1.7,1.276 -3.67,2.199 -5.54,3.265c-0.51,0.292 -1.11,0.732 -1.46,1.212c-0.21,0.292 -0.43,0.631 -0.78,0.746" style="fill:none;stroke:#ffa400;stroke-width:4px;"/>
            <path d="M51.053,38.24c1.12,-0.87 2.54,-1.027 3.89,-1.43c1.5,-0.45 2.96,-1.153 4.2,-2.114c1.05,-0.824 2.05,-1.805 2.95,-2.799c0.31,-0.348 0.58,-0.687 0.87,-1.057c0.14,-0.179 0.47,-0.497 0.47,-0.497c0,0 -0.16,0.339 -0.25,0.497c-0.17,0.273 -0.34,0.548 -0.53,0.809c-0.48,0.663 -1.04,1.323 -1.62,1.896c-0.22,0.225 -0.45,0.601 -0.74,0.746c-0.72,0.359 -1.69,-0.615 -2.18,-0.963c-1.71,-1.222 -3.23,-2.676 -5.04,-3.763c-0.59,-0.356 -1.1,-0.921 -1.77,-1.088c-0.08,-0.019 -0.35,-0.24 -0.43,-0.155c-0.06,0.05 0.43,0.407 0.46,0.435c0.54,0.482 1.04,0.998 1.59,1.461c1.5,1.271 2.63,2.88 3.98,4.229" style="fill:none;stroke:#ffa400;stroke-width:4px;"/>
            <path d="M59.993,47.146c0.59,-1.549 1.96,-2.398 2.89,-3.704c0.45,-0.624 0.96,-1.126 1.5,-1.665c0.44,-0.446 0.91,-0.809 1.42,-1.155c0.13,-0.082 0.39,-0.339 0.55,-0.339" style="fill:none;stroke:#ffa400;stroke-width:4px;"/>
            <path d="M61.963,53.126c0.27,-0.905 0.81,-1.536 1.43,-2.243c1.48,-1.69 3.01,-3.18 4.69,-4.621c1.18,-1.013 2.29,-2.119 3.47,-3.125c1.41,-1.215 3.09,-2.057 4.62,-3.126c1.05,-0.74 2.01,-1.602 3.09,-2.277c2.76,-1.725 5.78,-2.958 8.7,-4.417" style="fill:none;stroke:#ffa400;stroke-width:4px;"/>
            <path d="M88.443,33.068c1.31,-0.798 2.95,-1.412 4.35,-2.014c0.65,-0.276 1.12,-0.896 1.69,-1.281c1.24,-0.827 2.51,-2.086 3.35,-3.341c0.3,-0.454 0.84,-0.785 1.09,-1.282c0.78,-1.56 1.78,-3.045 2.57,-4.622c0.26,-0.53 0.39,-1.067 0.59,-1.602c0.12,-0.305 0.18,-0.961 0.18,-0.961c0,0 -0.29,0.677 -0.45,1.007c-0.32,0.631 -0.66,1.225 -0.92,1.876c-0.76,1.897 -1.42,3.777 -2.56,5.492c-0.17,0.261 -0.83,1.602 -1.15,1.602c-0.07,0 0.02,-0.158 0.05,-0.229c0.14,-0.311 0.12,-0.274 0.23,-0.595c0.16,-0.49 0.33,-0.979 0.5,-1.464c0.69,-1.922 1.44,-4.071 1.88,-6.042c0.03,-0.145 0.41,-1.624 0.18,-1.739c-1.23,-0.614 -2.86,1.022 -3.93,1.328c-3.83,1.093 -7.74,2.242 -11.58,3.524" style="fill:none;stroke:#ffa400;stroke-width:4px;"/>
            <path d="M64.573,31.3c4.73,-1.656 8.76,-4.735 13.49,-6.425c1.62,-0.577 3.29,-0.895 4.94,-1.366c0.54,-0.153 1.04,-0.385 1.57,-0.562c0.18,-0.06 0.38,-0.06 0.56,-0.12c0.03,-0.01 0.31,-0.05 0.28,-0.081c-0.19,-0.195 -1.06,0.132 -1.24,0.201c-1.04,0.399 -2.07,0.85 -3.1,1.245c-1.41,0.543 -2.7,1.45 -4.09,2.008c-2.43,0.97 -4.83,1.961 -7.39,2.53c-0.92,0.204 -1.9,0.583 -2.81,0.843c-0.12,0.035 -0.86,0.233 -0.97,0.121c-0.09,-0.092 0.29,-0.451 0.36,-0.522c0.51,-0.509 1.26,-0.798 1.85,-1.165c1.48,-0.927 3.81,-1.427 5.5,-1.767c1.05,-0.209 2.44,-0.246 3.18,-1.165c0.68,-0.85 0.52,-2.419 0.52,-3.493c0,-1.756 -0.61,-3.442 -0.81,-5.181c-0.19,-1.768 -0.32,-3.536 -0.52,-5.301c-0.24,-2.219 0.14,-4.578 0.77,-6.667c0.16,-0.545 0.26,-1.124 0.4,-1.686c0.02,-0.1 0.17,-0.594 0.08,-0.683c-0.27,-0.269 -1.1,0.395 -1.29,0.522c-1.33,0.933 -2.43,2.108 -3.57,3.253c-0.98,0.976 -2.22,2.188 -2.89,3.373c-0.22,0.376 -0.67,0.742 -0.97,1.045c-1.28,1.283 -2.57,3.187 -3.45,4.779c-0.82,1.475 -2.09,2.85 -2.69,4.457c-0.48,1.268 -1.57,2.365 -1.57,3.815c0,0.155 -0.13,0.914 -0.04,1.004c0.13,0.13 0.4,-0.314 0.44,-0.361c0.49,-0.481 0.89,-0.997 1.33,-1.526c0.8,-0.962 1.22,-2.204 1.85,-3.293c0.73,-1.287 1.55,-2.621 2.45,-3.815c0.94,-1.26 1.73,-2.608 2.65,-3.896c1.5,-2.1 3.29,-3.934 4.57,-6.184c0.46,-0.797 0.93,-1.56 1.41,-2.33c0.06,-0.095 0.58,-0.62 0.44,-0.763c-0.13,-0.134 -1.24,0.757 -1.36,0.844c-1.29,0.904 -2.43,2.106 -3.54,3.212c-3.18,3.18 -5.94,6.787 -8.43,10.522c-0.66,0.992 -1.17,2.27 -1.61,3.374c-0.2,0.502 -0.59,0.997 -0.72,1.526c-0.14,0.556 -0.33,1.814 -0.72,2.209" style="fill:none;stroke:#ffa400;stroke-width:4px;"/>
            <path d="M63.353,73.164c0.01,0.244 0.01,0.489 0.04,0.732c0.01,0.072 0.09,-0.115 0.12,-0.183c0.05,-0.12 0.07,-0.248 0.12,-0.366c0.15,-0.35 0.3,-0.724 0.57,-0.996c0.76,-0.753 1.73,-1.344 2.65,-1.891c1.13,-0.682 1.96,-1.761 3.02,-2.52c1.23,-0.876 2.72,-1.542 4.15,-2.053c0.97,-0.346 1.91,-0.796 2.85,-1.199c0.34,-0.147 0.67,-0.287 0.99,-0.468c0.14,-0.077 0.41,-0.244 0.41,-0.244l-0.35,0c-0.25,0 -0.51,0.012 -0.77,0.041c-0.74,0.082 -1.46,0.167 -2.17,0.386c-0.95,0.29 -1.79,0.799 -2.6,1.342c-0.26,0.169 -0.46,0.355 -0.68,0.569c-0.06,0.062 -0.18,0.223 -0.28,0.223" style="fill:none;stroke:#ffa400;stroke-width:4px;"/>
            <path d="M65.183,70.135c0.08,-1.543 0.41,-3.056 0.85,-4.533c0.18,-0.605 0.28,-1.239 0.43,-1.849c0.28,-1.139 0.92,-2.22 1.48,-3.232c0.61,-1.09 1.29,-2.294 2.12,-3.253c0.24,-0.287 0.51,-0.548 0.73,-0.853c0.05,-0.074 0.32,-0.273 0.32,-0.326" style="fill:none;stroke:#ffa400;stroke-width:4px;"/>
            <path d="M67.133,53.813c-0.67,0.382 -0.83,0.926 -1.26,1.504c-0.49,0.652 -1.05,1.033 -1.28,1.85c-0.04,0.157 -0.24,0.417 -0.24,0.569" style="fill:none;stroke:#ffa400;stroke-width:4px;"/>
            <path d="M60.483,69.18c0.49,0.445 1.22,1.024 1.57,1.545c0.14,0.212 0.46,0.316 0.55,0.589" style="fill:none;stroke:#ffa400;stroke-width:4px;"/>
            <path d="M70.723,65.828c0.46,-0.84 1.14,-1.455 1.73,-2.208c1.09,-1.401 2.16,-2.928 3.52,-4.058c0.55,-0.456 0.93,-0.991 1.61,-1.283c0.07,-0.029 0.39,-0.3 0.48,-0.209c0.12,0.119 -0.01,0.946 -0.03,1.104c-0.12,0.822 -0.49,1.67 -0.84,2.417c-0.19,0.413 -0.3,1.179 -0.74,1.402c-0.85,0.422 -2.03,-0.135 -1.55,-1.193c0.26,-0.589 0.69,-1.066 1.07,-1.582c0.37,-0.51 0.63,-1.143 1.04,-1.611c0.77,-0.867 1.54,-1.742 2.3,-2.626c0.98,-1.139 1.55,-2.622 2.75,-3.58c0.99,-0.794 2.06,-1.663 3.07,-2.417c0.66,-0.495 1.31,-1.098 2.09,-1.432c3.14,-1.347 6.3,-1.939 9.75,-1.939c1.21,0 2.54,-0.081 3.7,0.268c0.96,0.286 1.8,0.7 2.72,1.044c2.41,0.906 4.73,2.167 6.68,3.879c0.44,0.379 1.38,0.779 1.55,1.313" style="fill:none;stroke:#ffa400;stroke-width:4px;"/>
            <path d="M87.563,47.737c2.01,-2.512 4.55,-4.431 7.14,-6.37c0.49,-0.366 0.83,-0.898 1.25,-1.325c0.95,-0.945 1.97,-1.926 3.1,-2.674c1.56,-1.043 3.13,-2.141 4.62,-3.302c0.49,-0.376 1.17,-0.726 1.58,-1.139" style="fill:none;stroke:#ffa400;stroke-width:4px;"/>
            <path d="M93.073,31.397c0.65,-0.463 1.23,-0.407 1.93,-0.704c1.49,-0.641 3.1,-0.99 4.74,-0.99c0.44,0 1.03,-0.107 1.46,0c0.67,0.168 1.12,0.629 1.56,1.147c0.14,0.163 0.27,0.343 0.39,0.52c0.07,0.103 0.23,0.41 0.23,0.287c0,-1.132 -1.15,-2.176 -2.03,-2.761c-0.27,-0.184 -0.57,-0.339 -0.88,-0.443c-0.12,-0.039 -0.37,-0.078 -0.37,-0.078l0.31,0c0.23,0 0.46,-0.001 0.68,-0.026c0.68,-0.076 1.42,-0.043 2.09,-0.208c0.81,-0.203 1.66,-0.157 2.5,-0.157l3.67,0c0.87,0 1.69,-0.26 2.55,-0.26l0.81,0c0,0.067 -0.27,0.194 -0.31,0.234c-0.32,0.318 -0.65,0.601 -0.99,0.886c-1.28,1.048 -2.6,2.13 -4.07,2.865c-0.49,0.246 -0.98,0.481 -1.51,0.677c-0.02,0.008 -0.45,0.14 -0.47,0.078c-0.06,-0.273 0.1,-0.626 0.16,-0.885c0.09,-0.411 0.14,-0.835 0.21,-1.25c0.04,-0.253 0.05,-0.503 0.08,-0.756c0.01,-0.084 0.02,-0.149 0.02,-0.234c0,-0.044 -0.02,-0.167 0,-0.13c0.52,0.772 0.45,1.83 0.45,2.708" style="fill:none;stroke:#ffa400;stroke-width:4px;"/>
            <path d="M110.453,50.721c1.25,1.318 2.79,2.342 3.89,3.722c0.44,0.552 1.04,0.944 1.33,1.639c0.28,0.642 0.93,1.596 0.67,2.361c-0.08,0.232 -0.56,0.381 -0.78,0.417c-0.64,0.107 -1.19,0.277 -1.86,0.277c-2.66,0 -5.33,0.139 -7.97,0.139" style="fill:none;stroke:#ffa400;stroke-width:4px;"/>
            <path d="M115.013,58.415c-0.04,-1.071 -1.15,-2.311 -1.84,-3.111c-2.32,-2.717 -5.01,-4.999 -8.16,-6.749" style="fill:none;stroke:#ffa400;stroke-width:4px;"/>
            <path d="M105.673,59.766c-0.13,-0.113 -0.49,-0.43 -0.62,-0.527c-0.16,-0.108 -0.81,0 -1.03,0c-0.97,0 -1.91,0.099 -2.89,0.099l-1.92,0c-0.06,0 -0.69,-0.058 -0.59,0.099c0.14,0.209 0.41,0.29 0.59,0.428c0.76,0.564 1.57,1.078 2.38,1.614c2.17,1.447 4.33,3.139 6.49,4.679c1.01,0.724 2.53,1.507 2.53,2.932c0,0.269 0.07,0.633 -0.09,0.857c-0.33,0.426 -1.18,0.827 -1.65,1.087c-0.4,0.223 -0.85,0.346 -1.25,0.527c-0.16,0.068 -0.31,0.187 -0.46,0.264c-0.09,0.04 -0.33,0.13 -0.27,0.066c0.67,-0.667 1.02,-1.486 1.02,-2.438c0,-0.176 0.07,-0.532 0,-0.692c-0.13,-0.295 -0.55,-0.581 -0.79,-0.791c-0.63,-0.563 -1.28,-1.095 -1.97,-1.581c-1.54,-1.072 -2.99,-2.19 -4.45,-3.361c-0.66,-0.525 -1.46,-1.481 -2.28,-1.713c-2.83,-0.811 -6.07,-0.986 -9.02,-0.495c-0.91,0.151 -1.84,0.469 -2.71,0.758c-0.23,0.077 -0.8,0.114 -0.95,0.264" style="fill:none;stroke:#ffa400;stroke-width:4px;"/>
            <path d="M77.343,63.95c1.6,0.081 2.71,-0.502 4.18,-0.922c2.12,-0.606 4.18,-1.67 6.29,-2.274c3.76,-1.073 7.52,-1.021 11.47,-1.021" style="fill:none;stroke:#ffa400;stroke-width:4px;"/>
            <path d="M60.723,88.554c0.72,0.128 0.89,0.384 1.5,0.714c1.29,0.708 2.39,1.489 3.57,2.402c2.75,2.138 5.01,4.587 7.43,7.012c1.18,1.179 2.53,2.314 3.6,3.571c0.63,0.73 1.5,1.408 2.31,1.916c0.51,0.317 0.96,0.777 1.56,0.876c0.66,0.111 1.41,0.401 1.95,-0.13c0.6,-0.601 -0.38,-1.6 -0.78,-1.948c-1.41,-1.2 -3.31,-1.068 -4.74,-2.142c-3.63,-2.719 -6.65,-6.485 -9,-10.388c-0.44,-0.735 -0.22,-1.618 -0.35,-2.435c-0.07,-0.426 -0.24,-0.854 -0.33,-1.266c-0.21,-0.957 -1.03,-1.938 -1.56,-2.727c-0.65,-0.986 -1.06,-2.167 -1.49,-3.278c-0.47,-1.233 -0.79,-2.531 -1.14,-3.799c-0.04,-0.153 -0.36,-1.233 -0.51,-1.233c-0.21,0 -0.02,0.412 0,0.617c0.08,1.03 0.5,2.231 0.81,3.213c0.5,1.598 0.91,3.194 1.72,4.675c0.65,1.195 1.17,2.229 2.5,2.727c1.27,0.477 2.94,0.102 4.09,-0.552c0.42,-0.242 0.89,-0.622 1.36,-0.779c1.33,-0.442 2.62,-1.165 3.99,-1.558c2.88,-0.822 5.99,-1.742 9.03,-2.045c3.07,-0.307 6.15,-0.472 9.22,-0.779c3.74,-0.374 7.31,-0.134 10.81,1.266c1.08,0.432 2.36,0.982 3.24,1.72c0.28,0.231 0.59,0.504 0.82,0.779c0.13,0.16 0.38,0.487 0.38,0.487c0,0 -0.3,-0.364 -0.45,-0.552c-0.27,-0.349 -0.53,-0.693 -0.81,-1.039c-0.76,-0.947 -1.63,-1.992 -2.53,-2.791c-1.76,-1.563 -3.61,-2.99 -5.39,-4.513c-0.71,-0.608 -2.01,-1.118 -2.44,-1.98c-0.3,-0.618 0.4,-1.084 0.82,-1.331c1.14,-0.687 2.81,-0.653 4.08,-0.909c0.5,-0.099 0.98,-0.235 1.47,-0.357c0.04,-0.01 0.53,-0.112 0.45,-0.195c-0.15,-0.147 -1.16,0 -1.36,0c-1.43,0 -2.59,0.324 -3.96,0.552c-1.31,0.217 -2.62,0.161 -3.93,0.325c-1.83,0.229 -3.64,0.704 -5.49,0.909c-1.03,0.114 -2.07,0.582 -3.05,0.909c-1.33,0.442 -2.81,0.777 -4.19,0.974c-2.24,0.32 -4.63,1.08 -6.72,1.915c-0.69,0.279 -1.44,0.415 -2.14,0.714c-0.22,0.097 -0.5,0.255 -0.71,0.325c-0.12,0.038 -0.45,0.162 -0.33,0.162c0.64,0 1.25,-0.396 1.85,-0.584c1.54,-0.481 3.11,-0.843 4.68,-1.234c3.37,-0.843 6.83,-0.974 10.29,-0.974c1.55,0 3.14,-0.088 4.67,0.065c1.74,0.174 3.46,0.593 4.9,1.623c0.26,0.183 1.17,0.507 1.17,0.877" style="fill:none;stroke:#ffa400;stroke-width:4px;"/>
            <path d="M71.793,79.529c2.36,-2.235 5.89,-2.728 8.96,-3.213c1.45,-0.23 2.89,-0.271 4.35,-0.357c3.86,-0.228 8.07,-0.465 11.75,0.909c1.63,0.608 3.28,1.169 4.61,2.337" style="fill:#f3ede1;stroke:#ffa400;stroke-width:4px;"/>
            <path d="M73.463,86.85c1.01,0.561 2.03,0.639 3.02,1.136c0.24,0.121 0.6,0.098 0.82,0.227c3.53,2.123 7.76,3.432 11.23,5.746c2.48,1.653 4.68,3.607 6.98,5.519c0.89,0.747 1.64,1.798 2.33,2.727c0.94,1.243 2.05,2.386 3.02,3.635c0.59,0.762 0.9,1.735 1.46,2.532c1.33,1.89 2.56,3.897 3.7,5.909c0.3,0.508 0.64,0.988 0.88,1.525c0.07,0.159 0.29,0.315 0.29,0.487" style="fill:none;stroke:#ffa400;stroke-width:4px;"/>
            <path d="M55.603,105.174c0.61,0.674 1.27,1.413 1.95,1.98c0.38,0.315 0.82,0.527 1.17,0.876c0.7,0.701 1.65,1.648 2.66,1.851c1.33,0.265 2.18,-0.227 3.09,-1.136c0.25,-0.251 0.57,-0.486 0.84,-0.715c0.15,-0.123 0.45,-0.357 0.45,-0.357c0,0 -0.05,0.337 -0.12,0.487c-0.18,0.355 -0.43,0.735 -0.69,1.039c-0.81,0.947 -1.68,1.623 -2.95,1.623" style="fill:none;stroke:#ffa400;stroke-width:4px;"/>
            <path d="M56.873,112.608c1.03,0.359 1.75,1.045 2.66,1.59c0.51,0.305 0.99,0.821 1.59,0.942c1.17,0.232 2.36,-0.47 3.44,-0.779c0.72,-0.205 1.49,-0.339 2.15,-0.715c1.74,-0.999 3.23,-2.326 4.9,-3.441c1.67,-1.112 3.23,-2.314 4.74,-3.603c0.65,-0.558 1.44,-1.024 2.01,-1.688c0.71,-0.833 1.26,-1.816 2.05,-2.597c1.46,-1.464 3.01,-2.855 4.48,-4.318c1.1,-1.108 2.99,-2.4 4.67,-1.98c0.43,0.108 0.02,0.988 -0.13,1.136c-0.82,0.82 -1.81,1.034 -2.73,1.689c-0.86,0.619 -1.7,1.31 -2.3,2.207c-0.52,0.771 -1.17,1.982 -2.01,2.402c-0.29,0.145 -0.55,-0.261 -0.69,-0.422c-0.44,-0.508 -0.98,-0.922 -1.42,-1.428c-0.23,-0.254 -0.48,-0.479 -0.72,-0.714c-0.09,-0.088 -0.48,-0.098 -0.36,-0.098c0.89,0 1.78,0.098 2.67,0c1.44,-0.16 3.47,-1.446 4.31,-2.629c0.55,-0.76 0.77,-1.448 0.88,-2.402c0.03,-0.26 0.03,-0.516 0.03,-0.78l0,-0.454c0,0 0.02,0.325 0.04,0.487c0.03,0.319 0.11,0.623 0.16,0.941c0.13,0.929 -0.1,1.756 -0.59,2.5c-1.02,1.558 -3.24,2.644 -3.86,4.512c-0.14,0.416 -0.07,1.359 0,1.786c0.24,1.442 1.78,2.667 2.63,3.733c2.3,2.878 4.27,5.879 8.15,6.525c2.6,0.433 5.11,-1.303 6.43,-3.409c0.32,-0.516 0.6,-1.349 1,-1.753c0.25,-0.249 0.71,0.294 0.78,0.455c0.21,0.475 1.05,1.662 0.62,2.24c-0.32,0.422 -1.2,0.483 -1.66,0.584c-0.79,0.176 -1.56,0.608 -2.21,1.071c-1.47,1.053 -2.94,1.909 -4.38,2.987c-0.5,0.373 -0.96,0.833 -1.43,1.233c-0.25,0.215 -0.74,0.65 -0.74,0.65l0,-0.585c0,-0.381 0.05,-0.804 -0.07,-1.168c-0.36,-1.079 -1.39,-2.399 -2.14,-3.247c-0.59,-0.663 -1.05,-1.418 -1.59,-2.11c-1.55,-1.986 -3.49,-3.806 -5.75,-4.934c-1.3,-0.65 -2.65,-1.461 -4.15,-1.461" style="fill:none;stroke:#ffa400;stroke-width:4px;"/>
            <path d="M64.883,115.43c-1.09,0.688 -2.51,0.754 -3.52,1.516c-0.47,0.352 -0.82,0.532 -0.95,1.182c-0.26,1.266 1.58,2.151 2.31,2.878c0.5,0.504 1.03,1.292 1.41,1.927c0.73,1.208 2,2.053 2.9,3.135c0.85,1.013 1.62,2.127 2.63,3.006c1.53,1.348 2.93,2.883 4.31,4.394c0.58,0.633 1.22,1.2 1.72,1.901c0.1,0.134 0.18,0.287 0.29,0.412c0.04,0.046 0.16,0.134 0.1,0.154c-0.1,0.033 -0.21,-0.128 -0.28,-0.18c-0.35,-0.249 -0.61,-0.657 -0.93,-0.951c-0.73,-0.686 -1.53,-1.293 -2.29,-1.953c-0.39,-0.347 -0.7,-0.788 -1.1,-1.13c-0.88,-0.757 -1.87,-1.465 -2.65,-2.339c-0.95,-1.077 -1.92,-2.139 -3,-3.083c-0.78,-0.682 -1.42,-1.529 -2.21,-2.21c-0.84,-0.717 -1.53,-1.634 -2.37,-2.364c-0.82,-0.723 -1.66,-1.222 -2.69,-1.567c-0.42,-0.138 -0.85,-0.247 -1.29,-0.334c-0.09,-0.018 -0.37,-0.009 -0.44,-0.077c-0.06,-0.06 -0.02,-0.339 -0.02,-0.437c0,-0.539 0.11,-0.899 0.25,-1.413c0.06,-0.179 0.11,-0.367 0.18,-0.54c0.04,-0.093 0.08,-0.38 0.11,-0.283c0.16,0.647 -0.42,1.762 -0.67,2.339c-0.06,0.126 -0.26,0.327 -0.26,0.462" style="fill:none;stroke:#ffa400;stroke-width:4px;"/>
            <path d="M71.203,121.931c1.29,1.698 2.24,3.813 4,5.139c0.41,0.3 1.35,1.163 1.93,0.694c0.71,-0.57 1.16,-1.334 1.57,-2.159c0.31,-0.626 1.13,-1.295 1.13,-2.055" style="fill:none;stroke:#ffa400;stroke-width:4px;"/>
            <path d="M76.423,135.451c0.6,-0.327 1.22,-0.657 1.8,-0.986c0.71,-0.406 1.3,-1.13 1.91,-1.614c0.66,-0.526 0.95,-1.452 1.64,-1.972c1.73,-1.298 3.2,-3.125 4.58,-4.842c1.3,-1.627 2.87,-3.141 4.36,-4.632c0.73,-0.735 1.45,-1.574 2.27,-2.212c0.37,-0.286 0.79,-0.503 1.14,-0.807c0.53,-0.471 1.15,-1.234 1.79,-1.554" style="fill:none;stroke:#ffa400;stroke-width:4px;"/>
            <path d="M75.003,135.686c1.84,1.336 2.85,3.388 4.55,4.809c2.34,1.944 4.76,3.733 6.74,6.047c1.12,1.309 2.32,2.568 3.54,3.788c0.4,0.401 0.81,0.79 1.24,1.166c0.04,0.041 0.64,0.565 0.65,0.547c0.11,-0.316 -0.18,-0.734 -0.33,-0.984c-0.46,-0.808 -1.07,-1.508 -1.56,-2.295c-2.12,-3.384 -5.21,-5.68 -7.8,-8.634c-1.02,-1.165 -1.7,-2.437 -2.59,-3.679c-0.29,-0.418 -0.6,-0.957 -0.83,-1.421c-0.06,-0.103 -0.15,-0.305 -0.22,-0.401c0,-0.003 -0.12,-0.189 -0.11,-0.182c0.29,0.197 0.53,0.604 0.73,0.875c0.76,1.069 1.51,2.314 2.44,3.242c1.42,1.42 2.46,3.207 3.6,4.918c1.38,2.067 3.07,4.041 4.63,5.974c1.2,1.478 2.06,3.188 3.31,4.627c1.7,1.939 3.14,4.116 4.78,6.12c0.54,0.667 1.15,1.288 1.67,1.967c0.15,0.194 0.35,0.376 0.48,0.583c0.08,0.125 0.21,0.505 0.25,0.364c0.19,-0.553 -0.85,-1.76 -1.09,-2.186c-1.21,-2.145 -2.89,-4.315 -4.44,-6.229c-0.87,-1.068 -1.7,-2.156 -2.63,-3.169c-0.06,-0.064 -0.9,-0.855 -0.91,-0.838c-0.1,0.207 0.54,0.971 0.66,1.129c0.81,1.137 1.68,2.287 2.58,3.351c2.51,2.945 4.5,6.246 6.71,9.399c0.66,0.943 1.43,1.744 2,2.769c0.12,0.214 0.51,0.601 0.51,0.838" style="fill:none;stroke:#ffa400;stroke-width:4px;"/>
            <path d="M87.753,136.706c0.21,0.264 0.47,0.499 0.62,0.801c0.43,0.859 0.95,2.174 1.97,2.514c0.34,0.114 0.73,0.465 1.16,0.291c0.46,-0.184 0.72,-0.79 0.98,-1.165c0.32,-0.445 0.93,-0.852 1.35,-1.203c0.42,-0.344 0.98,-0.575 1.28,-0.874c0.06,-0.063 0.4,-0.143 0.4,-0.255" style="fill:none;stroke:#ffa400;stroke-width:4px;"/>
            <path d="M89.573,146.396c0.43,0.196 0.69,0.337 1.09,0.437c1.76,0.439 3.29,-1.578 4.49,-2.477c1.55,-1.163 2.68,-2.679 4.15,-3.934c0.84,-0.726 1.9,-1.425 2.55,-2.332c1.09,-1.529 2.62,-2.906 4.22,-3.825c1.54,-0.877 3.16,-1.962 4.81,-2.623c0.39,-0.153 1.37,-0.705 1.75,-0.328c0.46,0.461 -0.06,1.437 -0.33,1.785c-0.92,1.191 -2.31,2.26 -3.57,3.097c-1.25,0.832 -2.35,1.923 -3.49,2.878c-1.68,1.394 -3.51,2.613 -5.18,4.043c-1.03,0.883 -2.19,1.914 -3.39,2.514c-0.46,0.231 -0.91,0.722 -1.31,1.056c-0.62,0.522 -1.36,0.968 -2.04,1.421c-0.3,0.202 -0.8,0.729 -1.2,0.729" style="fill:none;stroke:#ffa400;stroke-width:4px;"/>
            <path d="M93.823,117.493c1.92,1.346 2.81,3.394 4.44,4.937c2.18,2.058 4.54,4.101 6.46,6.508c0.74,0.913 1.63,1.546 2.16,2.603c0.06,0.13 0.69,0.88 0.58,0.987c-0.08,0.079 -0.87,-0.564 -0.94,-0.628c-0.87,-0.783 -1.63,-1.665 -2.51,-2.424c-2.56,-2.188 -4.78,-5.138 -6.83,-7.764c-0.81,-1.054 -1.71,-2.74 -2.96,-3.366" style="fill:none;stroke:#ffa400;stroke-width:4px;"/>
            <path d="M106.433,114.487c0.8,1.657 1.22,3.607 1.75,5.385c0.6,1.99 1.52,3.953 2.29,5.879c0.52,1.298 0.85,2.786 1.53,3.995c0.04,0.082 0.59,1.335 0.71,1.211c0.06,-0.053 0,-0.422 0,-0.493l0,-1.975c0,-0.907 -0.32,-1.758 -0.62,-2.603c-0.73,-2.026 -1.28,-4.078 -2.16,-6.014c-0.49,-1.081 -0.99,-2.151 -1.48,-3.231c-0.2,-0.432 -0.41,-0.863 -0.58,-1.302c-0.01,-0.028 -0.25,-0.293 -0.27,-0.224c-0.4,1.195 0.35,2.977 0.63,4.129c0.46,1.975 0.7,3.982 1.3,5.924c0.44,1.426 1.14,2.765 1.61,4.174c1.46,4.38 2.12,9.085 2.47,13.688c0.22,2.776 1.03,5.594 1.03,8.392" style="fill:none;stroke:#ffa400;stroke-width:4px;"/>
            <path d="M107.213,136.743c0.51,-0.152 1,-0.374 1.52,-0.224c1.61,0.46 2.38,2.819 3.32,3.994c0.99,1.237 1,3.159 1.44,4.623c1.27,4.225 1.44,8.333 1.44,12.746c0,2.091 -0.15,4.248 0.04,6.328c0.06,0.697 0.09,1.461 0.09,2.154c0,0.07 -0.07,0.617 0.09,0.538c0.24,-0.12 0.23,-1.836 0.23,-2.064c0,-2.169 0.04,-4.337 0.04,-6.508c0,-7.267 -0.28,-14.387 -1.71,-21.497c-0.3,-1.497 -0.71,-3.067 -0.89,-4.578c-0.08,-0.574 0.07,-1.633 -0.36,-2.064" style="fill:none;stroke:#ffa400;stroke-width:4px;"/>
            <path d="M103.863,167.428c1.08,1.224 1.39,2.89 2.3,4.25c0.71,1.065 1.77,1.852 2.47,2.899c0.63,0.944 1.21,1.995 1.91,2.933c0.76,1.002 1.59,2.374 1.72,3.656c0.19,1.968 0.66,4.035 0.29,6.03c-0.14,0.786 -0.36,1.485 -0.59,2.24c-0.06,0.212 -0.15,0.421 -0.23,0.626c-0.05,0.13 -0.13,0.395 -0.13,0.395c0,0 -0.02,-0.199 0,-0.296c0.03,-0.22 0.13,-0.48 0.2,-0.692c0.15,-0.551 0.29,-1.134 0.46,-1.68c0.35,-1.149 0.8,-2.28 1.25,-3.394c0.3,-0.754 0.72,-1.518 0.82,-2.339c0.33,-2.612 0.39,-5.252 0.63,-7.874c0.1,-1.08 -0.04,-2.183 0.07,-3.262c0.19,-1.927 0.39,-3.888 0.39,-5.831" style="fill:none;stroke:#ffa400;stroke-width:4px;"/>
            <path d="M104.223,170.591c-1.89,-0.378 -3.11,0.853 -4.61,1.713c-1.63,0.93 -2.74,2.591 -4.29,3.624c-2.18,1.459 -4.57,2.796 -6.65,4.415c-1.08,0.835 -2.14,1.663 -3.17,2.57c-0.36,0.328 -0.74,0.643 -1.08,0.988c-0.09,0.088 -0.18,0.351 -0.26,0.264c-0.06,-0.057 0.42,-0.739 0.46,-0.791c0.53,-0.805 1.29,-1.441 2.01,-2.076c2.89,-2.551 5.95,-4.646 9.22,-6.688c2.52,-1.572 4.74,-3.162 4.74,-6.391c0,-1.027 0.07,-2.04 -0.03,-3.064c-0.01,-0.104 -0.32,-1.128 -0.36,-1.087c-0.03,0.032 0,0.343 0,0.395c0,0.449 0.01,0.88 0.1,1.318c0.15,0.781 0.2,1.991 0.89,2.537c0.39,0.311 1.41,0.23 1.88,0.164c3.82,-0.545 6.14,-4.013 9.45,-5.666" style="fill:none;stroke:#ffa400;stroke-width:4px;"/>
            <path d="M101.253,163.938c1.6,0.757 2.87,1.825 4.71,1.825c0.26,0 0.69,0.084 0.95,0c1.18,-0.395 2.09,-1.32 2.95,-2.176c0.92,-0.921 1.95,-1.744 2.8,-2.738c0.75,-0.874 1.03,-2.564 1.2,-3.65c0.07,-0.475 0.49,-0.934 0.49,-1.404" style="fill:none;stroke:#ffa400;stroke-width:4px;"/>
            <path d="M103.153,155.689c0.39,1.617 0.96,4.327 2.84,4.704c1.28,0.256 2.27,-0.196 3.16,-1.088c0.14,-0.14 0.96,-0.764 0.63,-1.089c-0.13,-0.137 -0.79,-0.035 -0.98,-0.035c-0.88,0 -1.82,0.197 -2.7,0.071c-0.48,-0.069 -0.91,-0.632 -1.37,-0.632" style="fill:none;stroke:#ffa400;stroke-width:4px;"/>
            <path d="M112.413,188.568c-0.2,2.054 -1.9,3.592 -2.46,5.54c-0.54,1.913 -2.2,4.114 -3.36,5.746c-2.02,2.827 -3.64,6.094 -6.12,8.578c-1.1,1.102 -1.8,2.623 -2.91,3.735c-2.04,2.036 -3.99,4.319 -5.79,6.566c-0.64,0.806 -1.3,1.608 -1.93,2.422c-0.2,0.262 -0.4,0.526 -0.62,0.78c-0.09,0.119 -0.32,0.328 -0.32,0.328c0,0 0.36,-0.264 0.53,-0.41c0.3,-0.256 0.5,-0.612 0.82,-0.862c1,-0.777 1.85,-1.838 2.63,-2.832c1.59,-2.05 3.39,-4.124 4.76,-6.321c0.5,-0.809 0.96,-1.74 1.6,-2.462c1.84,-2.066 3.32,-4.439 5.01,-6.608c1.82,-2.343 3.29,-4.851 4.88,-7.346c1,-1.564 2.16,-3.389 2.79,-5.13c0.5,-1.364 0.93,-2.758 1.4,-4.146c0.58,-1.744 1.2,-3.607 1.35,-5.458c0.1,-1.166 0.04,-2.357 0.04,-3.53" style="fill:none;stroke:#ffa000;stroke-width:4px;"/>
            <path d="M49.503,179.604c1.41,1.414 2.95,2.689 4.36,4.105c1.36,1.359 2.44,2.941 3.72,4.365c1.48,1.646 3.15,3.102 4.62,4.754c1.03,1.158 2.08,2.34 2.99,3.587c0.14,0.199 0.82,1.34 1.12,1.34c0.15,0 -0.18,-1.143 -0.22,-1.21c-0.6,-1.201 -1.35,-2.293 -2.07,-3.414c-2.49,-3.851 -5.82,-7.154 -9.03,-10.372c-0.87,-0.863 -1.69,-1.774 -2.55,-2.637c-0.27,-0.266 -0.56,-0.514 -0.82,-0.778c-0.1,-0.094 -0.17,-0.208 -0.26,-0.302c-0.07,-0.065 -0.3,-0.224 -0.22,-0.173c2.33,1.552 4.12,3.975 5.96,6.05c2.87,3.228 5.51,6.805 8.52,9.811c2.37,2.376 4.94,4.422 7.34,6.828c1.29,1.284 2.71,2.462 3.85,3.933c0.36,0.457 1.12,0.958 1.12,1.599" style="fill:none;stroke:#ffa000;stroke-width:4px;"/>
            <path d="M86.843,180.814c-0.88,0.54 -1.28,1.327 -2.08,1.858c-0.79,0.527 -1.59,1.292 -2.29,1.988c-1.13,1.138 -2.48,1.828 -3.71,2.852c-1.57,1.304 -3.07,2.64 -4.63,3.976c-1.43,1.229 -2.84,2.518 -4.28,3.717c-0.46,0.388 -0.83,0.866 -1.29,1.253c-0.27,0.222 -0.74,0.735 -0.74,0.735l0.69,0c0.29,0 0.74,-0.244 1,-0.389c1.12,-0.643 2.19,-1.373 3.11,-2.29c1.98,-1.983 4.07,-3.87 6.22,-5.662c0.87,-0.723 1.53,-1.694 2.42,-2.334c1.25,-0.887 2.49,-2.042 3.5,-3.198c0.1,-0.104 1.09,-1.159 1,-1.253c-0.13,-0.128 -1.04,0 -1.21,0c-1.32,0 -3.14,1.465 -4.11,2.291c-1.77,1.521 -3.77,2.765 -5.62,4.148c-1.72,1.292 -3.26,2.867 -4.97,4.149c-0.83,0.627 -1.55,1.47 -2.29,2.204c-0.22,0.223 -0.49,0.735 -0.77,0.735" style="fill:none;stroke:#ffa000;stroke-width:4px;"/>
            <path d="M83.593,183.814c4.82,4.139 8.3,9.8 12.09,14.852c0.76,1.013 1.35,2.179 2,3.263c0.36,0.589 0.87,1.172 1.14,1.799c0.25,0.603 0.58,1.174 0.87,1.758c0.11,0.207 0.18,0.468 0.3,0.669c0.05,0.096 0.16,0.405 0.16,0.293c0,-2.441 -1.62,-4.83 -2.67,-6.945c-2.43,-4.855 -5.64,-9.579 -9.79,-13.095c-0.75,-0.632 -1.39,-1.376 -2.14,-2.008c-0.67,-0.571 -1.47,-1.011 -2.13,-1.59c-0.16,-0.14 -1.34,-1.045 -1.51,-0.878c-0.1,0.098 0.16,0.23 0.25,0.334c0.29,0.325 0.59,0.689 0.84,1.046c1.14,1.661 2.4,3.271 3.6,4.895c1.71,2.324 3.22,4.743 4.85,7.112c0.74,1.079 1.58,2.162 2.22,3.305c0.86,1.545 1.67,3.181 2.59,4.686c0.74,1.192 1.26,2.513 1.89,3.765c0.32,0.65 0.92,1.56 0.92,2.301" style="fill:none;stroke:#ffa000;stroke-width:4px;"/>
            <path d="M52.763,203.015c0.74,-0.156 1.09,-0.329 1.58,-0.697c0.1,-0.074 0.84,-0.548 0.51,-0.465c-0.37,0.092 -0.98,0.502 -1.21,0.79c-0.12,0.153 -0.35,0.651 -0.56,0.651" style="fill:none;stroke:#ffa000;stroke-width:4px;"/>
            <path d="M64.923,184.576c0.62,0.828 1,1.855 1.56,2.729c0.26,0.403 0.68,0.799 1.23,0.593c0.82,-0.309 1.54,-1.162 2.05,-1.841c0.15,-0.197 0.3,-0.391 0.44,-0.593c0.03,-0.038 0.26,-0.401 0.28,-0.38c0.12,0.122 -0.5,0.643 -0.55,0.698c-0.51,0.506 -1.09,0.954 -1.63,1.439c-0.16,0.141 -0.47,0.444 -0.7,0.444" style="fill:none;stroke:#ffa000;stroke-width:4px;"/>
            <path d="M61.173,218.789c0.59,0.591 0.79,1.321 1.18,2.027c0.21,0.37 0.32,0.875 0.67,1.15c0.33,0.265 0.81,0.242 1.21,0.242c0.89,0 1.53,-0.741 2.27,-1.15c0.26,-0.149 0.56,-0.336 0.81,-0.514c0.01,-0.005 0.31,-0.226 0.31,-0.212c0,0.068 -0.4,0.41 -0.46,0.484c-0.44,0.573 -0.9,1.125 -1.45,1.603c-0.19,0.17 -0.42,0.323 -0.64,0.454c-0.08,0.051 -0.27,0.121 -0.27,0.121c0,0 0.25,-0.211 0.37,-0.332c0.28,-0.318 0.57,-0.635 0.87,-0.938c0.89,-0.891 1.81,-1.78 2.69,-2.662" style="fill:none;stroke:#ffa000;stroke-width:4px;"/>
            <path d="M85.173,207.578c0.75,1.152 0.84,2.25 1.27,3.519c0.17,0.531 0.45,1.288 1.09,1.415c1.22,0.246 2.36,-1.264 3.04,-2.104c0.24,-0.286 0.47,-0.578 0.69,-0.871c0.12,-0.151 0.23,-0.569 0.37,-0.436c0.07,0.075 -0.57,0.775 -0.62,0.835c-0.53,0.632 -1.09,1.198 -1.71,1.741c-0.13,0.114 -0.32,0.363 -0.5,0.363" style="fill:none;stroke:#ffa000;stroke-width:4px;"/>
            <path d="M99.743,189.37c0.18,0.864 0.34,1.632 0.64,2.453c0.27,0.757 1.13,3.655 2.53,2.453c0.29,-0.246 0.52,-0.522 0.77,-0.804c0.33,-0.379 0.63,-0.717 0.84,-1.184c0.23,-0.5 0.52,-0.986 0.76,-1.48c0.03,-0.045 0.38,-0.763 0.43,-0.719c0.22,0.229 -0.58,1.056 -0.68,1.184c-0.75,0.933 -1.41,1.919 -2.24,2.749" style="fill:none;stroke:#ffa000;stroke-width:4px;"/>
            <path d="M65.473,229.734c1.23,-1.024 2.11,-2.592 3.28,-3.53c1.21,-0.969 2.39,-2.001 3.68,-2.924c0.66,-0.472 1.66,-0.923 2.17,-1.563c1.21,-1.511 2.51,-3.062 3.88,-4.437c1.11,-1.102 1.82,-2.275 2.88,-3.328c0.25,-0.248 1.11,-0.689 1.11,-1.059" style="fill:none;stroke:#ffa400;stroke-width:4px;"/>
            <path d="M77.893,219.363c0.96,0.166 1.45,0.698 2.14,1.295c0.64,0.544 1.29,1.115 1.67,1.885c0.56,1.112 0.64,2.29 0.64,3.51c0,0.468 0.04,0.96 -0.07,1.414c-0.29,1.145 -1.44,2.002 -2.5,2.356c-1.65,0.551 -3.47,0.879 -5.2,1.036c-2.83,0.257 -5.71,0.569 -8.58,0.33c-1.65,-0.137 -3.24,-0.666 -4.88,-0.848c-0.74,-0.083 -1.5,-0.047 -2.26,-0.047c-0.32,0 -0.68,-0.054 -0.96,0.118c-0.51,0.302 -1.17,0.898 -0.73,1.555c0.54,0.82 1.81,0.706 2.68,0.706c2.24,0 4.46,-0.109 6.67,-0.33c2.58,-0.257 5.01,-1.131 7.51,-1.79c1.83,-0.481 3.63,-1.027 5.42,-1.626c0.81,-0.268 1.75,-0.575 2.48,-1.013c2.11,-1.266 4.21,-2.637 5.86,-4.523c1.17,-1.335 2.34,-2.566 3.3,-4.076c0.46,-0.726 0.9,-1.482 1.32,-2.238c0.14,-0.253 0.37,-0.843 0.54,-1.013c0.02,-0.022 -0.19,0.11 -0.23,0.142c-0.17,0.116 -0.34,0.343 -0.48,0.494c-0.46,0.521 -0.87,1.107 -1.36,1.602c-0.82,0.82 -1.6,1.668 -2.5,2.403c-0.76,0.624 -1.59,1.168 -2.35,1.791c-0.41,0.335 -0.89,0.664 -1.37,0.872c-0.06,0.025 -0.38,0.209 -0.45,0.141c-0.05,-0.048 0.3,-0.453 0.33,-0.495c0.36,-0.506 0.77,-0.95 1.13,-1.437c0.05,-0.065 0.23,-0.41 0.17,-0.471c-0.11,-0.106 -0.58,0.05 -0.73,0c-0.36,-0.118 -0.7,-0.35 -1.02,-0.542c-0.45,-0.273 -0.81,-0.815 -1.13,-1.225c-0.42,-0.54 -1.14,-1.134 -1.36,-1.791c-0.4,-1.202 -0.66,-2.423 -0.66,-3.745c0,-0.033 0.01,0.064 0.02,0.094c0.03,0.071 0.08,0.146 0.12,0.212c0.09,0.153 0.16,0.309 0.23,0.471c0.23,0.507 0.26,1.046 0.4,1.579c0.42,1.527 1.21,2.955 1.79,4.429" style="fill:none;stroke:#ffa400;stroke-width:4px;"/>
            <path d="M78.863,215.689c0.1,-1.339 -0.07,-2.506 -0.33,-3.81c-0.24,-1.195 -0.45,-2.374 -0.69,-3.563c-0.09,-0.48 -0.44,-0.898 -0.63,-1.344c-0.78,-1.821 -1.93,-3.415 -3.45,-4.714c-0.45,-0.383 -0.83,-0.855 -1.32,-1.179c-1.57,-1.051 -3.16,-2.728 -5.29,-2.302c-0.82,0.164 -1.32,0.823 -1.94,1.288c-1.65,1.235 -3.19,2.557 -4.63,4.002" style="fill:none;stroke:#ffa400;stroke-width:4px;"/>
            <path d="M84.043,182.967c-0.15,-0.136 -0.33,-0.35 -0.54,-0.44c-0.33,-0.142 -0.77,-0.156 -1.12,-0.287c-0.27,-0.101 -0.48,-0.3 -0.71,-0.44c-0.77,-0.463 -1.65,-0.924 -2.3,-1.57c-0.5,-0.501 -0.93,-1.067 -1.44,-1.569c-0.14,-0.151 -0.31,-0.323 -0.44,-0.498c-0.06,-0.092 -0.05,-0.078 -0.13,-0.153c-0.02,-0.025 -0.1,-0.102 -0.07,-0.076c0.36,0.367 0.79,0.69 1.12,1.091c0.68,0.801 1.15,1.806 1.61,2.736c0.24,0.488 0.5,0.977 0.67,1.493c0.05,0.162 0.12,0.332 0.15,0.498c0.01,0.034 0.08,0.302 0.08,0.287c0.06,-0.176 0,-0.468 0,-0.651c0,-0.823 -0.26,-1.453 -0.57,-2.201c-0.22,-0.528 -0.37,-1.108 -0.69,-1.588c-1.07,-1.607 -2.34,-2.947 -3.7,-4.306c-0.4,-0.405 -0.67,-0.954 -1.01,-1.398c-0.96,-1.236 -1.23,-3.118 -1.63,-4.593c-0.08,-0.311 -0.2,-0.611 -0.3,-0.918c-0.21,-0.636 -0.12,-0.976 -0.85,-0.976c-0.1,0 -0.24,-0.021 -0.34,0c-0.14,0.028 -0.31,0.116 -0.44,0.172c-0.28,0.116 -0.55,0.279 -0.8,0.44c-0.46,0.292 -1,0.96 -0.77,1.569c0.29,0.775 1.02,1.583 1.53,2.24c0.85,1.087 1.56,2.378 2.53,3.349c0.78,0.785 1.45,1.648 2.2,2.469c0.54,0.591 1.22,1.174 1.66,1.837" style="fill:none;stroke:#ffa400;stroke-width:4px;"/>
            <path d="M81.713,170.719c-0.08,1.745 0.61,3.328 1.79,4.516c0.27,0.264 1.24,0.209 1.57,0.153c0.5,-0.082 0.98,-0.512 1.38,-0.765c0.77,-0.481 1.42,-1.108 2.11,-1.684c0.34,-0.288 0.67,-0.516 0.95,-0.881c0.09,-0.11 0.2,-0.198 0.29,-0.306c0.05,-0.059 0.15,-0.172 0.15,-0.172c0,0 -0.2,0.264 -0.32,0.383c-0.26,0.263 -0.5,0.558 -0.77,0.822c-0.4,0.406 -0.82,0.817 -1.2,1.244c-0.39,0.43 -0.69,0.882 -1.23,1.11c-0.61,0.263 -1.38,0.298 -1.91,-0.057c-0.1,-0.063 -0.58,-0.627 -0.42,-0.785c0.07,-0.075 0.35,-0.095 0.46,-0.095c0.43,0 0.83,-0.115 1.24,-0.115" style="fill:none;stroke:#ffa400;stroke-width:4px;"/>
            <path d="M73.763,170.455c0.25,-1.267 0.18,-2.667 0.18,-3.96c0,-0.62 -0.1,-1.406 0.22,-1.959c1.09,-1.914 2.5,-3.971 4.18,-5.462c0.82,-0.731 1.69,-1.417 2.52,-2.154c1.82,-1.62 3.91,-2.868 6.24,-3.569c1.09,-0.324 2.31,-0.087 3.4,-0.087c0.07,0 -0.11,-0.081 -0.15,-0.131c-0.12,-0.124 -0.12,-0.107 -0.22,-0.239c-0.24,-0.307 -0.47,-0.619 -0.7,-0.936c-0.52,-0.727 -1.04,-1.486 -1.61,-2.176c-0.12,-0.147 -0.41,-0.584 -0.69,-0.413c-0.78,0.466 -1.05,1.455 -1.48,2.176c-0.44,0.726 -0.86,1.292 -1.37,1.915c-0.22,0.259 -0.54,0.413 -0.81,0.609c-0.76,0.54 -1.57,1.049 -2.39,1.458c-0.26,0.128 -0.77,0.262 -0.96,0.457c-0.01,0.012 0.27,-0.338 0.35,-0.435c0.21,-0.264 0.45,-0.503 0.67,-0.762c0.68,-0.796 1.45,-1.473 2.22,-2.176c0.2,-0.184 0.41,-0.407 0.63,-0.566c0.06,-0.039 0.13,-0.157 0.18,-0.108c0.04,0.042 -0.14,0.191 -0.16,0.217c-0.15,0.213 -0.33,0.403 -0.5,0.609c-0.68,0.837 -1.41,1.587 -2.26,2.264c-0.97,0.777 -2,1.417 -2.98,2.154c-0.81,0.608 -1.84,1.08 -2.55,1.784c-0.87,0.879 -1.93,1.718 -3.11,2.307c-0.57,0.286 -1.09,0.719 -1.74,0.827c-0.76,0.126 -1.59,0.286 -2.37,0.174c-1.24,-0.177 -2.33,-0.876 -3.27,-1.676c-1.56,-1.336 -2.94,-2.771 -4.33,-4.308c-1.02,-1.14 -2.18,-2.182 -3.26,-3.264c-0.25,-0.255 -0.49,-0.527 -0.76,-0.762c-0.02,-0.015 -0.25,-0.227 -0.28,-0.196c-0.09,0.084 0.16,0.167 0.24,0.261c0.15,0.214 0.36,0.401 0.54,0.61c0.91,1.094 1.86,2.067 2.98,2.959c1.32,1.055 2.57,2.158 3.74,3.33c1.03,1.023 1.48,2.258 2.51,3.285c0.68,0.689 1.48,1.191 2.32,1.698c0.94,0.559 1.79,0.996 2.86,1.262c0.31,0.079 0.72,0.348 1.04,0.348" style="fill:none;stroke:#ffa400;stroke-width:4px;"/>
            <path d="M53.823,178.346c0.94,-1.243 2.58,-2.453 3.99,-3.056c0.37,-0.16 0.67,-0.458 1.05,-0.601c0.51,-0.193 0.97,-0.773 1.43,-1.077c0.66,-0.442 1.37,-0.828 2.05,-1.252c0.71,-0.444 1.38,-1.079 2.18,-1.378c1.03,-0.386 1.97,-0.502 3.06,-0.601c0.19,-0.018 1.01,0.135 1.15,0c0.08,-0.084 -0.25,-0.189 -0.28,-0.201c-0.29,-0.131 -0.61,-0.158 -0.92,-0.2c-0.57,-0.076 -1.13,-0.075 -1.71,-0.075c-0.18,0 -0.53,-0.073 -0.7,0c-0.23,0.1 -0.45,0.359 -0.6,0.551c-0.07,0.088 -0.23,0.25 -0.23,0.25c0,0 0.28,-0.25 0.38,-0.4c0.19,-0.269 0.44,-0.484 0.63,-0.752c0.53,-0.768 1.4,-1.853 1.52,-2.805c0.07,-0.544 0.15,-1.38 -0.02,-1.904c-0.08,-0.228 -0.15,-0.444 -0.23,-0.676c-0.03,-0.115 -0.1,-0.351 -0.1,-0.351c0,0 0.13,0.356 0.2,0.526c0.17,0.356 0.28,0.734 0.48,1.077c0.44,0.775 0.71,1.595 1.08,2.405c0.09,0.214 0.35,0.514 0.35,0.751" style="fill:none;stroke:#ffa400;stroke-width:4px;"/>
            <path d="M53.943,177.509c0.11,0.129 0.39,0.445 0.48,0.583c0.07,0.106 0,0.496 0,0.618c0,0.526 -0.09,1.13 0,1.649c0.15,0.902 1.42,2.039 2.03,2.643c0.93,0.937 1.68,1.953 2.57,2.953c0.09,0.102 1,0.961 0.86,1.099c-0.24,0.24 -1.33,-0.734 -1.48,-0.858c-1.46,-1.239 -2.73,-2.72 -4.22,-3.915c-1.15,-0.921 -2.4,-1.805 -3.6,-2.609c-0.68,-0.45 -1.26,-1.073 -1.96,-1.477c-0.95,-0.543 -1.59,-1.26 -2.44,-1.922c-0.22,-0.172 -0.56,-0.401 -0.69,-0.653c-0.03,-0.073 0.47,-0.011 0.52,0c0.55,0.138 1.05,0.426 1.58,0.653c1.48,0.633 2.62,1.801 4.02,2.575c0.36,0.201 0.7,0.406 1.06,0.584c0.03,0.016 0.26,0.192 0.31,0.103c0.07,-0.139 -0.16,-0.344 -0.24,-0.413c-0.44,-0.364 -0.84,-0.789 -1.31,-1.098c-0.75,-0.503 -1.68,-0.775 -2.54,-1.202c-1.2,-0.6 -2.4,-1.415 -3.47,-2.266c-2.22,-1.778 -4.15,-3.953 -6.18,-5.975c-0.6,-0.602 -1.11,-1.285 -1.71,-1.888c-0.06,-0.058 -0.42,-0.515 -0.52,-0.515c-0.07,0 0.47,0.665 0.48,0.687c0.31,0.456 0.68,0.879 1.03,1.304c1.01,1.234 1.82,2.606 2.96,3.743c1.17,1.174 1.87,2.767 3.02,3.914c1.19,1.191 2.33,2.472 3.53,3.674c1.04,1.039 2.7,1.807 3.99,2.507c0.18,0.102 1.27,0.48 1.27,0.721" style="fill:none;stroke:#ffa400;stroke-width:4px;"/>
            <path d="M48.363,168.566c0.73,0.912 1.44,1.894 2.37,2.592c0.37,0.279 0.87,0.597 1.38,0.428c0.37,-0.124 0.65,-0.437 0.93,-0.68c0.67,-0.575 1.38,-1.092 2.12,-1.585c0.24,-0.163 0.51,-0.326 0.75,-0.503c0.07,-0.051 0.14,-0.21 0.2,-0.151c0.08,0.074 -0.14,0.331 -0.17,0.377c-0.26,0.315 -0.48,0.649 -0.73,0.956c-1.04,1.245 -3.23,1.938 -4.83,1.938" style="fill:none;stroke:#ffa400;stroke-width:4px;"/>
            <path d="M67.223,151.483c0.16,0.455 0.36,0.837 0.56,1.269c0.12,0.262 0.23,0.536 0.32,0.808c0.14,0.408 0.44,0.853 0.74,1.153c0.52,0.521 0.79,1.259 1.68,1.131c0.6,-0.085 1.23,-0.724 1.64,-1.131c0.45,-0.451 1.01,-0.759 1.43,-1.246c0.08,-0.087 0.46,-0.375 0.46,-0.484c0,-0.039 -0.06,0.042 -0.09,0.069c-0.08,0.076 -0.15,0.159 -0.23,0.231c-0.17,0.154 -0.4,0.291 -0.6,0.415c-0.76,0.485 -1.49,1.06 -2.26,1.5c-1.16,0.661 -1.69,-1.158 -2.33,-1.8" style="fill:none;stroke:#ffa400;stroke-width:4px;"/>
            <path d="M50.963,137.397c1.1,1.746 2.88,3.321 4.95,3.667c0.77,0.128 1.48,-0.118 2.21,-0.315c1.05,-0.289 1.94,-0.907 2.9,-1.388c0.32,-0.16 0.61,-0.412 0.84,-0.681c0.03,-0.039 0.37,-0.523 0.34,-0.523c-0.15,0 -0.42,0.3 -0.52,0.392c-0.39,0.347 -0.83,0.67 -1.24,0.996c-0.41,0.33 -0.94,0.627 -1.41,0.864c-0.34,0.171 -0.84,0.242 -1.12,0.524c-0.29,0.28 -0.41,0.79 -0.48,1.178c-0.23,1.385 -0.28,3.108 1.21,3.85c1.15,0.574 2.43,-0.27 3.4,-0.759c3.37,-1.682 6.47,-3.878 9.14,-6.548c0.84,-0.839 1.73,-1.646 2.65,-2.383c0.26,-0.208 0.33,-0.1 0.42,0.131c0.04,0.094 0.07,0.197 0.1,0.288c0.01,0.033 0,0.14 0,0.105c0,-0.427 -0.3,-0.825 -0.52,-1.179c-0.56,-0.911 -1.11,-1.839 -1.7,-2.724c-0.02,-0.027 0.2,0.306 0.26,0.393c0.17,0.246 0.29,0.543 0.42,0.812c0.36,0.789 0.81,1.528 1.2,2.305c0.13,0.26 0.39,0.616 0.6,0.759c0.1,0.068 0.19,0.436 0.19,0.315c0,-0.159 -0.25,-0.33 -0.34,-0.446" style="fill:none;stroke:#ffa400;stroke-width:4px;"/>
            <path d="M64.713,144.285c-1.13,0.827 -2.23,1.799 -3.43,2.514c-0.84,0.506 -1.8,0.801 -2.64,1.284c-1.1,0.63 -2.29,1.209 -3.43,1.78c-0.4,0.2 -0.73,0.583 -1.05,0.839c-0.44,0.355 -1.01,0.661 -1.52,0.916c-0.15,0.075 -0.55,0.524 -0.71,0.524c-0.13,0 0.18,-0.211 0.27,-0.314c0.16,-0.19 0.31,-0.387 0.44,-0.603c0.42,-0.703 0.52,-1.482 0.45,-2.304c-0.11,-1.168 -0.9,-2.244 -1.6,-3.143c-0.22,-0.279 -0.46,-0.533 -0.68,-0.812c-0.11,-0.132 -0.32,-0.393 -0.32,-0.393c0,0 0.31,0.056 0.45,0.131c0.31,0.171 0.61,0.342 0.92,0.524c0.91,0.55 1.93,0.978 2.8,1.597c0.28,0.204 0.69,0.558 1.04,0.629c0.08,0.014 0.51,0.166 0.45,0c-0.08,-0.243 -0.31,-0.431 -0.47,-0.629c-0.1,-0.123 -0.2,-0.358 -0.29,-0.445c-0.8,-0.798 -2.35,-0.735 -3.35,-1.309c-0.83,-0.471 -1.51,-1.075 -2.28,-1.624c-1.77,-1.266 -3.36,-2.498 -4.79,-4.164c-0.66,-0.764 -1.61,-1.835 -1.81,-2.829c-0.34,-1.706 0.98,-3.108 2.17,-4.19c0.42,-0.378 0.76,-0.786 1.16,-1.179c0.07,-0.068 0.26,-0.217 0.26,-0.34c0,-0.067 -0.26,0.101 -0.26,0.105c-0.26,0.156 -0.48,0.402 -0.74,0.576c-0.62,0.415 -1.34,0.58 -2.04,0.812c-0.93,0.311 -2.05,0.156 -2.96,-0.027c-0.18,-0.035 -0.92,-0.386 -1.07,-0.235c-0.05,0.048 0.04,0.262 0.05,0.288c0.19,0.383 0.3,0.694 0.42,1.1c0.28,0.928 0.42,1.952 0.42,2.933c0,0.463 0.02,0.955 -0.21,1.362c-0.08,0.137 -0.36,0.917 -0.58,0.917c-0.1,0 -0.02,-0.192 -0.02,-0.288c-0.03,-0.331 -0.03,-0.666 -0.06,-0.996c-0.08,-0.95 -0.23,-1.919 -0.42,-2.854c-0.07,-0.384 -0.18,-0.689 -0.39,-1.022c-0.05,-0.084 -0.11,-0.306 -0.18,-0.236c-0.11,0.109 0.16,0.405 0.21,0.472c0.3,0.395 0.62,0.774 0.91,1.178c0.53,0.726 0.69,1.633 1.26,2.305c0.56,0.654 1.52,1.071 2.25,1.441" style="fill:none;stroke:#ffa400;stroke-width:4px;"/>
            <path d="M30.013,156.308c-0.63,-0.599 -1.05,-1.004 -1.26,-1.825c-0.29,-1.147 -0.66,-2.094 -0.53,-3.339c0.17,-1.678 1.38,-3.064 2.5,-4.181c0.72,-0.725 1.42,-1.446 2.35,-1.965c0.84,-0.466 1.77,-1.019 2.5,-1.655c1.14,-0.994 2.35,-2.015 3.09,-3.368c0.17,-0.314 0.33,-0.63 0.53,-0.926c0,-0.003 0.22,-0.364 0.22,-0.365c-0.11,-0.113 -0.62,0.31 -0.7,0.365c-0.71,0.474 -1.34,1.091 -1.99,1.656c-1.59,1.39 -3.38,2.654 -4.88,4.153c-0.83,0.832 -1.82,2.001 -2.98,2.385c-1.19,0.398 -2.44,0.095 -3.62,-0.14c-0.94,-0.188 -1.91,-0.149 -2.8,-0.533c-2.27,-0.97 -4.794,-3.026 -5.42,-5.528c-0.135,-0.544 -0.449,-1.02 -0.449,-1.6c0,-0.463 -0.062,-0.98 0.028,-1.431c0.243,-1.211 1.351,-2.62 2.161,-3.536c0.48,-0.544 0.98,-1.079 1.46,-1.627c0.08,-0.092 0.42,-0.364 0.42,-0.449" style="fill:none;stroke:#ffa400;stroke-width:4px;"/>
            <path d="M10.401,135.57c1.061,1.91 2.876,3.045 4.377,4.546c0.935,0.934 1.782,2.223 2.526,3.339c1.229,1.847 2.999,3.415 4.009,5.444c0.41,0.818 0.48,1.785 0.48,2.694c0,0.399 0.05,0.805 -0.11,1.179c-0.21,0.499 -0.48,0.961 -0.67,1.459c-0.03,0.072 -0.23,0.476 -0.14,0.561c0.13,0.134 0.82,0.028 1.01,0.028c0.91,0 1.79,0.023 2.69,0.112c0.82,0.082 1.64,0.307 2.44,0.506c0.07,0.016 0.74,0.206 0.79,0.14c0.26,-0.396 -0.26,-1.31 -0.42,-1.628c-0.75,-1.398 -2.18,-2.923 -3.43,-3.9c-0.39,-0.31 -0.78,-0.637 -1.12,-1.011c-0.02,-0.023 -0.63,-0.583 -0.62,-0.589c0.49,-0.245 1.42,0.328 1.83,0.533c0.43,0.217 0.91,0.408 1.37,0.562" style="fill:none;stroke:#ffa400;stroke-width:4px;"/>
            <path d="M24.573,140.733c0.18,0.14 0.36,0.278 0.53,0.421c0.14,0.112 0.93,1.263 1.21,0.982c0.34,-0.345 0.83,-0.723 1.09,-1.122c0.19,-0.275 0.33,-0.604 0.57,-0.842c0.2,-0.209 0.45,-0.453 0.61,-0.702c0.08,-0.115 0.45,-0.28 0.31,-0.28c-0.35,0 -0.68,0.418 -0.95,0.589c-0.48,0.297 -1.14,0.466 -1.55,0.87" style="fill:none;stroke:#ffa400;stroke-width:4px;"/>
            <path d="M36.923,154.147c0.32,0.94 1.12,3.104 2.52,2.638c0.36,-0.121 0.63,-0.546 0.9,-0.786c0.59,-0.514 1.4,-1.103 1.85,-1.74c0.23,-0.322 0.61,-0.523 0.84,-0.842c0.08,-0.098 0.18,-0.163 0.26,-0.252c0.04,-0.052 0.18,-0.188 0.14,-0.141c-1.56,1.556 -2.94,3.054 -4.91,4.041" style="fill:none;stroke:#ffa400;stroke-width:4px;"/>
            <path d="M28.683,152.821c0.08,1.626 1.76,3.028 2.56,4.361c0.53,0.88 1.34,1.755 2.05,2.469c0.74,0.738 1.3,1.639 2.15,2.277c1.3,0.974 3.23,1.075 4.72,0.481c3.27,-1.308 5.73,-4.116 8.17,-6.51c0.86,-0.845 1.61,-1.756 2.63,-2.437c0.36,-0.236 0.67,-0.522 1.03,-0.738c0.11,-0.068 0.24,-0.121 0.35,-0.192c0.06,-0.04 0.19,-0.168 0.19,-0.096c0,0.094 -0.19,0.217 -0.25,0.288c-0.33,0.414 -0.64,0.733 -1,1.091c-1.27,1.274 -2.64,2.517 -4,3.688c-1.62,1.386 -3.24,2.848 -4.75,4.361c-0.79,0.787 -1.55,1.996 -2.5,2.565c-1.96,1.174 -4.25,2.138 -6.03,3.624c-0.4,0.333 -0.73,0.792 -1.09,1.154c-0.9,0.895 -2.13,1.709 -3.14,2.47c-0.43,0.32 -0.75,0.782 -1.16,1.09c-0.1,0.077 -0.31,0.321 -0.45,0.321c-0.01,0 0.31,-0.711 0.36,-0.77c0.29,-0.416 0.53,-0.894 0.86,-1.283c0.47,-0.549 1.07,-1.227 1.7,-1.603c1.32,-0.791 3.15,-1.708 3.56,-3.335c0.22,-0.889 0.42,-2.06 0.16,-2.982c-0.34,-1.208 -1.31,-2.366 -2.18,-3.239c-1.51,-1.509 -2.81,-2.942 -4.68,-3.881" style="fill:none;stroke:#ffa400;stroke-width:4px;"/>
            <path d="M10.459,137.066c-0.587,0.476 -1.151,0.899 -1.677,1.425c-0.175,0.174 -0.322,0.378 -0.475,0.57c-0.075,0.093 -0.254,0.253 -0.254,0.253c0,0 0.355,-0.211 0.507,-0.348c0.324,-0.292 0.637,-0.585 0.981,-0.855c0.944,-0.742 2.284,-1.269 3.451,-1.488c0.504,-0.095 0.974,-0.127 1.488,-0.127l0.538,0c0.11,0 0.421,0.061 0.316,0.095c-0.473,0.158 -1.215,-0.204 -1.646,-0.348c-1.133,-0.378 -2.129,-0.801 -3.355,-0.665c-1.001,0.112 -2.09,1.107 -2.723,1.836c-0.11,0.128 -0.614,0.95 -0.791,0.95c-0.211,0 -0.012,-0.426 0.031,-0.633c0.161,-0.761 0.326,-1.533 0.412,-2.311c0.121,-1.088 0.131,-2.172 0.222,-3.26c0.021,-0.261 -0.084,-1.12 0.126,-1.33c0.06,-0.06 0,0.169 0,0.253c0,0.194 0.008,0.308 -0.031,0.507c-0.077,0.383 -0.191,0.761 -0.285,1.139c-0.303,1.209 -0.706,2.396 -0.982,3.609c-0.072,0.32 -0.178,0.633 -0.253,0.95c-0.032,0.135 -0.036,0.275 -0.063,0.411c-0.018,0.089 -0.095,0.344 -0.095,0.254c0,-2.243 -0.003,-4.501 0.411,-6.711c0.138,-0.733 0.155,-1.449 0.254,-2.185c0.035,-0.268 0.065,-0.527 0.095,-0.791c0.011,-0.103 0.126,-0.285 0.126,-0.285c0,0 0.01,0.322 -0.031,0.475c-0.068,0.246 -0.148,0.527 -0.254,0.76c-0.372,0.819 -0.437,1.808 -0.633,2.69c-0.705,3.175 -0.912,6.429 -1.234,9.655c-0.106,1.053 -0.158,2.113 -0.254,3.166c-0.032,0.356 -0.039,0.695 -0.126,1.045c-0.05,0.197 -0.095,0.601 -0.095,0.601c0,0 0.254,-0.4 0.38,-0.601c0.248,-0.398 0.468,-0.829 0.759,-1.203c0.919,-1.181 1.524,-2.475 2.343,-3.704c0.201,-0.302 0.356,-0.65 0.506,-0.981c0.081,-0.177 0.285,-0.507 0.285,-0.507c0,0 -0.159,0.115 -0.221,0.19c-0.168,0.201 -0.358,0.398 -0.538,0.602c-0.433,0.486 -0.864,0.983 -1.235,1.519c-1.186,1.712 -2.673,3.671 -2.976,5.793c-0.214,1.5 -0.766,2.974 -0.918,4.495c-0.228,2.28 -0.462,4.788 -0.253,7.091c0.116,1.278 0.411,2.528 0.57,3.799c0.084,0.674 0.348,1.359 0.348,2.026" style="fill:none;stroke:#ffa400;stroke-width:4px;"/>
            <path d="M2.155,163.16c0.26,0.668 0.132,1.247 0.218,1.934c0.085,0.675 0.211,1.339 0.273,2.015c0.095,1.044 -0.053,2.065 0.136,3.105c0.123,0.676 0.156,1.386 0.218,2.069c0.023,0.255 0.056,0.509 0.081,0.763c0.01,0.1 -0.043,0.37 0.028,0.3c0.053,-0.054 0,-0.502 0,-0.572l0,-1.335c0,-2.188 -0.419,-4.501 -0.708,-6.672c-0.118,-0.882 -0.273,-1.808 -0.273,-2.696c0,-0.354 -0.027,-0.707 -0.027,-1.062l0,-0.436c0,0 0.101,0.24 0.163,0.354c0.138,0.253 0.242,0.512 0.382,0.762c0.407,0.734 0.956,1.466 1.497,2.097c0.261,0.304 0.394,0.748 0.681,1.035c0.029,0.029 0.287,0.204 0.3,0.191c0.202,-0.202 -0.229,-0.944 -0.3,-1.117c-0.358,-0.869 -0.804,-1.766 -1.062,-2.669c-0.055,-0.192 -0.067,-0.666 -0.218,-0.817c-0.087,-0.087 0.054,0.244 0.109,0.355c0.111,0.221 0.243,0.43 0.354,0.653c0.131,0.261 0.302,0.466 0.463,0.708c0.233,0.349 0.506,0.699 0.845,0.953c1.12,0.841 2.85,0.359 4.003,-0.217c0.71,-0.355 1.424,-0.713 2.124,-1.063c0.564,-0.282 0.984,-0.913 1.498,-1.28c1.265,-0.903 2.508,-1.861 3.704,-2.886c0.784,-0.673 1.599,-1.541 2.509,-2.043c0.3,-0.168 0.6,-0.378 0.89,-0.572c0.16,-0.102 0.47,-0.299 0.47,-0.299c0,0 -0.27,0.238 -0.41,0.354c-0.3,0.252 -0.54,0.594 -0.82,0.871c-0.85,0.853 -1.866,1.701 -2.83,2.424c-0.66,0.495 -1.221,1.081 -1.852,1.607c-1.405,1.171 -2.662,2.286 -3.595,3.84c-0.222,0.37 -0.258,0.923 -0.326,1.334c-0.186,1.114 -0.224,2.234 0,3.35c0.217,1.084 1.252,2.096 1.852,2.996c1.199,1.8 2.536,3.651 4.493,4.629c1.348,0.673 3.218,0.436 4.688,0.436c1.66,0 3.17,-1.118 4.38,-2.124c0.43,-0.36 0.88,-0.686 1.33,-1.008c0.16,-0.108 0.27,-0.265 0.41,-0.381c0.01,-0.008 0.3,-0.165 0.3,-0.163c0,0.236 -0.68,0.875 -0.87,1.062c-0.85,0.857 -1.58,1.741 -2.5,2.532c-1.03,0.877 -1.82,2.008 -2.84,2.914c-0.32,0.286 -0.73,0.839 -1.17,0.926c-1.15,0.231 -2.32,-1.277 -2.993,-2.015c-0.835,-0.919 -1.852,-1.673 -2.696,-2.587c-1.159,-1.256 -2.294,-2.622 -3.458,-3.786c-0.29,-0.289 -0.986,-0.251 -1.362,-0.326c-1.149,-0.23 -2.443,-0.3 -3.622,-0.3c-0.337,0 -1.586,0.208 -1.798,-0.109c-0.246,-0.369 -0.144,-1.028 -0.19,-1.443c-0.146,-1.31 -0.336,-3.078 1.416,-3.078c0.186,0 0.415,-0.033 0.599,0c1.12,0.204 1.073,1.772 1.226,2.587c0.06,0.324 0.114,0.616 0.217,0.926c0.025,0.073 0.139,0.237 0.164,0.164c0.071,-0.215 0.027,-0.604 0.027,-0.817l0,-2.288c0,-0.454 0.106,-1.079 -0.136,-1.443" style="fill:none;stroke:#ffa400;stroke-width:4px;"/>
            <path d="M7.139,158.122c0.047,-0.423 -0.037,-0.975 0.055,-1.389c0.203,-0.914 1.135,-1.831 2.042,-1.961c0.497,-0.071 0.926,-0.136 1.444,-0.136c0.066,0 0.467,-0.042 0.49,0.027c0.309,0.927 -0.865,1.366 -1.525,1.743c-0.32,0.183 -0.571,0.467 -0.899,0.654c-0.249,0.142 -0.747,0.572 -1.035,0.572" style="fill:none;stroke:#ffa400;stroke-width:4px;"/>
            <path d="M19.883,169.478c1.26,-0.489 3.14,-0.338 3.79,0.954c0.14,0.284 -0.17,0.54 -0.38,0.626c-0.51,0.201 -1.41,0.338 -1.94,0.163c-0.44,-0.148 -0.61,-0.689 -1.03,-0.898" style="fill:none;stroke:#ffa400;stroke-width:4px;"/>
            <path d="M4.661,180.208c-0.3,-0.417 -0.343,-0.998 -0.436,-1.497c-0.209,-1.127 -0.249,-2.262 -0.327,-3.405c-0.197,-2.887 -0.247,-5.818 -0.136,-8.714c0.048,-1.241 0.3,-2.495 0.3,-3.731" style="fill:none;stroke:#ffa400;stroke-width:4px;"/>
            <path d="M4.569,178.813c0.129,0.484 0.05,0.982 0,1.476c-0.059,0.596 0,1.228 0,1.828c0,1.872 0.112,3.76 0.375,5.599c0.082,0.571 0.343,1.132 0.422,1.687c0.106,0.74 0.409,1.563 0.82,2.179c0.326,0.489 1.622,0.304 2.132,0.304c0.958,0 1.607,-0.517 2.343,-1.007c1.426,-0.951 2.522,-2.58 3.607,-3.936c1.104,-1.379 1.098,-3.076 1.266,-4.756c0.324,-3.248 -1.253,-5.985 -3.491,-8.223c-0.744,-0.744 -1.467,-1.452 -2.366,-1.992" style="fill:none;stroke:#ffa400;stroke-width:4px;"/>
            <path d="M2.531,173.753c-0.24,1.799 -0.697,3.791 -0.469,5.623c0.204,1.627 0.428,3.241 0.61,4.873c0.087,0.783 0.367,1.54 0.445,2.319c0.066,0.667 0.197,1.434 0.375,2.085c0.578,2.123 1.411,4.127 2.225,6.162c0.807,2.017 1.66,4.057 2.929,5.833c0.485,0.68 0.859,1.632 1.429,2.202" style="fill:none;stroke:#ffa400;stroke-width:4px;"/>
            <path d="M6.889,193.643c0.213,0.96 0.468,2.156 0.913,3.046c0.083,0.165 0.215,0.716 0.375,0.796c0.051,0.026 0.088,-0.235 0.094,-0.257c0.071,-0.285 0.098,-0.581 0.164,-0.867c0.18,-0.782 0.665,-1.462 1.218,-2.015c1.724,-1.724 3.688,-3.349 4.709,-5.646c0.781,-1.756 1.457,-3.528 2.249,-5.271c0.382,-0.84 0.705,-1.9 1.362,-2.554c0.13,-0.136 0.61,0.106 0.7,0.164c0.63,0.42 1.4,0.995 1.9,1.593c0.56,0.67 1.19,1.353 1.8,1.968c0.6,0.598 1.08,1.321 1.62,1.968c1.2,1.444 2.51,2.822 3.77,4.24c1.05,1.18 2.03,2.348 2.88,3.702c0.26,0.42 0.48,0.863 0.73,1.289l0.23,0.328c0.06,0.081 0.24,0.257 0.14,0.257c-0.04,0 -0.24,-0.242 -0.25,-0.257c-0.24,-0.214 -0.47,-0.42 -0.68,-0.656c-0.99,-1.078 -1.91,-2.216 -2.89,-3.304c-2.32,-2.578 -4.94,-4.81 -7.59,-7.075c-0.59,-0.51 -1.15,-1.079 -1.75,-1.593c-0.35,-0.298 -0.7,-0.684 -1.152,-0.797" style="fill:none;stroke:#ffa400;stroke-width:4px;"/>
            <path d="M29.193,181.78c0.32,1.41 1.41,2.482 2.22,3.626c0.3,0.409 0.66,0.847 1.12,1.077c0.61,0.306 1.54,0.282 2.21,0.208c0.65,-0.072 1.2,-0.786 1.62,-1.209c0.18,-0.179 0.34,-0.385 0.53,-0.548c0.01,-0.003 0.12,-0.133 0.14,-0.113c0.02,0.023 -0.07,0.235 -0.08,0.264c-0.14,0.312 -0.24,0.636 -0.4,0.945c-0.46,0.922 -0.93,2.026 -1.83,2.588c-0.24,0.151 -0.79,0.381 -1.09,0.226c-0.34,-0.171 -0.59,-0.792 -0.78,-1.095c-0.67,-1.049 -1.17,-2.265 -2.06,-3.155" style="fill:none;stroke:#ffa400;stroke-width:4px;"/>
            <path d="M10.086,201.751c0.693,1.016 1.352,2.381 2.206,3.235c0.231,0.231 0.297,0.65 0.5,0.853c0.477,0.478 0.651,1.445 1.177,1.971c0.902,0.902 1.84,1.899 2.764,2.823c0.542,0.542 1.25,0.99 1.85,1.471c0.96,0.766 1.84,1.581 2.77,2.323c1.07,0.86 2.29,1.615 3.35,2.5c0.58,0.484 1.3,0.835 1.94,1.235c1.74,1.089 3.61,2.139 5.21,3.47c0.39,0.326 0.97,0.699 1.14,1.206c0.19,0.574 -0.14,1.352 -0.73,1.471c-0.88,0.176 -1.34,-0.465 -1.97,-0.941c-1.37,-1.026 -2.69,-2.164 -3.97,-3.265c-1.68,-1.442 -3.6,-2.682 -5.32,-4.117c-3.431,-2.855 -6.063,-6.519 -8.946,-9.882c-1.27,-1.482 -2.398,-3.251 -3.353,-4.97c-0.221,-0.398 -0.483,-0.787 -0.706,-1.177c-0.06,-0.106 -0.174,-0.47 -0.323,-0.47" style="fill:none;stroke:#ffa400;stroke-width:4px;"/>
            <path d="M31.853,222.809c0.95,1.739 2.49,3.243 4.11,4.323c0.77,0.51 1.54,1.295 2.18,1.941c0.83,0.826 1.98,1.449 3,2.029c0.87,0.497 1.77,0.974 2.74,1.294c0.1,0.035 0.85,0.353 0.91,0.295c0.08,-0.082 -0.27,-0.325 -0.3,-0.353c-0.36,-0.366 -0.71,-0.703 -1.11,-1.03c-0.85,-0.676 -1.79,-1.226 -2.77,-1.647c-0.77,-0.331 -1.45,-0.877 -2.26,-1.147c-1.59,-0.528 -2.99,-1.807 -4.39,-2.735c-1.9,-1.272 -3.62,-2.754 -5.32,-4.264c-0.56,-0.502 -1.2,-0.908 -1.73,-1.441" style="fill:none;stroke:#ffa400;stroke-width:4px;"/>
            <path d="M33.553,223.25c0.36,-0.472 0.71,-0.798 1.12,-1.206c0.95,-0.95 1.6,-2.069 2.65,-2.941c2.13,-1.774 4.72,-3.107 6.67,-5.058c1.4,-1.394 3.56,-2.372 3.92,-4.529c0.28,-1.691 -0.94,-2.684 -2.09,-3.677c-2.26,-1.937 -4.38,-4.01 -6.62,-5.97c-0.83,-0.728 -1.57,-1.525 -2.5,-2.147c-0.14,-0.092 -0.84,-0.543 -1.03,-0.353c-0.13,0.126 0.09,0.56 0.15,0.647c0.43,0.642 0.93,1.252 1.41,1.853c1.93,2.414 4.04,4.6 6.2,6.764c1.3,1.296 1.49,3.56 0.83,5.206c-0.29,0.717 -0.97,1.322 -1.5,1.853c-1.29,1.284 -2.41,2.62 -3.85,3.705c-0.79,0.59 -1.23,1.816 -2.06,2.236" style="fill:none;stroke:#ffa400;stroke-width:4px;"/>
            <path d="M43.173,208.222c0,1.093 0.12,2.143 0.12,3.235c0,0.322 0.08,0.857 -0.06,1.147" style="fill:none;stroke:#ffa400;stroke-width:4px;"/>
            <path d="M36.673,215.721c-0.06,-0.381 0.09,-1.429 -0.09,-1.794c-0.36,-0.722 -0.79,-1.43 -1.47,-1.941c-0.45,-0.338 -1.68,-0.762 -2.26,-0.471c-0.14,0.071 -0.26,0.354 -0.3,0.5c-0.14,0.561 -0.42,1.062 -0.29,1.706c0.22,1.111 1.42,2.288 2.29,2.912c0.27,0.193 0.57,0.49 0.88,0.617c0.07,0.025 0.39,0.204 0.39,0.265" style="fill:none;stroke:#ffa400;stroke-width:4px;"/>
            <path d="M34.493,220.368c-0.88,0.701 -1.63,0.647 -2.79,0.647" style="fill:none;stroke:#ffa400;stroke-width:4px;"/>
            <path d="M21.353,212.573c0.59,-1.349 1.43,-2.535 2.41,-3.514c0.24,-0.235 0.43,-0.649 0.69,-0.847c0.51,-0.385 1.22,-1.089 1.57,-1.663c0.36,-0.608 0.97,-1.326 1.47,-1.819c0.71,-0.696 1.19,-1.69 1.92,-2.416c0.99,-0.996 1.81,-2.117 2.88,-2.98c0.34,-0.265 0.88,-0.419 1.29,-0.471c0.22,-0.027 0.66,-0.063 0.66,-0.063l-0.41,0c-0.2,0 -0.42,-0.02 -0.63,0c-0.39,0.04 -1.2,0.418 -1.6,0.22c-0.54,-0.272 -1.04,-1.095 -1.31,-1.6c-0.33,-0.604 -0.43,-1.293 -0.69,-1.914c-0.28,-0.639 -0.6,-1.255 -0.85,-1.882c-0.05,-0.122 -0.62,-1.043 -0.63,-1.035c-0.04,0.042 0,0.325 0,0.376c0,0.466 0.23,0.892 0.31,1.349c0.3,1.607 0.54,3.089 0.54,4.737c0,3.048 -2.25,5.476 -4.27,7.498c-0.73,0.735 -1.37,1.624 -2.13,2.385c-0.69,0.692 -1.42,1.477 -2.04,2.227c-0.13,0.151 -0.56,0.722 -0.78,0.722" style="fill:none;stroke:#ffa400;stroke-width:4px;"/>
            <path d="M18.583,183.961c0.87,1.093 2.03,2.237 3.11,3.138c0.45,0.373 1.1,0.764 1.44,1.223c2.04,2.722 4.41,5.147 5.87,8.314" style="fill:none;stroke:#ffa400;stroke-width:4px;"/>
            <path d="M18.463,200.651c-0.69,0.729 -1.274,2.158 -1.006,3.232c0.146,0.582 1.556,1.23 2.106,0.815c0.83,-0.634 1.59,-1.834 1.22,-2.949c-0.3,-0.903 -1.88,-1.608 -2.79,-1.38c-0.328,0.082 -0.645,0.685 -0.693,0.973c-0.183,1.099 -0.391,2.15 0.44,2.98" style="fill:none;stroke:#ffa400;stroke-width:4px;"/>
            <path d="M36.893,197.483c-1.16,-1.743 -0.05,-3.541 0.6,-5.185c0.89,-2.23 2.86,-3.487 4.52,-5.148c1.44,-1.446 2.75,-3.141 4.02,-4.726c0.34,-0.43 0.74,-0.841 1.16,-1.199c0.27,-0.23 0.68,-0.416 0.85,-0.741" style="fill:none;stroke:#ffa400;stroke-width:4px;"/>
            <path d="M35.943,192.545c-0.92,0.97 -1.52,1.869 -2.33,2.681c-0.14,0.139 -1.28,0.233 -1.41,0.105c-0.04,-0.04 -0.28,-0.758 -0.24,-0.776c0.34,-0.17 0.89,0.424 1.3,0.424" style="fill:none;stroke:#ffa400;stroke-width:4px;"/>
            <path d="M49.553,200.451c0.52,0.156 0.84,0.404 1.29,0.658c0.61,0.35 1.88,0.563 2.08,1.369c0.06,0.231 0.02,0.497 0.02,0.737c0,0.576 -0.02,1.506 -0.73,1.71c-1.02,0.292 -1.54,-1.771 -1.84,-2.421c-0.12,-0.236 -0.26,-0.452 -0.37,-0.684c-0.09,-0.172 -0.41,-1.105 -0.61,-1.105" style="fill:none;stroke:#ffa400;stroke-width:4px;"/>
            <path d="M48.763,209.899c0.81,0.135 2.02,0.591 2.84,0.316c1.52,-0.506 2.48,-1.541 3.77,-2.395c1.31,-0.878 2.64,-1.748 3.81,-2.921c0.87,-0.867 1.6,-1.912 2.29,-2.921c0.22,-0.316 0.38,-0.666 0.61,-0.974c0.13,-0.174 0.42,-0.5 0.42,-0.5c0,0 -0.19,0.247 -0.29,0.369c-0.21,0.264 -0.36,0.58 -0.53,0.868c-0.56,0.935 -1.27,1.788 -1.87,2.71c-0.53,0.823 -1.15,1.592 -1.73,2.369c-0.35,0.462 -0.69,1.028 -1.08,1.395c-0.6,0.556 -1.45,1.023 -1.98,1.684c-0.29,0.365 -0.54,0.798 -0.79,1.21c-0.51,0.859 -0.52,1.944 -0.52,2.922c0,0.935 -0.08,1.915 0.02,2.842c0.09,0.77 0.42,1.607 0.66,2.342c0.24,0.721 0.69,1.375 1,2.052c0.11,0.232 0.42,0.581 0.42,0.843" style="fill:none;stroke:#ffa400;stroke-width:4px;"/>
            <path d="M49.393,211.083c0.29,0.505 0.5,1.049 0.79,1.553c0.45,0.769 1.05,1.439 1.53,2.184c0.28,0.438 0.52,0.91 0.76,1.368c0.11,0.198 0.29,0.606 0.29,0.606c0,0 -0.27,-0.325 -0.42,-0.474c-0.26,-0.255 -0.52,-0.493 -0.79,-0.737c-0.83,-0.757 -1.55,-1.608 -2.32,-2.421c-0.34,-0.36 -0.68,-0.75 -1.05,-1.079c-0.1,-0.094 -0.32,-0.345 -0.37,-0.21c-0.09,0.289 0.22,0.663 0.35,0.894c0.34,0.64 0.74,1.232 1.13,1.842c1.3,2.052 2.77,3.907 3.94,6.053c0.32,0.583 0.69,1.157 1.06,1.711c0.11,0.173 0.39,0.461 0.39,0.684" style="fill:none;stroke:#ffa400;stroke-width:4px;"/>
            <path d="M45.553,232.902c0.26,-0.014 0.53,0.042 0.78,-0.029c1.36,-0.389 1.89,-1.599 2.06,-2.784c0.06,-0.446 0.15,-1.198 -0.09,-1.595c-0.81,-1.35 -2.43,-1.213 -3.65,-1.943c-0.46,-0.272 -0.73,-0.426 -0.73,-0.957c0,-0.087 -0.03,-0.283 0.03,-0.348c0.6,-0.595 1.68,-0.263 2.03,0.435c0.88,1.76 1.82,3.193 3.89,3.538c0.28,0.046 0.9,0.131 1.16,0c1.06,-0.531 2.35,-1.787 2.52,-3.016c0.1,-0.721 0.12,-1.435 0.12,-2.174c0,-0.764 -0.19,-1.459 -0.26,-2.204c-0.01,-0.073 -0.25,-0.571 -0.15,-0.638c0.6,-0.399 1.72,0.776 2.03,1.131c0.75,0.86 1.58,1.694 2.38,2.494c0.62,0.62 1.04,1.36 1.71,2.029c0.85,0.851 2.2,1.337 3.36,1.595c0.48,0.106 0.93,0.215 1.4,0.348c0.01,0.006 0.47,0.08 0.37,0.174c-0.26,0.264 -1.38,0.145 -1.71,0.145c-1.76,0 -3.56,-0.696 -5.13,-1.45c-0.57,-0.271 -1.17,-0.696 -1.8,-0.754c-0.1,-0.009 -0.53,-0.111 -0.61,0c-0.24,0.367 0.27,0.892 0.47,1.131c0.57,0.706 1.16,1.391 1.71,2.117c0.13,0.178 0.45,0.637 0.32,0.899c-0.1,0.182 -0.74,0.162 -0.9,0.174c-0.9,0.063 -1.77,0.223 -2.64,0.406c-0.07,0.015 -1.11,0.124 -1.02,0.319c0.09,0.17 0.96,0.298 1.13,0.348c1.19,0.338 2.44,0.382 3.66,0.464c0.47,0.031 0.97,0.064 1.42,0.232c0,0.002 0.46,0.093 0.38,0.173c-0.19,0.191 -0.96,0.341 -1.22,0.406c-0.53,0.133 -1.02,0.471 -1.57,0.58c-0.81,0.163 -1.66,0.071 -2.49,0.174c-0.73,0.092 -1.47,0.035 -2.21,0.116c-1.37,0.153 -2.98,0.286 -4.37,0.087c-2.08,-0.296 -4.05,-1.254 -5.8,-2.348c-1.41,-0.881 -2.82,-1.796 -4.06,-2.9c-0.4,-0.354 -0.84,-0.668 -1.25,-1.015c-0.19,-0.16 -0.55,-0.493 -0.55,-0.493c0,0 0.48,-0.028 0.7,0.058c0.47,0.19 0.93,0.438 1.39,0.667c1.27,0.634 2.53,1.279 3.8,1.914c1.73,0.867 3.75,1.782 5.68,2.059c0.84,0.12 1.91,0.376 2.75,0.116c1.57,-0.482 3.01,-1.821 4.15,-2.958" style="fill:none;stroke:#ffa400;stroke-width:4px;"/>
            <path d="M66.213,197.115c0.94,0.122 1.32,0.877 1.75,1.683c0.36,0.685 0.84,1.355 1.26,2.006c1.3,2.007 2.86,3.868 4.27,5.792c1.3,1.773 2.47,3.803 3.53,5.728c0.77,1.391 1.33,2.903 2.01,4.336c0.07,0.147 0.42,1.133 0.64,1.133c0.15,0 -0.18,-0.693 -0.19,-0.712c-0.23,-0.436 -0.47,-0.868 -0.71,-1.295c-0.86,-1.485 -1.69,-2.986 -2.49,-4.498c-2.13,-3.988 -4.62,-7.835 -7.41,-11.39c-1.18,-1.497 -2.37,-2.99 -3.56,-4.466c-0.26,-0.32 -0.59,-0.62 -0.81,-0.971c-0.05,-0.073 -0.19,-0.165 -0.13,-0.226c0.08,-0.084 0.45,0.175 0.48,0.194c0.36,0.207 0.72,0.42 1.07,0.647c1.67,1.085 3.29,2.381 4.69,3.786c1.39,1.387 2.88,2.715 4.05,4.304c2.34,3.202 4.22,6.726 6.34,10.064c1.21,1.899 1.82,4.052 2.82,6.051c0.21,0.42 0.47,0.927 0.61,1.359c0.02,0.057 0.1,0.389 0.19,0.389c0.02,0 -0.67,-0.923 -0.71,-0.971c-0.43,-0.601 -0.82,-1.24 -1.2,-1.877c-1.1,-1.862 -2.28,-3.678 -3.33,-5.566c-1.9,-3.421 -4.16,-6.645 -6.5,-9.772c-1.23,-1.643 -2.77,-3.047 -4.05,-4.66c-0.82,-1.04 -1.81,-1.979 -2.71,-2.945c-0.06,-0.06 -0.85,-0.967 -0.94,-0.874c-0.06,0.053 0.57,0.729 0.61,0.777c0.63,0.677 1.19,1.394 1.75,2.136c1.42,1.896 2.72,3.884 3.98,5.889c2.95,4.693 4.9,9.92 6.89,15.047c0.71,1.826 1.53,3.615 2.3,5.404c0.29,0.678 0.81,1.436 0.81,2.201" style="fill:none;stroke:#ffa000;stroke-width:4px;"/>
            <path d="M53.703,203.45c0.8,-0.673 1.71,-1.436 2.34,-2.224c0.23,-0.288 0.47,-0.577 0.72,-0.835c0.08,-0.079 0.16,-0.138 0.23,-0.222c0.04,-0.058 0.19,-0.218 0.14,-0.167c-0.85,0.849 -1.29,2.028 -2.37,2.642c-0.43,0.244 -0.93,0.454 -1.44,0.25c-1.57,-0.625 -2.93,-1.902 -4.12,-3.087c-0.4,-0.4 -0.85,-0.767 -1.28,-1.14c-0.13,-0.116 -0.26,-0.235 -0.39,-0.361c-0.03,-0.029 -0.22,-0.2 -0.22,-0.195c0,0.158 0.48,0.638 0.58,0.779c0.47,0.661 0.87,1.374 1.34,2.03c0.21,0.294 0.44,0.558 0.64,0.862c0.07,0.106 0.12,0.236 0.19,0.333c0.03,0.032 0.12,0.096 0.09,0.084c-0.25,-0.084 -0.47,-0.476 -0.62,-0.668c-0.53,-0.68 -1.07,-1.345 -1.64,-2.002c-0.21,-0.244 -0.41,-0.495 -0.64,-0.723c-0.11,-0.111 -0.33,-0.491 -0.33,-0.333c0,0.13 0.37,0.41 0.45,0.5c0.57,0.698 1.1,1.433 1.69,2.114c0.07,0.074 0.41,0.639 0.5,0.639" style="fill:none;stroke:#ffa000;stroke-width:4px;"/>
        </g>
    </g>
</svg>
