<?xml version="1.0" encoding="UTF-8" standalone="no"?>
<!DOCTYPE svg PUBLIC "-//W3C//DTD SVG 1.1//EN" "http://www.w3.org/Graphics/SVG/1.1/DTD/svg11.dtd">
<svg width="100%" height="100%" viewBox="0 0 166 210" version="1.1" xmlns="http://www.w3.org/2000/svg" xmlns:xlink="http://www.w3.org/1999/xlink" xml:space="preserve" xmlns:serif="http://www.serif.com/" style="fill-rule:evenodd;clip-rule:evenodd;stroke-linecap:round;stroke-linejoin:round;stroke-miterlimit:1.5;">
    <g>
        <path d="M20.471,145.003c1.026,2.166 0.677,3.588 1.319,5.515c1.298,3.894 2.857,7.711 3.836,11.629c0.508,2.031 -0.265,4.334 0.24,6.354c1.447,5.789 1.904,11.811 3.357,17.624c1.111,4.443 3.228,6.953 7.793,6.953c0.835,0 3.058,0.179 3.596,-0.359c0.527,-0.527 0.36,-2.035 0.36,-2.878c0,-2.71 -0.335,-4.698 -0.959,-7.193c-1.729,-6.914 -2.436,-14.26 -4.676,-20.981c-0.623,-1.868 -1.558,-5.004 -1.558,-6.953c0,-0.471 -0.786,-3.37 -0.6,-2.997c0.181,0.36 1.762,0.62 2.158,0.719c1.821,0.455 4.26,0.991 5.875,1.798c0.714,0.357 2.928,-0.549 3.477,0c0.635,0.635 0.265,2.62 0.479,3.477c0.623,2.492 -0.023,5.304 0.6,7.793c1.634,6.537 1.713,13.686 3.357,20.261c0.812,3.25 0.278,6.83 1.318,9.951c0.579,1.736 1.56,2.839 2.758,4.436c0.662,0.883 0.947,2.386 1.558,2.997c0.328,0.328 2.503,0 2.998,0c0.317,0 2.49,0.268 2.757,0c0.374,-0.374 0.12,-2.378 0.12,-2.997c0,-2.718 0.532,-6.143 -0.12,-8.752c-0.935,-3.741 -0.014,-7.971 -0.959,-11.749c-0.987,-3.947 -0.88,-8.239 -1.678,-12.229c-0.394,-1.969 -1.079,-3.921 -1.079,-5.994c0,-1.933 -0.484,-4.692 -0.96,-6.594c-0.069,-0.279 -0.4,-1.998 -0.12,-2.278c0.249,-0.248 1.755,-0.105 2.159,-0.24c1.585,-0.528 6.258,-2.086 8.032,-1.199c1.546,0.773 2.919,1.959 4.076,3.117c1.544,1.544 0.492,6.389 1.199,8.512c1.556,4.668 1.319,10.506 1.319,15.826c0,5.25 0.36,10.388 0.36,15.705c0,4.893 -0.754,9.769 3.117,12.349c0.702,0.468 1.222,1.702 1.678,2.158c0.309,0.309 3.149,0.089 3.597,0c1.159,-0.232 3.754,-0.997 4.316,-1.559c0.225,-0.225 0,-1.949 0,-2.278c0,-2.155 0.431,-4.941 -0.24,-6.953c-0.807,-2.421 0.019,-5.32 -0.599,-7.793c-1.474,-5.895 -0.592,-12.31 -1.799,-18.343c-0.618,-3.092 -1.438,-6.559 -1.438,-9.711c0,-0.258 -0.188,-2.904 0,-2.997c0.778,-0.39 2.852,0 3.716,0c3.54,0 7.227,0.326 9.591,-2.038c0.013,-0.012 0.24,3.965 0.24,4.555l0,32.97c0,1.52 -0.682,7.006 0.6,7.433c1.673,0.558 4.029,1.767 5.515,2.758c0.671,0.447 1.572,1.671 2.517,1.198c1.538,-0.768 4.219,-3.019 5.395,-4.196c0.337,-0.337 0,-2.742 0,-3.237c0,-3.149 0.039,-7.156 -0.719,-10.19c-0.79,-3.16 0.79,-6.912 0,-10.071c-0.442,-1.766 0.198,-3.765 -0.24,-5.515c-0.687,-2.75 -0.599,-6.518 -0.599,-9.351c0,-3.062 -0.48,-6.13 -0.48,-9.232c0,-0.404 -0.292,-2.585 0,-2.877c0.367,-0.367 1.243,0.374 1.559,0.479c1.524,0.509 3.268,1.754 4.556,2.398c1.358,0.68 3.548,0.6 5.155,0.6c0.35,0 1.933,-0.225 2.158,0c0.287,0.287 0,2.335 0,2.757c0,2.715 -0.48,5.41 -0.48,8.153c0,6.856 -0.352,13.99 -1.678,20.621c-0.39,1.951 -0.115,5.265 -0.959,6.953c-0.188,0.375 -0.369,2.499 -0.12,2.997c0.167,0.335 1.923,0.362 2.278,0.48c1.866,0.622 3.713,1.377 5.275,2.158c0.597,0.298 1.408,-1.648 1.798,-2.038c1.176,-1.176 5.676,-4.594 4.796,-6.354c-0.749,-1.498 -0.207,-3.772 -0.959,-5.275c-0.832,-1.663 0.135,-4.03 -0.48,-5.875c-0.516,-1.548 0.151,-3.505 -0.36,-5.035c-0.357,-1.073 -0.12,-2.571 -0.12,-3.717c0,-2.705 -0.356,-5.884 0.48,-8.392c0.816,-2.449 0.525,-7.479 2.158,-9.112c0.177,-0.177 1.299,-0.033 1.559,-0.12c1.802,-0.601 3.155,-3.628 3.596,-5.395c0.178,-0.711 0.196,-1.896 0.959,-2.278c0.722,-0.36 2.566,0 3.357,0c0.419,0 2.686,-0.311 2.998,0c0.338,0.339 -0.734,1.856 -0.84,2.278c-0.638,2.554 -1.648,5.155 -2.278,7.673c-0.925,3.703 -2.097,7.49 -2.877,11.39c-0.913,4.563 -0.932,9.483 -2.038,13.907c-0.471,1.885 -0.24,4.26 -0.24,6.234c0,0.462 0.153,2.005 -0.12,2.278c-0.594,0.594 -2.268,0.47 -2.997,1.199" style="fill:none;stroke:black;stroke-width:2px;"/>
        <path d="M40.419,193.6c0.489,1.539 0.854,2.885 1.668,4.107c0.274,0.41 0.777,1.114 1.283,1.24c1.828,0.457 4.25,-0.344 6.032,-0.641c0.309,-0.052 0.697,-0.3 0.941,-0.3" style="fill:none;stroke:black;stroke-width:2px;"/>
        <path d="M61.466,201.386c1.187,1.249 2.046,3.055 3.636,3.85c2.281,1.14 5.463,0.027 7.572,-1.027" style="fill:none;stroke:black;stroke-width:2px;"/>
        <path d="M85.94,205.998c1.516,0.896 3.435,2.642 5.401,2.15c0.651,-0.163 1.104,-1.137 1.6,-1.55c0.64,-0.534 1.082,-1.233 1.65,-1.8c0.603,-0.604 1.35,-1.05 1.9,-1.601" style="fill:none;stroke:black;stroke-width:2px;"/>
        <path d="M109.566,201.715c1.682,0.293 3.092,1.877 4.873,1.655c0.635,-0.08 0.903,-0.717 1.241,-1.152c0.416,-0.536 0.97,-1.071 1.211,-1.714c0.336,-0.895 0.368,-2.435 1.004,-3.071c0.054,-0.054 0.457,0 0.532,0c0.566,0 1.071,0.096 1.625,0.206c1.231,0.247 2.462,0.237 3.721,0.237c0.629,0 1.265,0.064 1.743,-0.414c0.709,-0.709 1.805,-1.578 2.068,-2.629c0.209,-0.836 0.68,-1.774 1.063,-2.54c0.103,-0.207 0.2,-0.551 0.413,-0.679c1.078,-0.647 2.207,-0.562 3.456,-0.562c1.102,0 1.829,0.151 2.57,-0.738c0.294,-0.352 0.945,-0.748 0.945,-1.27" style="fill:none;stroke:black;stroke-width:2px;"/>
        <path d="M83.392,183.653c0.314,3.147 0.149,6.314 0.496,9.439c0.195,1.748 -0.243,3.597 0.046,5.33c0.362,2.171 0.542,4.562 0.542,6.774" style="fill:none;stroke:black;stroke-width:2px;"/>
        <path d="M11.812,118.784c-1.218,0.135 -2.12,0.771 -3.071,1.405c-0.292,0.195 -0.6,0.617 -0.936,0.729c-0.702,0.234 -1.14,0.764 -1.718,1.197c-3.063,2.297 -4.204,5.044 -4.944,8.742c-0.395,1.98 0.053,3.869 1.041,5.516c0.214,0.357 0.457,0.942 0.833,1.197c0.771,0.524 1.432,1.413 2.186,1.978c0.917,0.688 2.039,1.254 3.07,1.769c5.16,2.58 11.538,2.913 17.173,3.539c1.519,0.169 3.637,0.252 5.152,0c0.718,-0.12 1.648,-0.885 2.237,-0.885c0.016,0 -0.15,0.452 -0.156,0.469c-0.079,0.238 -0.052,0.576 -0.104,0.832c-0.173,0.868 -0.228,2.344 -0.052,3.227c0.388,1.937 2.796,3.884 4.684,4.423c2.313,0.661 4.588,0.86 6.921,1.249c2.339,0.39 5.184,0.746 7.546,0.156c1.299,-0.325 2.719,-1.065 4.007,-1.249c0.977,-0.14 2.224,-0.435 3.122,-0.885c1.962,-0.981 4.69,-1.913 6.973,-1.457c2.565,0.513 4.469,3.313 6.505,4.84c3.744,2.807 7.93,3.754 12.542,4.215c0.869,0.087 2.103,0.244 2.966,0.052c4.634,-1.03 8.279,-3.647 11.605,-6.973c1.225,-1.225 2.528,-2.268 3.747,-3.487c0.269,-0.269 1.182,-1.301 1.561,-1.301" style="fill:none;stroke:black;stroke-width:2px;"/>
        <path d="M102.021,151.59c1.122,0.449 2.137,0.415 3.283,0.606c1.674,0.279 3.319,0.618 4.999,0.858c1.243,0.178 2.457,0.804 3.687,1.111c3.523,0.881 7.114,1.717 10.756,1.717c1.597,0 3.21,0.011 4.646,-0.707c0.767,-0.383 1.691,-0.471 2.424,-0.959c0.672,-0.448 1.4,-0.885 2.07,-1.364c2.244,-1.602 2.626,-4.497 2.626,-7.019c0,-1.219 -0.372,-2.667 -0.707,-3.838c-0.118,-0.415 -0.248,-0.773 -0.404,-1.161c-0.073,-0.183 -0.202,-0.556 -0.202,-0.556l0,0.606c0,0.373 0.165,0.715 0.303,1.061c0.42,1.05 1.209,3.164 2.525,3.383c2.713,0.452 5.682,0.785 8.484,0.505c1.517,-0.152 3.169,-0.938 4.596,-1.414c1.085,-0.362 2.285,-0.486 3.333,-1.01c5.13,-2.565 9.187,-5.715 9.746,-11.867c0.085,-0.933 0.336,-2.59 0,-3.485c-1.012,-2.698 -2.759,-5.133 -4.797,-7.171c-1.189,-1.188 -2.564,-2.758 -4.141,-3.434c-0.658,-0.282 -1.32,-0.598 -1.97,-0.858c-0.077,-0.031 -0.707,-0.112 -0.707,-0.202c0,-0.084 0.193,-0.06 0.253,0c0.118,0.118 0.05,0.65 0.05,0.858c0,0.521 -0.5,1.057 -0.909,1.364c-0.956,0.717 -2.191,1.686 -2.979,2.474c-0.519,0.519 -1.118,1.328 -1.768,1.717c-1.175,0.706 -2.4,1.708 -3.484,2.576c-1.689,1.351 -3.895,2.699 -5.858,3.484c-0.708,0.283 -1.344,0.901 -2.071,1.212c-1.397,0.599 -2.752,1.187 -4.191,1.667c-1.231,0.41 -2.456,1.242 -3.788,1.464c-1.804,0.301 -3.486,1.213 -5.252,1.717c-3.632,1.038 -7.498,1.954 -11.261,2.424c-5.311,0.664 -10.678,0.758 -16.059,0.758c-2.561,0 -5.291,0.216 -7.827,-0.101c-1.674,-0.21 -3.513,0 -5.202,0c-3.483,0 -6.993,-0.012 -10.453,0.303c-2.395,0.217 -4.863,0.101 -7.272,0.101c-1.507,0 -3.151,0.186 -4.646,0c-1.414,-0.177 -2.935,-0.354 -4.343,-0.354" style="fill:none;stroke:black;stroke-width:2px;"/>
        <path d="M23.549,84.518c-6.145,2.587 -10.071,8.107 -11.673,14.515c-0.927,3.708 -2.529,7.631 -1.69,11.828c0.764,3.822 3.087,7.04 4.992,10.214c0.715,1.192 2.318,2.088 3.302,3.072c3.087,3.087 6.612,5.149 10.445,7.066c4.923,2.462 10.293,5.131 15.745,6.221c5.373,1.075 10.742,1.075 16.282,1.075" style="fill:none;stroke:black;stroke-width:2px;"/>
        <path d="M152.667,116.384c2.803,-5.607 0.462,-10.675 -2.493,-15.6c-0.579,-0.964 -1.605,-1.861 -2.43,-2.685c-0.217,-0.217 -0.735,-0.832 -0.959,-0.832c-0.076,0 -0.733,1.259 -0.831,1.407c-0.661,0.992 -1.872,2.363 -2.941,3.005c-2.173,1.304 -4.123,2.96 -6.33,4.284c-1.934,1.16 -4.047,1.799 -6.074,2.813c-2.576,1.288 -5.567,1.581 -8.311,2.365c-0.826,0.236 -1.755,0.183 -2.558,0.384c-0.291,0.073 -0.655,0.064 -0.959,0.064c-0.17,0 -0.682,0 -0.511,0c2.699,0 5.574,-1.325 8.12,-2.174c2.248,-0.749 4.55,-1.275 6.777,-2.11c1.93,-0.724 3.7,-1.771 5.626,-2.493c3.133,-1.175 6.758,-3.505 8.567,-6.522c3.75,-6.249 3.892,-16.09 -0.831,-21.993c-2.466,-3.083 -6.848,-4.926 -10.485,-6.138c-1.184,-0.395 -2.33,-0.79 -3.517,-1.087c-0.162,-0.041 -1.104,-0.365 -1.15,-0.32c-0.578,0.578 -1.036,2.302 -1.535,3.133c-1.346,2.244 -2.698,4.599 -4.283,6.713c-0.862,1.149 -2.309,2.02 -3.453,2.877c-0.254,0.191 -0.807,0.232 -1.023,0.448c-0.76,0.76 -2.738,1.215 -3.836,1.215" style="fill:none;stroke:black;stroke-width:2px;"/>
        <path d="M79.364,113.31c-1.977,-0.297 -4,-0.36 -5.969,-0.606c-2.914,-0.365 -5.533,-1.902 -8.395,-2.379c-5.105,-0.851 -9.948,-2.868 -14.737,-4.663c-1.683,-0.631 -3.17,-1.825 -4.71,-2.705c-3.942,-2.253 -7.38,-5.056 -10.913,-7.882c-2.086,-1.669 -4.398,-3.232 -6.295,-5.13c-0.569,-0.568 -1.341,-1.031 -1.773,-1.678c-0.685,-1.028 -1.505,-1.864 -2.005,-3.032c-1.153,-2.691 -1.073,-5.759 -1.073,-8.674c0,-1.809 -0.145,-3.62 0.42,-5.316c1.02,-3.059 3.247,-5.253 5.456,-7.462c1.926,-1.926 3.98,-2.927 6.669,-3.311c1.402,-0.2 2.873,-0.467 4.291,-0.467c0.183,0 1.136,-0.216 1.259,-0.093c0.117,0.117 -0.093,1.013 -0.093,1.213c0,1.078 0.261,1.933 0.513,2.938c0.283,1.134 1.111,2.321 1.819,3.264c1.223,1.632 2.406,3.297 4.103,4.57c2.073,1.555 4.09,3.443 6.39,4.757c2.845,1.626 5.7,3.154 8.627,4.617c5.943,2.971 12.168,5.363 18.934,5.363" style="fill:none;stroke:black;stroke-width:2px;"/>
        <path d="M41.328,59.933c0.144,-0.818 0.127,-1.676 0.318,-2.441c1.085,-4.337 4.872,-9.175 9.337,-10.663c2.25,-0.75 4.373,-1.01 6.738,-1.273c1.347,-0.15 3.047,-0.332 4.403,-0.106c2.916,0.486 5.601,1.824 8.276,2.971c1.89,0.81 3.606,2.43 5.146,3.713c3.975,3.313 7.627,7.286 12.414,9.337c3.115,1.335 6.913,0.533 10.026,-0.159c0.513,-0.114 1.325,-0.492 1.751,-0.796c0.189,-0.135 0.671,-0.583 0.849,-0.583" style="fill:none;stroke:black;stroke-width:2px;"/>
        <path d="M131.09,69.216c0.293,-2.151 0.409,-4.337 0.053,-6.472c-0.396,-2.377 -2.516,-4.451 -3.873,-6.26c-1.693,-2.256 -4.409,-3.929 -6.843,-5.146c-4.678,-2.338 -8.707,-4.297 -14.059,-4.297c-2.084,0 -3.913,0.05 -5.835,0.531c-0.724,0.181 -1.872,0.06 -2.494,0.371c-0.7,0.35 -0.859,1.757 -1.485,2.175c-0.318,0.212 -0.606,0.909 -0.849,1.273c-0.573,0.859 -1.319,2.062 -2.069,2.812c-2.959,2.959 -6.622,3.82 -10.822,3.82" style="fill:none;stroke:black;stroke-width:2px;"/>
        <path d="M66.369,45.913c-0.144,-2.587 -0.06,-5.151 0.299,-7.66c0.253,-1.773 0.431,-3.421 1.382,-5.007c0.849,-1.416 2.171,-2.424 3.438,-3.437c0.857,-0.686 1.83,-1.781 2.877,-2.13c0.406,-0.136 0.806,-0.673 1.233,-0.673" style="fill:none;stroke:black;stroke-width:2px;"/>
        <path d="M78.55,25.997c1.702,-0.243 3.475,-0.018 5.156,-0.299c1.076,-0.179 2.712,-0.212 3.774,0c3.998,0.8 7.858,3.535 9.677,7.175c1.672,3.343 1.869,7.043 1.869,10.723c0,0.862 -0.064,1.799 -0.337,2.616c-0.046,0.138 -0.129,0.784 -0.299,0.784" style="fill:none;stroke:black;stroke-width:2px;"/>
        <path d="M73.879,34.143c0.657,0.146 1.594,0.287 2.279,0.149c0.867,-0.173 1.479,-1.081 2.13,-1.569c0.8,-0.6 1.585,-1.253 2.354,-1.868c0.506,-0.405 0.954,-0.897 1.607,-1.084c0.931,-0.266 1.725,-0.486 2.727,-0.486c0.352,0 0.818,-0.041 1.084,0.225" style="fill:none;stroke:black;stroke-width:2px;"/>
        <path d="M33.158,11.305c0.122,-1.336 0.434,-2.788 0.434,-4.092" style="fill:none;stroke:black;stroke-width:2px;"/>
        <path d="M32.629,11.257c-0.075,0.354 0.015,0.803 -0.241,1.059c-0.256,0.256 -1.402,0.431 -1.782,0.241c-0.15,-0.075 -0.372,-0.683 -0.433,-0.867c-0.128,-0.385 0,-1.034 0,-1.444c0,-1.991 0.666,-3.552 1.83,-5.104c1.516,-2.021 3.675,-3.413 6.307,-3.852c0.867,-0.144 1.782,0 2.648,-0.144c1.034,-0.172 2.476,-0.197 3.515,-0.048c4.77,0.681 9.425,2.899 13.145,5.874c0.842,0.674 1.919,1.178 2.792,1.926c1.319,1.13 2.476,2.456 3.804,3.563c1.613,1.344 2.99,2.879 4.574,4.237c1.717,1.472 3.553,3.259 4.815,5.152c1.37,2.055 3.475,3.43 4.911,5.344c0.359,0.479 1.83,1.526 1.83,2.022" style="fill:none;stroke:black;stroke-width:2px;"/>
        <path d="M78.851,31.768c-3.595,-5.093 -7.102,-10.069 -11.026,-14.974c-1.892,-2.365 -4.403,-4.499 -6.548,-6.644c-0.583,-0.583 -1.492,-0.866 -2.022,-1.397" style="fill:none;stroke:black;stroke-width:2px;"/>
        <path d="M33.255,6.49c1.372,-3.088 4.691,-5.055 8.088,-5.055" style="fill:none;stroke:black;stroke-width:2px;"/>
        <path d="M65.213,134.857c3.701,0.435 6.985,0.469 10.53,1.65c4.025,1.342 7.711,3.668 12.18,4.165c5.009,0.557 9.791,0.582 14.695,-0.236c1.952,-0.325 3.691,-1.11 5.579,-1.65c0.82,-0.234 2.772,-0.257 3.379,-0.864" style="fill:none;stroke:black;stroke-width:2px;"/>
        <path d="M22.66,95.836c0.948,0.135 0.966,0.075 1.678,0.629c0.614,0.477 1.169,1.029 1.782,1.52c0.11,0.088 0.578,0.365 0.472,0.577c-0.068,0.136 -0.554,0.242 -0.681,0.314c-0.656,0.375 -1.403,0.583 -2.097,0.892c-0.714,0.317 -1.488,0.591 -2.097,1.048c-0.365,0.273 -0.722,0.836 -1.154,0.944c-1.359,0.34 -1.392,-0.156 -1.992,-1.206c-0.077,-0.135 -0.549,-0.592 -0.419,-0.786c0.505,-0.758 1.497,-1.393 2.149,-2.045c0.839,-0.839 1.834,-1.52 2.674,-2.359" style="fill:none;stroke:black;stroke-width:2px;"/>
        <path d="M30.157,109.519c0.231,1.462 -0.222,3.593 0.42,4.876c0.062,0.125 0.574,0.052 0.681,0.052l2.045,0c0.101,0 0.657,0.077 0.734,0c0.142,-0.142 -0.026,-0.948 0,-1.153c0.125,-1.003 0.829,-2.855 0.419,-3.88c-0.101,-0.253 -0.895,-0.157 -1.101,-0.157c-1.103,0 -2.086,0.003 -3.145,-0.262" style="fill:none;stroke:black;stroke-width:2px;"/>
        <path d="M43.421,111.301c0.429,1.019 0.343,1.751 0.472,2.779c0.032,0.256 -0.147,1.059 0.052,1.258c0.15,0.15 1.179,0 1.363,0c0.385,0 0.853,-0.019 1.206,0.158c0.025,0.012 0.517,0.216 0.525,0.209c0.07,-0.07 0,-0.647 0,-0.734l0,-1.835c0,-0.194 0.161,-1.675 0,-1.782c-0.861,-0.574 -2.367,-0.277 -3.356,-0.524" style="fill:none;stroke:black;stroke-width:2px;"/>
        <path d="M58.1,121.367c0.476,0.898 1.034,1.664 1.521,2.517c0.108,0.189 0.241,0.618 0.472,0.734c0.789,0.394 2.027,-0.306 2.673,-0.629c0.107,-0.053 0.515,-0.043 0.577,-0.105c0.162,-0.162 -0.157,-0.639 -0.21,-0.734c-0.371,-0.67 -0.665,-1.819 -1.153,-2.307c-0.095,-0.095 -0.818,0 -0.944,0c-0.806,0 -1.601,0.052 -2.411,0.052" style="fill:none;stroke:black;stroke-width:2px;"/>
        <path d="M83.894,124.88c0.319,1.01 0.315,1.796 0.315,2.831c0,0.278 -0.008,1.093 0.157,1.258c0.188,0.188 1.493,0 1.73,0c0.11,0 1.973,0.076 1.992,0c0.25,-1 -0.032,-2.348 -0.104,-3.355c-0.013,-0.169 0.034,-0.699 -0.105,-0.839c-0.09,-0.09 -0.793,0 -0.892,0c-0.711,0 -1.431,0.052 -2.149,0.052" style="fill:none;stroke:black;stroke-width:2px;"/>
        <path d="M35.557,73.974c-0.584,1.023 -0.959,1.97 -1.468,2.988c-0.042,0.084 -0.427,0.887 -0.419,0.891c0.556,0.278 0.889,0.575 1.363,1.049c0.082,0.083 0.527,0.679 0.577,0.629c0.971,-0.972 1.22,-2.729 2.044,-3.827c0.073,-0.097 0.744,-0.934 0.577,-1.101c-0.149,-0.149 -0.596,-0.094 -0.787,-0.157c-0.693,-0.232 -1.391,-0.499 -2.097,-0.734" style="fill:none;stroke:black;stroke-width:2px;"/>
        <path d="M45.78,76.228c-0.691,0.534 -1.344,1.07 -1.992,1.625c-0.079,0.068 -1.209,0.522 -1.048,0.682c0.545,0.545 1.55,0.694 2.201,1.101c0.324,0.202 0.656,0.354 0.997,0.524c0.203,0.102 0.474,0.571 0.576,0.367c0.131,-0.261 0,-0.973 0,-1.258c0,-0.945 0.105,-1.903 0.105,-2.831" style="fill:none;stroke:black;stroke-width:2px;"/>
        <path d="M46.182,85.868c-0.537,0.322 -1.033,0.677 -1.519,1.067c-0.316,0.253 -0.661,0.441 -1.035,0.582c-0.133,0.05 -0.371,-0.001 -0.452,0.161c-0.137,0.274 0.766,1.095 0.905,1.293c0.238,0.34 0.488,0.941 0.743,1.196c0.343,0.343 1.532,-0.429 1.746,-0.549c0.36,-0.203 0.723,-0.418 1.066,-0.647c0.598,-0.398 1.549,-0.449 0.938,-1.196l-0.324,-0.388c-0.195,-0.249 -0.18,-0.226 -0.388,-0.452c-0.222,-0.243 -0.418,-0.538 -0.743,-0.647" style="fill:none;stroke:black;stroke-width:2px;"/>
        <path d="M54.553,94.66c0.421,0.789 0.69,1.752 0.938,2.618c0.154,0.541 0.306,1.309 0.711,1.713c0.059,0.059 0.462,-0.014 0.517,-0.032c0.539,-0.18 1.053,-0.383 1.616,-0.485c0.088,-0.016 0.52,0.029 0.582,-0.032c0.088,-0.089 -0.069,-0.369 -0.097,-0.421c-0.266,-0.478 -0.446,-0.994 -0.679,-1.486c-0.37,-0.78 -0.65,-1.605 -1.131,-2.328c-0.143,-0.214 -0.334,-0.535 -0.614,-0.581c-0.673,-0.113 -1.325,0.42 -2.037,0.42" style="fill:none;stroke:black;stroke-width:2px;"/>
        <path d="M60.274,86.288c0.38,0.978 0.226,2.092 0.226,3.136c0,0.273 -0.076,1.184 0.13,1.389c0.138,0.139 1.112,0 1.293,0c0.166,0 0.353,-0.023 0.517,0c0.115,0.017 0.286,0.24 0.323,0.13c0.096,-0.288 0,-0.767 0,-1.067c0,-0.941 -0.129,-1.869 -0.129,-2.812c0,-0.181 0.079,-0.987 -0.065,-1.131c-0.094,-0.094 -0.493,-0.033 -0.614,-0.033c-0.446,0 -0.879,-0.064 -1.325,-0.064" style="fill:none;stroke:black;stroke-width:2px;"/>
        <path d="M74.108,94.595c0.189,1.07 0.395,2.178 0.453,3.265c0.011,0.206 -0.097,1.099 0.064,1.26c0.048,0.048 0.398,0 0.453,0l1.519,0c0.286,0 1.523,0.19 1.745,-0.032c0.163,-0.162 0,-1.327 0,-1.519c0,-1.063 -0.205,-2.005 -0.42,-3.038c-0.106,-0.512 -0.125,-1.188 -0.355,-1.649c-0.043,-0.084 -0.484,0.08 -0.518,0.097c-0.685,0.343 -1.247,0.647 -2.036,0.647" style="fill:none;stroke:black;stroke-width:2px;"/>
        <path d="M91.498,98.623c0.21,1.052 -0.647,1.939 -1.097,2.838c-0.035,0.07 -0.351,0.84 -0.226,0.903c0.68,0.34 1.348,0.961 1.903,1.516c0.09,0.09 0.519,0.763 0.677,0.645c0.455,-0.341 0.811,-0.934 1.193,-1.355c0.281,-0.308 0.52,-0.636 0.774,-0.967c0.15,-0.195 0.262,-0.372 0.387,-0.581c0.58,-0.965 0.154,-1.101 -0.741,-1.741c-0.225,-0.161 -0.458,-0.315 -0.678,-0.484c-0.417,-0.321 -0.753,-0.731 -1.225,-0.967" style="fill:none;stroke:black;stroke-width:2px;"/>
        <path d="M103.139,104.105c0.608,0.848 0.323,1.951 0.323,2.967c0,0.072 -0.077,1.091 0,1.129c0.248,0.124 0.725,0.019 0.999,0.064c0.435,0.073 0.885,0.075 1.322,0.129c0.016,0.002 0.411,0.049 0.42,0.033c0.079,-0.159 -0.011,-0.533 0,-0.71c0.042,-0.676 0.032,-1.353 0.032,-2.031c0,-0.594 0,-1.183 -0.032,-1.774c-0.011,-0.189 0.057,-0.62 -0.097,-0.774c-0.08,-0.08 -0.642,0 -0.742,0c-0.545,0 -1.164,-0.021 -1.677,-0.226" style="fill:none;stroke:black;stroke-width:2px;"/>
        <path d="M105.912,94.625c1.102,1.162 1.161,2.895 2.161,4.095c0.494,0.592 1.279,0.363 2.032,0.226c0.194,-0.036 0.585,0.027 0.741,-0.129c0.04,-0.04 0,-0.3 0,-0.355c0,-0.535 -0.226,-1.008 -0.387,-1.516c-0.1,-0.318 -0.255,-0.619 -0.354,-0.935c-0.14,-0.442 -0.251,-0.988 -0.516,-1.386c-0.413,-0.62 -1.953,-0.162 -2.548,-0.162" style="fill:none;stroke:black;stroke-width:2px;"/>
        <path d="M129.694,114.645c0.296,0.947 0.074,1.827 0.074,2.804c0,0.142 -0.116,0.917 0,1.033c0.13,0.13 0.396,0.134 0.553,0.221c0.495,0.275 0.934,0.632 1.365,0.996c0.08,0.068 1.069,1.034 1.217,0.886c0.202,-0.202 0.149,-0.673 0.185,-0.923c0.148,-1.034 0.147,-2.056 0.147,-3.098c0,-0.135 0.115,-0.993 0,-1.107c-0.059,-0.06 -0.641,-0.021 -0.737,-0.037c-0.675,-0.112 -1.352,-0.182 -2.029,-0.295" style="fill:none;stroke:black;stroke-width:2px;"/>
        <path d="M120.979,92.857c0.343,0.883 0.777,1.684 1.124,2.55c0.078,0.196 0.237,0.897 0.432,0.994c0.368,0.184 0.952,-0.195 1.253,-0.346c0.154,-0.077 0.688,0.004 0.778,-0.086c0.103,-0.103 0,-0.839 0,-0.951c0,-0.659 0.112,-2.049 -0.389,-2.55c-0.377,-0.377 -2.039,-0.086 -2.593,-0.086" style="fill:none;stroke:black;stroke-width:2px;"/>
        <path d="M125.128,85.38c0.888,0.843 1.484,1.959 2.291,2.766c0.207,0.208 1.447,-0.259 1.556,-0.476c0.348,-0.695 -0.728,-2.283 -0.951,-2.895c-0.07,-0.192 -0.072,-0.634 -0.216,-0.778c-0.105,-0.105 -0.591,0.101 -0.692,0.129c-0.538,0.154 -1.117,0.433 -1.685,0.433" style="fill:none;stroke:black;stroke-width:2px;"/>
        <path d="M136.15,79.588c0,1.404 -0.645,2.398 -0.865,3.717c-0.002,0.014 -0.025,0.278 0,0.303c0.08,0.08 0.467,0.019 0.605,0.129c0.236,0.189 0.546,0.942 0.908,0.822c0.353,-0.118 0.839,-1.043 1.037,-1.34c0.611,-0.916 1.265,-1.036 0.432,-1.988c-0.167,-0.191 -0.339,-0.383 -0.518,-0.562c-0.242,-0.242 -0.829,-0.817 -1.167,-0.865" style="fill:none;stroke:black;stroke-width:2px;"/>
        <path d="M136.538,91.733c-0.49,0.087 -0.467,0.088 -0.95,0.216c-0.037,0.01 -0.931,0.024 -0.994,0.087c-0.107,0.107 0.135,0.531 0.172,0.605c0.255,0.51 0.413,1.117 0.476,1.686c0.026,0.238 -0.118,1.518 0.13,1.642c0.551,0.276 1.41,0.216 2.031,0.216c0.061,0 0.509,0.052 0.562,0c0.052,-0.052 0,-0.588 0,-0.648c0,-0.885 -0.257,-1.975 -0.821,-2.68" style="fill:none;stroke:black;stroke-width:2px;"/>
        <path d="M49.013,59.99c0.098,0.783 0.084,1.557 0.084,2.345c0,0.157 0.028,0.74 -0.168,0.837c-0.235,0.118 -1.077,-0.329 -1.34,-0.377c-0.149,-0.027 -0.899,0.064 -1.005,-0.041c-0.159,-0.16 0,-1.355 0,-1.55c0,-0.456 -0.294,-2.26 0.084,-2.638c0.239,-0.239 0.971,0.445 1.131,0.545c0.199,0.124 0.477,0.201 0.586,0.418" style="fill:none;stroke:black;stroke-width:2px;"/>
        <path d="M54.415,53.918c0.096,0.869 0.083,1.723 0.083,2.596c0,0.64 -0.124,1.468 0.168,2.052c0.083,0.165 1.215,0.042 1.382,0.042c0.097,0 0.874,0.141 0.879,0.126c0.322,-0.965 0,-2.59 0,-3.602c0,-0.15 0.112,-0.86 -0.042,-0.963c-0.363,-0.242 -1.204,-0.125 -1.633,-0.125" style="fill:none;stroke:black;stroke-width:2px;"/>
        <path d="M67.731,52.327c-0.789,0.464 -1.711,0.708 -2.471,1.214c-0.244,0.163 0.28,0.545 0.377,0.628c0.362,0.311 0.933,0.639 1.214,1.005c0.076,0.099 0.174,0.401 0.294,0.461c0.424,0.212 1.408,-0.925 1.716,-1.131c0.904,-0.602 1.686,-0.819 0.67,-1.465c-0.16,-0.102 -0.307,-0.224 -0.46,-0.335c-0.249,-0.181 -0.469,-0.255 -0.754,-0.377" style="fill:none;stroke:black;stroke-width:2px;"/>
        <path d="M67.605,66.02c0.437,0.998 0.377,2.176 0.377,3.266c0,0.177 -0.138,1.16 0,1.298c0.268,0.268 1.354,-0.554 1.675,-0.586c0.384,-0.038 0.873,-0.048 1.256,0c0.041,0.005 0.508,0.198 0.545,0.126c0.114,-0.228 0,-0.848 0,-1.089c0,-0.936 -0.122,-1.892 -0.293,-2.806c-0.057,-0.3 0.031,-0.889 -0.21,-1.13c-0.117,-0.117 -0.64,-0.042 -0.795,-0.042c-0.716,0 -1.421,0.042 -2.136,0.042" style="fill:none;stroke:black;stroke-width:2px;"/>
        <path d="M52.112,72.594c1.05,-0.143 2.094,-0.419 2.973,-1.047c0.212,-0.151 0.888,-0.686 1.172,-0.544c0.224,0.112 0.314,0.784 0.461,1.005c0.266,0.399 0.456,0.828 0.67,1.256c0.026,0.052 0.322,0.473 0.251,0.545c-0.078,0.078 -0.693,0 -0.796,0c-0.632,0 -1.257,0.139 -1.884,0.209c-0.593,0.066 -0.799,0.67 -1.298,0.67" style="fill:none;stroke:black;stroke-width:2px;"/>
        <path d="M51.86,72.51c0.12,0.154 1.173,1.29 1.173,1.634" style="fill:none;stroke:black;stroke-width:2px;"/>
        <path d="M69.49,76.028c0.375,0.709 0.242,2.126 0.795,2.68c0.089,0.088 0.682,0 0.796,0c0.518,0 1.239,-0.033 1.591,-0.503c0.327,-0.435 0.103,-1.968 -0.419,-2.177c-0.56,-0.224 -1.663,0 -2.261,0" style="fill:none;stroke:black;stroke-width:2px;"/>
        <path d="M80.838,70.04c-0.537,1.302 -1.313,2.253 -2.136,3.35c-0.661,0.881 -0.245,1.252 0.419,2.01c0.137,0.157 0.419,0.942 0.712,0.795c0.556,-0.278 1.065,-1.562 1.465,-2.051c0.972,-1.189 2.708,-2.228 0.838,-3.267c-0.233,-0.129 -0.471,-0.256 -0.712,-0.377" style="fill:none;stroke:black;stroke-width:2px;"/>
        <path d="M77.655,62.084c0.298,0.894 0.251,1.704 0.251,2.638c0,0.126 -0.1,0.862 0,0.963c0.119,0.118 0.972,0 1.131,0c0.215,0 1.27,0.154 1.424,0c0.173,-0.174 0.154,-1.12 0.167,-1.34l0,-0.754c0,-0.363 0.178,-1.236 0,-1.591c-0.035,-0.071 -0.553,-0.113 -0.628,-0.126c-0.581,-0.097 -1.192,-0.047 -1.759,-0.209" style="fill:none;stroke:black;stroke-width:2px;"/>
        <path d="M89.841,79.043c0.282,0.893 0.251,1.671 0.251,2.596c0,0.32 -0.099,0.849 0.042,1.131c0.149,0.299 1.699,0.054 1.968,0.083c0.307,0.035 0.6,0.258 0.879,0.377c0.026,0.011 0.376,0.212 0.377,0.21c0.116,-0.347 0.042,-0.896 0.042,-1.257c0,-0.585 0.176,-1.487 0,-2.051c-0.251,-0.805 -2.356,-0.644 -3.015,-0.754" style="fill:none;stroke:black;stroke-width:2px;"/>
        <path d="M97.252,72.175c-0.125,0.668 -0.451,1.182 -0.628,1.801c-0.029,0.102 -0.343,0.536 -0.209,0.67c0.169,0.169 0.706,0.146 0.921,0.168c0.474,0.047 1.031,0.211 1.466,0.376c0.563,0.214 0.921,0.704 1.424,1.005c0.048,0.029 0.398,0.293 0.46,0.252c0.502,-0.335 0.553,-1.525 0.67,-2.052c0.022,-0.099 0.18,-0.658 0.084,-0.754c-0.127,-0.127 -0.889,-0.11 -1.089,-0.167c-0.759,-0.217 -1.43,-0.695 -2.135,-1.047" style="fill:none;stroke:black;stroke-width:2px;"/>
        <path d="M112.388,73.967c-0.312,1.195 -0.891,2.244 -1.242,3.416c-0.058,0.194 -0.061,0.381 -0.089,0.576c-0.004,0.033 -0.138,0.442 -0.133,0.444c0.576,0.192 1.364,-0.222 1.952,-0.222c0.237,0 1.505,0.18 1.685,0c0.084,-0.083 0,-0.64 0,-0.754c0,-0.541 -0.228,-2.661 -0.842,-2.661" style="fill:none;stroke:black;stroke-width:2px;"/>
        <path d="M115.936,65.717c0.191,0.838 0.462,1.589 0.71,2.396c0.224,0.726 0.467,1.511 0.798,2.173c0.244,0.487 1.847,0.011 2.129,-0.177c1.337,-0.892 0.254,-3.809 -0.842,-4.436c-0.622,-0.355 -1.965,-0.089 -2.662,-0.089" style="fill:none;stroke:black;stroke-width:2px;"/>
        <path d="M118.287,59.996c0.836,0.39 1.696,0.817 2.44,1.375c0.235,0.176 0.877,0.709 1.197,0.709c0.09,0 0.422,-1.555 0.444,-1.685c0.01,-0.062 0.272,-1.24 0.133,-1.286c-0.645,-0.215 -0.95,-0.418 -1.464,-0.932c-0.271,-0.27 -0.468,-0.899 -0.798,-1.064c-0.685,-0.342 -1.446,1.509 -1.73,1.907c-0.083,0.117 -0.276,0.444 -0.399,0.444" style="fill:none;stroke:black;stroke-width:2px;"/>
        <path d="M106.178,57.512c-0.846,0.762 -2.131,1.868 -2.661,2.927c-0.019,0.039 0.515,0.498 0.577,0.577c0.437,0.563 0.881,1.326 1.419,1.774c0.067,0.056 0.328,0.388 0.444,0.311c0.673,-0.449 1.233,-1.742 1.685,-2.396c0.393,-0.567 1.262,-1.103 1.552,-1.685c0.074,-0.147 -0.405,-0.381 -0.487,-0.444c-0.573,-0.429 -1.14,-0.838 -1.819,-1.064" style="fill:none;stroke:black;stroke-width:2px;"/>
        <path d="M101.078,51.036c0.2,1.153 0.073,2.102 -0.133,3.238c-0.013,0.069 -0.203,0.875 -0.089,0.932c0.406,0.203 1.143,-0.086 1.597,0.044c0.285,0.081 0.527,0.287 0.798,0.355c0.061,0.015 0.105,0.189 0.133,0.133c0.165,-0.33 -0.013,-1.044 0.044,-1.419c0.103,-0.669 0.104,-1.331 0.178,-1.996c0.014,-0.125 0.229,-0.663 0,-0.754c-0.432,-0.173 -1.042,-0.218 -1.508,-0.311" style="fill:none;stroke:black;stroke-width:2px;"/>
    </g>
</svg>
