<?xml version="1.0" encoding="UTF-8" standalone="no"?>
<!DOCTYPE svg PUBLIC "-//W3C//DTD SVG 1.1//EN" "http://www.w3.org/Graphics/SVG/1.1/DTD/svg11.dtd">
<svg width="100%" height="100%" viewBox="0 0 449 508" version="1.1" xmlns="http://www.w3.org/2000/svg" xmlns:xlink="http://www.w3.org/1999/xlink" xml:space="preserve" xmlns:serif="http://www.serif.com/" style="fill-rule:evenodd;clip-rule:evenodd;stroke-linecap:round;stroke-linejoin:round;stroke-miterlimit:1.5;">
    <g>
        <path d="M135.404,449.991c-6.082,-3.379 -11.316,-7.878 -16.641,-12.315c-7.806,-6.505 -15.439,-12.943 -22.633,-20.136c-3.824,-3.825 -9.118,-7.072 -12.647,-11.483c-7.681,-9.601 -17.255,-18.323 -24.963,-27.958c-3.899,-4.874 -6.261,-10.859 -8.986,-16.309c-2.973,-5.945 -6.793,-11.512 -9.153,-17.806c-4.461,-11.895 -7.8,-24.233 -11.816,-36.279c-2.138,-6.414 -1.545,-13.977 -2.496,-20.636c-1.71,-11.97 1.745,-25.095 6.324,-35.779c1.559,-3.638 3.501,-7.914 5.658,-11.15c0.816,-1.224 2.496,-3.546 2.496,-4.826" style="fill:none;stroke:rgb(255,7,0);stroke-width:10px;"/>
        <path d="M130.007,445.986c12.377,5.211 23.049,13.741 35.031,19.732c2.932,1.466 6.458,3.997 9.756,4.656c5.157,1.032 11.161,3.585 15.963,5.987c7.365,3.682 16.855,5.48 24.832,7.76c5.217,1.49 10.446,4.438 15.742,5.321c13.179,2.196 25.803,7.854 39.244,9.534c31.384,3.923 64.364,6.239 95.559,0c20.584,-4.117 47.525,-7.173 62.967,-22.615" style="fill:none;stroke:rgb(255,7,0);stroke-width:10px;"/>
        <path d="M264.35,97.983c12.809,0 26.19,1.108 38.809,2.911c7.974,1.139 15.189,5.921 22.315,8.975c24.41,10.461 49.516,30.054 63.065,52.635c1.353,2.255 3.827,3.81 5.336,5.821c3.348,4.465 6.841,9.558 9.46,14.796c2.515,5.03 6.318,9.721 9.217,14.553c4.046,6.744 7.895,17.162 9.46,24.984c0.615,3.078 3.021,5.891 3.638,8.974c3.915,19.573 9.31,38.64 12.613,58.457c1.819,10.915 1.85,22.259 3.638,32.987c0.896,5.376 -0.413,11.106 0.485,16.494c1.83,10.98 -1.455,23.043 0.728,33.958c1.143,5.717 0.243,12.577 0.243,18.434c0,4.484 0.736,9.649 0,14.069c-2.686,16.114 -4.595,32.42 -7.277,48.511c-0.826,4.953 -2.375,11.057 -4.609,15.524c-1.038,2.077 -3.638,5.521 -3.638,7.762" style="fill:none;stroke:rgb(255,7,0);stroke-width:10px;"/>
        <path d="M98.666,170.797c-1.306,7.4 -7.748,13.623 -12.304,19.318c-6.525,8.156 -11.641,17.069 -18.398,24.952c-4.274,4.987 -8.314,10.539 -14.373,13.568c-5.672,2.836 -11.467,3.554 -17.364,5.52c-1.494,0.498 -3.033,1.004 -4.599,1.265c-0.207,0.034 -1.07,0.31 -1.265,0.115c-0.472,-0.472 0.703,-1.592 0.92,-1.84c1.38,-1.577 2.693,-3.202 4.025,-4.83c5.551,-6.784 9.948,-14.98 14.833,-22.307c2.945,-4.418 6.734,-8.464 9.314,-13.109c3.623,-6.522 7.247,-12.744 11.614,-18.858c1.342,-1.879 2.497,-3.992 4.139,-5.634c7.584,-7.584 17.523,-13.228 26.102,-19.663c8.669,-6.501 18.291,-7.704 28.747,-7.704c2.433,0 4.739,0.391 7.13,0.69c0.398,0.05 2.32,0.041 2.529,0.46c0.339,0.677 -3.551,3.667 -4.139,4.254c-4.756,4.756 -11.05,7.758 -16.558,11.614c-5.37,3.759 -11.667,6.753 -17.479,9.659c-2.042,1.021 -5.535,1.511 -7.129,3.105" style="fill:none;stroke:rgb(255,7,0);stroke-width:10px;"/>
        <path d="M124.078,136.99c-10.614,-6.144 -22.324,-4.428 -34.036,-5.404c-12.952,-1.079 -26.018,-0.684 -38.981,-1.61c-6.72,-0.48 -13.402,-2.088 -20.123,-2.76c-1.689,-0.168 -3.372,-0.272 -5.059,-0.46c-1.331,-0.147 -2.689,-0.096 -4.025,-0.23c-3.783,-0.378 -7.553,-0.459 -11.384,-0.459c-1.579,0 -3.853,0.059 -4.944,1.149c-0.783,0.783 -0.46,2.985 -0.46,4.025c0,0.974 0.056,2.196 0.46,3.105c5.439,12.237 12.556,27.987 26.562,32.656c6.935,2.312 15.554,2.326 22.652,1.035c6.205,-1.128 12.409,-2.666 18.628,-3.91c0.773,-0.154 5.175,-0.721 5.175,-1.609" style="fill:none;stroke:rgb(255,7,0);stroke-width:10px;"/>
        <path d="M37.837,154.468c7.601,0 15.315,0.353 22.883,-0.23c6.698,-0.515 13.346,-2.249 20.008,-2.989c3.223,-0.358 6.438,-0.748 9.659,-1.15c0.442,-0.055 2.644,-0.045 2.644,-0.46" style="fill:none;stroke:rgb(255,7,0);stroke-width:10px;"/>
        <path d="M121.893,135.84c2.075,0.396 4.168,0.282 6.21,0.69c3.471,0.695 7.119,2.335 10.463,3.45c2.131,0.71 5.876,1.95 8.165,1.035c2.201,-0.881 3.987,-3.017 5.749,-4.485c1.563,-1.302 3.744,-2.019 5.174,-3.449c0.433,-0.433 3.226,-3.105 3.91,-3.105" style="fill:none;stroke:rgb(255,7,0);stroke-width:10px;"/>
        <path d="M162.089,130.772c-2.269,2.669 -5.732,4.201 -8.944,5.577c-1.654,0.709 -3.333,2.12 -4.808,3.174c-2.779,1.985 -5.666,3.745 -8.366,5.673c-2.858,2.042 -5.848,3.954 -8.655,6.059c-5.319,3.989 -9.758,8.932 -15.386,12.309c-6.23,3.738 -13.066,5.152 -20.003,6.539c-1.105,0.221 -2.38,0.577 -3.462,0.577" style="fill:none;stroke:rgb(255,7,0);stroke-width:10px;"/>
        <path d="M163.058,127.515c2.583,-0.303 4.678,-1.38 7.019,-2.383c3.48,-1.492 7.767,-2.245 11.522,-2.781c13.461,-1.924 27.356,-0.94 40.789,-3.179c9.34,-1.556 18.621,-7.172 25.56,-13.243c7.559,-6.615 11.389,-15.362 15.759,-24.103c1.035,-2.069 2.197,-4.102 3.046,-6.224c0.102,-0.255 0.952,-1.974 0.927,-1.987c-1.503,-0.751 -4.189,-0.264 -5.827,-0.264c-5.576,0 -12.034,0.973 -17.216,3.045c-2.721,1.089 -5.465,2.187 -7.946,3.841c-3.825,2.55 -6.836,6.526 -9.668,10.065c-7.795,9.743 -17.752,21.171 -30.856,23.043c-2.99,0.427 -6.197,2.516 -9.138,2.516" style="fill:none;stroke:rgb(255,7,0);stroke-width:10px;"/>
        <path d="M159.748,122.351c2.541,-7.201 -1.419,-16.428 3.443,-22.911c2.579,-3.439 6.593,-5.283 10.33,-7.152c6.282,-3.141 13.528,-7.329 18.143,-12.713c10.042,-11.717 14.936,-26.708 23.44,-39.465c5.683,-8.524 8.715,-19.171 15.098,-27.149c1.903,-2.379 2.559,-6.577 5.297,-7.946c0.38,-0.19 0.61,1.432 0.662,1.59c0.631,1.891 0.744,3.885 1.192,5.827c1.176,5.095 2.704,10.142 3.178,15.362c1.113,12.237 0.139,24.732 -2.251,36.684c-0.568,2.837 -1.18,5.746 -1.589,8.608c-0.11,0.771 -0.175,2.161 -0.662,2.648" style="fill:none;stroke:rgb(255,7,0);stroke-width:10px;"/>
        <path d="M111.357,127.541c-0.603,-6.327 -3.033,-9.834 -5.457,-15.491c-2.748,-6.413 -6.467,-14.036 -11.442,-19.012c-9.265,-9.264 -20.475,-16.328 -30.454,-24.645c-3.421,-2.85 -7.592,-5.126 -10.739,-8.273c-4.993,-4.994 -14.199,-8.18 -20.596,-10.738c-2.876,-1.151 -5.942,-2.091 -8.801,-3.521c-0.378,-0.189 -2.826,-1.047 -1.937,-1.937c0.752,-0.751 2.723,-0.921 3.697,-1.408c3.693,-1.846 7.445,-3.249 11.442,-4.049c11.385,-2.277 20.539,1.301 30.278,6.866c1.872,1.069 3.38,2.816 5.281,3.873c10.307,5.725 18.757,15.235 26.934,23.412c4.322,4.323 9.931,9.653 12.674,15.139c2.005,4.011 4.009,8.795 6.337,12.675c2.483,4.138 2.156,10.336 2.817,14.963c0.465,3.258 0,6.911 0,10.21l0,4.929c0,0 0.176,-2.698 0.176,-4.049c0,-2.739 0.577,-5.718 0.88,-8.45c0.887,-7.978 3.498,-15.771 4.225,-23.765c1.333,-14.665 2.288,-29.609 2.288,-44.36l0,-11.619c0,-0.628 -0.683,-3.365 -0.176,-3.872c0.38,-0.38 2.955,2.742 3.169,2.992c3.254,3.797 6.439,7.528 9.154,11.795c8.024,12.608 15.77,26.617 18.484,41.544c0.751,4.131 2.816,8.204 2.816,12.498" style="fill:none;stroke:rgb(255,7,0);stroke-width:6px;"/>
        <path d="M83.23,177.071c-2.492,2.492 -3.88,5.026 -5.636,7.954c-1.582,2.635 -3.425,5.262 -5.136,7.828c-1.434,2.151 -3.03,4.076 -4.446,6.2c-1.293,1.94 -3.387,3.39 -4.634,5.386c-1.335,2.135 -2.777,4.25 -4.259,6.325c-0.194,0.272 -0.882,1.754 -1.252,1.754" style="fill:none;stroke:rgb(255,7,0);stroke-width:6px;"/>
        <path d="M138.625,86.22c0,2.613 0.756,4.681 1.258,7.189c0.567,2.838 0.785,5.756 1.168,8.627c0.797,5.974 0.449,12.211 0.449,18.242c0,3.832 0.398,9.45 -1.078,12.401" style="fill:none;stroke:rgb(255,7,0);stroke-width:6px;"/>
        <path d="M166.454,108.11c6.72,-0.32 13.004,-1.243 19.34,-3.547c4.977,-1.81 8.705,-5.414 12.588,-8.812c5.16,-4.515 10.121,-9.205 14.992,-14.076c4.809,-4.809 9.18,-10.584 12.016,-16.822c1.213,-2.669 2.632,-5.817 2.632,-8.812" style="fill:none;stroke:rgb(255,7,0);stroke-width:6px;"/>
        <path d="M222.381,103.097c6.483,-1.853 12.726,-5.536 18.539,-8.927c2.007,-1.17 4.066,-2.133 5.951,-3.547c0.575,-0.432 1.014,-1.096 1.602,-1.488c0.23,-0.153 0.782,-0.458 0.687,-0.458" style="fill:none;stroke:rgb(255,7,0);stroke-width:6px;"/>
        <path d="M73.169,245.381c-0.873,1.6 -1.91,2.705 -2.737,4.152c-0.884,1.546 -1.232,3.602 -1.793,5.285c-0.793,2.38 -0.661,4.868 -0.661,7.361c0,3.861 2.762,12.83 8.305,8.871c0.588,-0.42 1.258,-0.828 1.699,-1.416c3.966,-5.289 4.473,-13.738 2.17,-19.724c-0.796,-2.071 -1.704,-4.535 -3.303,-6.134c-0.482,-0.482 -0.756,-1.321 -1.415,-1.321" style="fill:none;stroke:rgb(255,7,0);stroke-width:6px;"/>
        <path d="M108.086,217.541c-3.982,6.126 -5.169,13.667 -3.208,20.856c0.665,2.44 2.162,4.462 4.246,5.851c0.659,0.439 2.142,0.858 2.831,0.283c1.597,-1.33 1.703,-3.323 2.077,-5.19c1.092,-5.463 -0.415,-10.726 -2.077,-15.949c-0.562,-1.768 -1.133,-3.532 -1.887,-5.19c-0.126,-0.278 -0.57,-1.605 -0.944,-1.605" style="fill:none;stroke:rgb(255,7,0);stroke-width:6px;"/>
        <path d="M139.323,268.313c0.892,4.104 2.904,7.886 5.285,11.324c1.613,2.331 3.301,4.602 5.096,6.795c2.002,2.448 4.335,5.991 7.55,6.795c0.498,0.125 1.922,0.897 2.453,0.472c1.572,-1.258 1.227,-4.862 1.227,-6.606c0,-1.526 -0.342,-2.904 -0.849,-4.341c-0.75,-2.124 -1.978,-4.014 -3.114,-5.946c-3.657,-6.217 -9.432,-13.023 -17.082,-13.023" style="fill:none;stroke:rgb(255,7,0);stroke-width:6px;"/>
        <path d="M138.662,183.096c-1.316,3.95 -2.43,7.913 -3.303,11.985c-1.12,5.228 -0.056,11.013 2.549,15.571c1.685,2.95 6.988,4.52 8.776,0.944c1.431,-2.863 1.003,-7.408 0.378,-10.381c-0.68,-3.228 -2.151,-6.514 -3.492,-9.532c-1.146,-2.578 -2.326,-5.123 -3.586,-7.644c-0.202,-0.404 -1.157,-2.548 -1.699,-2.548" style="fill:none;stroke:rgb(255,7,0);stroke-width:6px;"/>
        <path d="M108.181,286.621c-2.68,4.628 -3.257,9.639 -3.587,14.911c-0.295,4.734 -0.277,9.204 2.171,13.4c1.583,2.715 3.077,5.953 5.757,7.739c0.834,0.556 3.024,1.116 3.869,0.377c1.898,-1.661 1.953,-5.359 2.17,-7.644c0.709,-7.441 -1.677,-13.454 -4.435,-20.195c-1.042,-2.548 -2.209,-5.118 -4.058,-7.173c-0.615,-0.683 -1.015,-1.321 -1.982,-1.321" style="fill:none;stroke:rgb(255,7,0);stroke-width:6px;"/>
        <path d="M66.846,300.493c0.547,5.2 -0.849,10.502 -0.849,15.76c0,5.296 1.323,10.071 4.058,14.628c0.957,1.597 1.853,3.327 3.68,4.058c1.214,0.486 2.967,0.024 4.058,-0.472c4.777,-2.171 5.463,-9.022 4.247,-13.684c-1.359,-5.21 -4.021,-10.275 -6.889,-14.816c-1.781,-2.819 -3.346,-5.751 -5.474,-8.305c-0.525,-0.63 -1.007,-1.698 -1.887,-1.698" style="fill:none;stroke:rgb(255,7,0);stroke-width:6px;"/>
        <path d="M167.997,231.948c1.534,3.834 3.454,7.517 5.157,11.263c2.046,4.501 3.995,9.399 9.091,10.855c0.844,0.242 4.436,1.111 5.021,0.136c2.633,-4.388 1.166,-9.727 -1.629,-13.569c-4.586,-6.306 -10.411,-10.856 -18.318,-10.856" style="fill:none;stroke:rgb(255,7,0);stroke-width:6px;"/>
        <path d="M221.127,219.466c-0.312,0.205 -1.179,0.763 -1.46,0.999c-0.264,0.221 -0.239,1.043 -0.308,1.384c-0.314,1.57 -0.23,3.165 -0.23,4.766c0,5.293 3.915,11.448 7.533,15.066c1.721,1.721 4.533,3.575 7.149,2.921c3.237,-0.809 3.759,-5.812 3.075,-8.379c-1.422,-5.331 -6.499,-9.771 -10.685,-12.991c-0.951,-0.731 -3.198,-2.767 -4.459,-2.767" style="fill:none;stroke:rgb(255,7,0);stroke-width:6px;"/>
        <path d="M251.568,203.861c-0.91,7.732 0.822,15.576 5.919,21.6c1.555,1.838 5.142,5.327 8.071,3.998c2.53,-1.148 2.307,-5.366 2.307,-7.61c0,-8.598 -8.672,-14.714 -15.528,-18.142" style="fill:none;stroke:rgb(255,7,0);stroke-width:6px;"/>
        <path d="M219.59,159.43c-1.549,1.858 -1.384,3.429 -1.384,5.765c0,5.864 3.295,10.708 7.149,14.913c2.018,2.201 3.952,3.92 7.072,3.92c0.494,0 1.386,0.184 1.845,0c2.248,-0.899 1.946,-6.155 1.384,-7.84c-1.716,-5.149 -5.14,-9.396 -8.917,-13.145c-1.433,-1.422 -3.464,-4.151 -5.688,-4.151" style="fill:none;stroke:rgb(255,7,0);stroke-width:6px;"/>
        <path d="M169.701,146.746c2.858,6.574 10.425,10.486 17.065,12.146c1.755,0.438 5.918,1.283 7.457,0c1.692,-1.411 0.72,-4.122 -0.308,-5.535c-3.049,-4.193 -7.005,-6.276 -12.068,-7.226c-3.522,-0.66 -7.103,-1.153 -10.685,-1.153" style="fill:none;stroke:rgb(255,7,0);stroke-width:6px;"/>
        <path d="M184.23,178.186c0.149,2.839 -0.488,6.271 0.615,8.917c0.751,1.803 1.842,3.485 2.998,5.074c0.524,0.721 1.134,1.442 1.768,2.075c1.599,1.599 7.745,4.861 8.532,0.923c0.896,-4.478 -1.4,-8.396 -4.458,-11.454c-1.334,-1.334 -2.33,-2.783 -3.921,-3.844c-1.255,-0.837 -3.791,-2.69 -5.381,-2.69" style="fill:none;stroke:rgb(255,7,0);stroke-width:6px;"/>
        <path d="M201.987,139.059c1.762,0.686 3.19,1.796 4.919,2.537c2.033,0.871 4.491,1.237 6.688,1.384c2.667,0.178 5.237,-0.127 7.841,-0.615c3.207,-0.602 6.957,-1.855 9.609,-3.844c0.755,-0.566 2.319,-2.056 1.537,-3.228c-1.359,-2.038 -4.674,-2.515 -6.841,-2.921c-3.726,-0.699 -8.208,-1.283 -11.992,-0.615c-2.865,0.505 -5.599,1.477 -8.302,2.459c-1.499,0.545 -3.216,1.141 -4.305,2.23" style="fill:none;stroke:rgb(255,7,0);stroke-width:6px;"/>
        <path d="M255.667,161.039c0.554,2.215 1.963,3.208 3.318,4.902c3.775,4.718 9.096,8.519 14.328,11.462c1.86,1.046 5.046,3.607 7.466,2.639c1.416,-0.566 1.508,-2.596 1.508,-3.845c0,-4.273 -3.277,-7.548 -6.485,-9.954c-2.496,-1.872 -5.161,-2.859 -7.994,-4.073c-3.765,-1.613 -8.211,-2.186 -12.291,-2.186" style="fill:none;stroke:rgb(255,7,0);stroke-width:6px;"/>
        <path d="M254.989,138.643c1.729,-0.488 2.406,0.473 3.846,1.432c1.082,0.722 2.196,1.105 3.393,1.584c5.303,2.121 11.261,4.532 17.118,3.695c0.76,-0.109 1.546,-0.317 2.262,-0.603c0.495,-0.198 1.026,-0.398 1.433,-0.754c2.958,-2.588 -2.774,-5.357 -4.6,-6.108c-0.608,-0.251 -1.252,-0.503 -1.885,-0.679c-4.656,-1.294 -9.603,-2.384 -14.479,-2.036c-2.355,0.168 -4.734,1.734 -7.013,1.734" style="fill:none;stroke:rgb(255,7,0);stroke-width:6px;"/>
        <path d="M284.021,121.525c1.318,2.277 3.653,3.062 5.882,4.373c4.86,2.859 10.145,5.43 15.912,5.43c1.786,0 3.884,0.274 5.429,-0.83c1.847,-1.318 0.982,-3.542 -0.377,-4.901c-2.367,-2.367 -6.183,-3.507 -9.351,-4.298c-2.576,-0.645 -5.029,-1.056 -7.691,-1.056c-2.562,0 -4.893,0.395 -7.391,0.603c-0.876,0.073 -2.15,-0.018 -2.94,0.377" style="fill:none;stroke:rgb(255,7,0);stroke-width:6px;"/>
        <path d="M307.097,148.823c2.692,5.684 8.621,9.045 13.95,11.915c1.628,0.876 3.687,1.809 5.581,1.809c0.378,0 1.105,0.144 1.433,-0.075c1.659,-1.107 3.088,-4.755 1.96,-6.636c-2.347,-3.913 -7.633,-6.541 -11.764,-7.918c-3.628,-1.209 -6.933,-1.433 -10.708,-1.433" style="fill:none;stroke:rgb(255,7,0);stroke-width:6px;"/>
        <path d="M313.356,177.554c-0.725,0.725 -2.16,1.952 -2.413,3.092c-1.497,6.735 4.874,11.058 9.049,15.232c2.303,2.304 7.002,6.766 10.783,5.505c1.013,-0.337 1.056,-2.193 1.056,-3.016c0,-3.048 -1.185,-5.548 -2.866,-8.069c-1.326,-1.99 -2.906,-3.811 -4.6,-5.505c-2.717,-2.717 -5.662,-5.557 -9.35,-6.787" style="fill:none;stroke:rgb(255,7,0);stroke-width:6px;"/>
        <path d="M294.126,205.983c0,3.814 1.026,6.426 2.715,9.804c1.109,2.217 2.437,4.279 3.921,6.259c1.692,2.255 4.238,5.2 7.013,6.032c2.245,0.674 4.185,0.519 4.902,-2.111c0.235,-0.862 0.314,-1.68 0.377,-2.564c0.089,-1.249 0.248,-2.679 0,-3.921c-1.265,-6.326 -7.909,-10.825 -13.347,-13.272c-1.524,-0.686 -3.25,-2.112 -4.977,-2.112" style="fill:none;stroke:rgb(255,7,0);stroke-width:6px;"/>
        <path d="M97.678,369.069c1.412,3 2.679,5.796 4.404,8.671c2.053,3.422 7.741,9.76 12.526,7.846c0.955,-0.382 1.207,-1.796 1.514,-2.615c1.118,-2.982 1.377,-6.194 -0.55,-8.947c-1.795,-2.564 -4.384,-4.572 -7.02,-6.194c-2.752,-1.694 -6.001,-3.166 -9.222,-3.166" style="fill:none;stroke:rgb(255,7,0);stroke-width:6px;"/>
        <path d="M120.309,347.374c-0.655,2.293 -0.094,4.414 0.459,6.627c1.507,6.026 6.619,13.034 13.713,11.744c1.818,-0.33 2.851,-1.995 3.019,-3.674c0.315,-3.15 -1.037,-5.782 -3.15,-8.07c-1.538,-1.667 -3.136,-3.156 -4.986,-4.462c-1.495,-1.055 -3.17,-1.683 -4.79,-2.493c-1.03,-0.515 -2.432,-1.444 -3.609,-1.444" style="fill:none;stroke:rgb(255,7,0);stroke-width:6px;"/>
        <path d="M153.865,413.728c0.796,1.793 1.886,2.728 3.152,4.153c4.405,4.955 10.566,7.364 16.61,9.689c2.181,0.839 4.339,1.384 6.69,1.384c0.917,0 2.047,0.225 2.845,-0.308c0.572,-0.381 0.539,-1.338 0.539,-1.922c0,-1.876 -0.617,-2.984 -1.615,-4.537c-3.413,-5.309 -8.75,-8.963 -14.764,-10.842c-2.607,-0.815 -7.374,-1.272 -10.074,-0.462c-1.018,0.306 -2.238,1.615 -3.23,1.615" style="fill:none;stroke:rgb(255,7,0);stroke-width:6px;"/>
        <path d="M164.707,375.434c2.714,8.595 11.856,15.998 20.455,18.147c1.993,0.499 4.094,0.616 6.151,0.616c0.836,0 1.656,0.1 2.384,-0.385c2.794,-1.863 1.514,-5.423 0.154,-7.69c-3.044,-5.072 -9.197,-8.149 -14.533,-10.15c-1.849,-0.693 -3.695,-1.547 -5.691,-1.769c-1.78,-0.197 -3.989,-0.197 -5.767,0c-0.511,0.057 -0.984,0.385 -1.461,0.385" style="fill:none;stroke:rgb(255,7,0);stroke-width:6px;"/>
        <path d="M169.244,328.296c1.53,1.883 1.839,4.201 2.845,6.382c1.168,2.53 2.79,5.097 4.768,7.075c3.374,3.374 7.026,5.043 11.457,6.613c2.453,0.869 5.469,1.601 8.152,1.154c1.131,-0.189 0.989,-2.443 1.076,-3.23c0.478,-4.303 -1.544,-7.804 -4.921,-10.458c-2.832,-2.225 -6.048,-3.485 -9.228,-5.075c-2.181,-1.091 -4.278,-2.193 -6.613,-2.922c-2.59,-0.81 -5.467,-0.616 -8.151,-0.616" style="fill:none;stroke:rgb(255,7,0);stroke-width:6px;"/>
        <path d="M211.763,282.629c-0.42,2.524 -0.083,4.703 0.483,7.156c1.832,7.939 5.14,14.667 12.061,19.458c1.979,1.37 4.124,2.46 6.512,2.895c0.699,0.126 1.941,0.526 2.654,0.241c0.953,-0.382 1.371,-1.872 1.527,-2.734c0.511,-2.81 0.33,-6.051 -0.723,-8.684c-2.492,-6.229 -7.904,-12.02 -13.589,-15.518c-1.934,-1.19 -4.624,-2.975 -6.995,-2.975" style="fill:none;stroke:rgb(255,7,0);stroke-width:6px;"/>
        <path d="M254.458,276.438c-0.997,3.39 -1.34,8.546 -0.482,11.98c0.757,3.03 2.228,5.501 3.618,8.282c1.186,2.372 2.518,5.487 4.664,7.156c0.641,0.499 1.628,1.013 2.412,1.125c0.716,0.103 1.755,0.518 2.492,0.242c3.236,-1.213 3.87,-6.762 3.458,-9.649c-0.176,-1.23 -1.073,-2.365 -1.608,-3.457c-1.686,-3.441 -4.29,-6.783 -6.995,-9.488c-1.457,-1.456 -3.107,-2.632 -4.744,-3.86c-0.577,-0.432 -0.891,-0.884 -1.608,-0.884" style="fill:none;stroke:rgb(255,7,0);stroke-width:6px;"/>
        <path d="M234.438,346.792c0.14,1.545 0.107,3.085 0.482,4.583c1.223,4.891 6.384,11.134 11.337,12.785c1.88,0.626 5.955,2.005 7.639,0.321c2.823,-2.823 1.078,-5.905 -0.885,-8.523c-3.321,-4.428 -7.271,-7.566 -12.704,-8.925c-1.414,-0.353 -2.892,-0.964 -4.342,-0.964" style="fill:none;stroke:rgb(255,7,0);stroke-width:6px;"/>
        <path d="M278.741,339.314c-0.272,4.077 -0.98,8.401 -0.241,12.463c0.697,3.836 3.488,7.996 6.03,10.855c1.519,1.709 2.373,3.092 4.663,3.779c2.511,0.753 5.643,1.333 7.559,-0.965c1.179,-1.415 0.804,-4.256 0.804,-5.95c0,-6.701 -5.399,-14.099 -10.614,-18.011c-1.473,-1.105 -4.176,-4.02 -6.191,-4.02" style="fill:none;stroke:rgb(255,7,0);stroke-width:6px;"/>
        <path d="M291.192,257.381c-0.341,3.241 0.803,5.629 2.157,8.506c0.942,2.001 1.559,4.119 2.712,6.041c2.555,4.257 8.129,8.779 13.499,7.705c2.634,-0.527 2.836,-3.873 2.836,-5.979c0,-5.877 -5.12,-10.13 -9.493,-13.191c-2.975,-2.083 -6.341,-4.297 -9.862,-5.177" style="fill:none;stroke:rgb(255,7,0);stroke-width:6px;"/>
        <path d="M329.692,253.527c-0.706,4.234 0.746,8.505 2.86,12.155c1.406,2.429 3.033,4.575 4.886,6.674c0.573,0.649 1.155,1.257 1.787,1.847c2.47,2.305 7.136,7.349 10.19,3.278c0.359,-0.48 0.629,-0.928 0.834,-1.49c0.29,-0.798 0.417,-1.715 0.417,-2.562c0,-1.127 0.132,-2.338 0,-3.456c-0.309,-2.626 -1.934,-5.194 -3.456,-7.27c-2.568,-3.501 -5.778,-6.911 -9.713,-8.878c-1.704,-0.852 -4.236,-2.384 -6.197,-2.384" style="fill:none;stroke:rgb(255,7,0);stroke-width:6px;"/>
        <path d="M353.884,220.396c0.183,2.743 -0.637,5.778 -0.06,8.521c0.231,1.098 0.659,2.154 1.013,3.218c0.791,2.372 2.36,4.874 3.873,6.853c1.075,1.405 2.268,2.684 3.516,3.932c1.318,1.319 3.313,3.952 5.542,3.456c0.75,-0.166 1.038,-0.868 1.43,-1.43c1.035,-1.484 0.921,-4.442 0.715,-6.197c-0.23,-1.948 -1.107,-3.509 -2.145,-5.124c-2.177,-3.386 -4.528,-6.53 -7.687,-9.057c-1.096,-0.877 -2.968,-2.861 -4.469,-2.861" style="fill:none;stroke:rgb(255,7,0);stroke-width:6px;"/>
        <path d="M351.669,180.524c0.66,1.76 0.193,3.35 0.36,5.188c0.165,1.816 1.395,3.507 2.234,5.044c2.13,3.905 5.55,7.159 9.8,8.575c2.117,0.706 4.802,0.671 5.837,-1.657c1.418,-3.19 -0.003,-5.596 -1.873,-8.215c-2.508,-3.511 -6.03,-6.766 -10.161,-8.143c-1.241,-0.413 -2.87,-1.225 -4.179,-1.225" style="fill:none;stroke:rgb(255,7,0);stroke-width:6px;"/>
        <path d="M342.806,145.575c2.322,2.967 5.044,5.346 8.07,7.566c4.407,3.232 9.964,8.274 15.926,7.422c1.675,-0.239 2.371,-4.009 2.017,-5.26c-1.075,-3.806 -5.655,-6.562 -9.007,-7.999c-4.608,-1.975 -9.803,-2.45 -14.773,-2.45" style="fill:none;stroke:rgb(255,7,0);stroke-width:6px;"/>
        <path d="M388.578,205.34c0,3.489 -0.54,7.512 0.494,10.871c0.76,2.471 1.58,4.85 2.823,7.13c0.96,1.759 2.853,4.634 4.801,5.364c2.891,1.085 5.406,1.404 7.411,-1.27c0.355,-0.472 0.71,-1.095 0.777,-1.694c0.77,-6.928 -1.985,-12.071 -6.635,-17.012c-1.628,-1.729 -4.316,-4.942 -6.989,-4.942" style="fill:none;stroke:rgb(255,7,0);stroke-width:6px;"/>
        <path d="M392.211,253.549c-0.492,2.948 -0.384,5.845 0.199,8.76c0.374,1.873 0.957,3.894 1.891,5.575c1.176,2.117 2.359,4.463 4.48,5.675c5.234,2.991 7.378,-5.636 6.371,-9.159c-0.989,-3.463 -4.408,-6.399 -6.869,-8.86c-1.104,-1.104 -4.149,-3.783 -5.774,-3.783" style="fill:none;stroke:rgb(255,7,0);stroke-width:6px;"/>
        <path d="M416.203,292.275c-1.091,3.273 -1.792,5.733 -1.792,9.258c0,2.375 -0.014,4.72 0.199,7.069c0.354,3.897 4.77,10.362 9.059,6.073c3.854,-3.854 2.948,-12.426 1.096,-16.925c-0.669,-1.623 -1.757,-4.878 -3.883,-4.878" style="fill:none;stroke:rgb(255,7,0);stroke-width:6px;"/>
        <path d="M371.006,280.926c0.197,4.538 0.687,8.161 2.588,12.345c1.238,2.723 2.249,5.632 3.683,8.262c1.456,2.669 3.269,5.623 5.974,7.168c0.675,0.386 2.508,0.916 3.285,0.399c0.765,-0.51 1.356,-1.637 1.792,-2.39c0.946,-1.631 0.498,-4.277 0.498,-6.073c0,-6.714 -3.146,-13.153 -8.363,-17.421c-1.689,-1.382 -4.628,-3.186 -6.869,-3.186" style="fill:none;stroke:rgb(255,7,0);stroke-width:6px;"/>
        <path d="M310.168,316.062c1.179,3.538 0.93,7.054 2.652,10.497c0.969,1.939 1.948,3.84 3.205,5.635c1.777,2.539 9.003,8.742 10.055,2.431c1.015,-6.088 -3.845,-11.533 -7.624,-15.69c-1.354,-1.49 -4.177,-4.752 -6.409,-4.752" style="fill:none;stroke:rgb(255,7,0);stroke-width:6px;"/>
        <path d="M351.605,318.272c1.699,3.551 3.673,6.797 5.746,10.055c1.319,2.072 2.663,4.046 4.199,5.967c1.27,1.587 2.865,4.113 4.862,4.862c1.287,0.482 3.221,0.908 4.641,0.552c1.592,-0.397 1.683,-4.859 1.437,-5.967c-1.397,-6.285 -7.553,-11.898 -12.818,-15.138c-1.926,-1.185 -4.585,-2.873 -6.962,-2.873" style="fill:none;stroke:rgb(255,7,0);stroke-width:6px;"/>
        <path d="M401.22,332.971c-0.132,2.116 -0.823,4.031 -1.331,6.061c-0.538,2.156 -0.433,4.883 -0.295,7.096c0.114,1.831 0.579,3.687 0.961,5.469c0.716,3.342 0.987,6.934 4.213,8.87c1.15,0.689 4.341,2.054 5.617,0.96c1.846,-1.582 1.824,-4.811 2.069,-7.021c0.596,-5.361 -0.529,-11.842 -3.843,-16.261c-1.228,-1.638 -2.617,-3.208 -4.065,-4.656c-0.294,-0.294 -0.816,-0.299 -1.035,-0.518" style="fill:none;stroke:rgb(255,7,0);stroke-width:6px;"/>
        <path d="M389.616,383.601c-0.12,1.679 -0.74,3.147 -0.961,4.804c-0.282,2.112 -0.074,4.373 -0.074,6.504c0,2.543 -0.169,5.151 0,7.687c0.176,2.644 0.801,6.086 2.217,8.352c1.027,1.643 4.043,0.984 5.1,-0.074c0.494,-0.493 0.903,-0.946 1.257,-1.552c1.13,-1.938 1.256,-4.325 1.256,-6.504c0,-4.509 -0.772,-8.877 -3.178,-12.787c-0.879,-1.429 -2.274,-4.221 -3.917,-4.878" style="fill:none;stroke:rgb(255,7,0);stroke-width:6px;"/>
        <path d="M415.78,388.109c0.604,2.263 -0.308,4.114 -0.886,6.283c-0.6,2.248 -0.611,4.712 -0.74,7.022c-0.127,2.299 0,4.643 0,6.947c0,2.905 1.926,6.68 5.026,7.244c1.344,0.244 2.652,0.304 3.696,-0.739c1.683,-1.683 2.137,-4.22 2.365,-6.505c0.497,-4.965 0.038,-10.123 -1.256,-14.93c-0.525,-1.95 -1.713,-6.286 -4.065,-6.874" style="fill:none;stroke:rgb(255,7,0);stroke-width:6px;"/>
        <path d="M320.782,387.247c0.676,1.802 0.23,3.474 0.653,5.308c0.648,2.808 1.595,5.448 2.94,8.003c1.337,2.541 2.45,5.301 4.083,7.677c2.08,3.025 7.777,10.262 11.189,4.9c0.32,-0.504 0.522,-0.776 0.653,-1.388c0.22,-1.028 0.327,-2.138 0.327,-3.185c0,-1.5 0.212,-3.171 0,-4.655c-0.285,-1.993 -1.645,-4.077 -2.614,-5.799c-2.435,-4.329 -5.253,-7.637 -9.31,-10.535c-2.335,-1.668 -4.952,-3.429 -7.921,-3.429" style="fill:none;stroke:rgb(255,7,0);stroke-width:6px;"/>
        <path d="M347.242,361.277c-0.201,3.609 -0.712,7.874 0,11.433c0.471,2.357 1.341,4.778 2.205,7.024c1.061,2.758 2.971,6.612 6.125,7.513c5.784,1.652 8.106,-6.776 7.023,-11.107c-1.178,-4.713 -5.137,-8.625 -8.983,-11.27c-2.023,-1.39 -3.46,-3.675 -6.125,-3.675" style="fill:none;stroke:rgb(255,7,0);stroke-width:6px;"/>
        <path d="M363.983,432.898c0.509,3.224 1.89,6.079 3.43,8.902c1.012,1.854 2.097,3.805 3.43,5.472c1.912,2.39 4.315,4.246 7.513,4.246c0.815,0 1.703,0.174 2.369,-0.408c0.759,-0.664 1.263,-2.3 1.47,-3.267c1.77,-8.262 -6.192,-16.905 -14.373,-16.905" style="fill:none;stroke:rgb(255,7,0);stroke-width:6px;"/>
        <path d="M326.662,450.538c0,3.163 2.469,5.31 4.328,7.677c3.053,3.885 6.281,8.124 11.352,9.391c3.746,0.937 9.718,1.686 9.718,-3.511c0,-0.723 0.12,-1.526 -0.163,-2.205c-1,-2.4 -3.181,-4.488 -4.982,-6.289c-1.868,-1.867 -4.221,-3.071 -6.452,-4.409c-3.539,-2.124 -6.76,-2.532 -10.78,-2.532" style="fill:none;stroke:rgb(255,7,0);stroke-width:6px;"/>
        <path d="M274.559,393.862c2.607,10.428 7.881,19.391 18.456,23.356c3.128,1.173 9.394,3.134 12.005,0c0.472,-0.566 0.433,-1.273 0.49,-1.96c0.084,-1 0.332,-2.09 0.164,-3.103c-0.334,-2.001 -1.954,-4.071 -2.94,-5.798c-0.916,-1.603 -2.333,-3 -3.675,-4.247c-6.505,-6.04 -14.345,-8.738 -23.112,-8.738" style="fill:none;stroke:rgb(255,7,0);stroke-width:6px;"/>
        <path d="M276.927,448.007c0.581,2.602 3.4,4.582 5.39,6.288c1.306,1.12 2.519,2.421 3.838,3.593c3.763,3.345 9.431,5.638 14.21,6.942c3.071,0.837 11.118,1.608 10.045,-3.757c-0.453,-2.264 -3.485,-5.04 -5.145,-6.533c-1.589,-1.43 -3.298,-2.943 -5.063,-4.165c-3.044,-2.108 -6.169,-2.852 -9.555,-4.083c-3.545,-1.29 -8.503,-1.612 -12.25,-1.144c-0.727,0.091 -1.574,0.49 -2.287,0.49" style="fill:none;stroke:rgb(255,7,0);stroke-width:6px;"/>
        <path d="M211.822,439.457c2.728,1.667 4.736,4.069 7.342,5.893c4.768,3.338 10.685,5.751 16.327,7.053c2.455,0.566 8.016,2.418 9.95,0c2.771,-3.464 -2.796,-7.552 -5.12,-9.178c-8.107,-5.675 -17.992,-6.087 -27.533,-6.087" style="fill:none;stroke:rgb(255,7,0);stroke-width:6px;"/>
        <path d="M225.54,399.654c0.899,3.447 1.932,6.434 3.671,9.565c1.728,3.109 3.83,4.833 6.666,6.859c1.367,0.976 2.753,2.204 4.444,2.415c1.449,0.181 4.532,1.388 5.12,-0.966c2.62,-10.48 -9.906,-18.549 -19.225,-18.549" style="fill:none;stroke:rgb(255,7,0);stroke-width:6px;"/>
        <path d="M408.853,442.486c-3.886,5.299 -6.186,11.916 -4.775,18.575c0.533,2.515 1.191,6.868 4.513,6.868c0.515,0 1.105,0.083 1.57,-0.197c0.58,-0.348 1.192,-0.719 1.701,-1.177c5.082,-4.574 4.015,-13.039 2.223,-18.771c-0.566,-1.811 -1.204,-3.399 -2.485,-4.84c-0.485,-0.545 -0.574,-0.915 -1.308,-0.915" style="fill:none;stroke:rgb(255,7,0);stroke-width:6px;"/>
    </g>
</svg>
