<?xml version="1.0" encoding="UTF-8" standalone="no"?>
<!DOCTYPE svg PUBLIC "-//W3C//DTD SVG 1.1//EN" "http://www.w3.org/Graphics/SVG/1.1/DTD/svg11.dtd">
<svg width="100%" height="100%" viewBox="0 0 529 446" version="1.1" xmlns="http://www.w3.org/2000/svg" xmlns:xlink="http://www.w3.org/1999/xlink" xml:space="preserve" xmlns:serif="http://www.serif.com/" style="fill-rule:evenodd;clip-rule:evenodd;stroke-linecap:round;stroke-linejoin:round;stroke-miterlimit:1.5;">
    <g>
        <path d="M499.713,11.422C503.916,39.437 518.22,63.907 522.189,91.693C526.457,121.568 521.501,172.081 516.57,201.666C514.546,213.812 505.342,224.484 503.326,236.584C500.592,252.986 494.203,269.824 488.074,285.148C479.545,306.47 471.561,339.388 455.163,355.787C447.005,363.945 425.445,386.859 415.829,390.705C408.773,393.528 399.408,398.606 393.353,403.147C385.865,408.764 373.109,408.917 364.456,412.379C335.367,424.014 307.087,430.502 276.157,435.657C254.293,439.301 227.143,442.875 204.715,439.671C158.854,433.12 116.7,410.183 81.097,383.481C73.858,378.052 65.006,373.411 58.621,367.025C51.091,359.496 41.695,349.989 32.934,344.148C26.432,339.813 15.972,330.694 12.464,323.678C9.329,317.408 2.966,308.024 5.641,299.998C8.553,291.262 18.328,287.521 25.308,281.937C42.036,268.554 66.99,262.697 86.716,254.243C103.845,246.902 119.347,239.668 135.28,230.563C154.967,219.313 172.642,202.969 193.477,194.04C214.174,185.169 234.142,170.845 253.681,159.122C292.391,135.895 331.525,113.781 368.87,88.884C399.321,68.583 431.11,50.602 461.584,30.286C471.157,23.904 482.191,18.176 492.489,13.027C495.971,11.286 499.229,9.055 502.523,7.408C503.703,6.818 507.068,5 506.938,5" style="fill:none;stroke:#ff8400;stroke-width:10px;"/>
        <path d="M31.832,290.365C40.607,296.946 45.524,305.698 53.728,312.26C63.807,320.324 75.74,326.913 85.007,336.18C95.86,347.034 105.327,359.311 119.413,366.355C132.929,373.113 148.223,377.97 163.02,381.258C168.034,382.372 172.951,383.576 177.923,384.57C179.697,384.925 181.491,385.237 183.259,385.49C184.051,385.603 185.651,385.674 185.651,385.674C185.651,385.674 183.096,384.045 181.787,383.282C178.719,381.492 175.514,380.173 172.404,378.498C162.293,373.054 150.436,370.206 139.653,366.355C135.804,364.98 131.985,363.668 128.061,362.491C126.815,362.117 125.627,361.927 124.381,361.571C123.664,361.366 122.173,361.203 122.173,361.203L126.773,361.203C130.239,361.203 133.626,361.709 137.077,361.939C147.13,362.609 157.463,365.048 167.62,363.779C172.697,363.144 176.66,359.845 180.683,356.971C190.085,350.255 197.432,336.714 200.739,325.692C204.962,311.615 207.496,297.491 210.674,283.189C212.346,275.668 215.781,268.465 217.666,260.926C221.907,243.962 226.662,226.952 231.65,210.328C234.609,200.462 235.681,189.386 240.297,180.153C242.105,176.538 244.314,170.929 248.393,169.297C252.463,167.669 255.44,170.268 257.593,173.713C261.318,179.673 264.703,185.542 267.896,191.929C270.035,196.206 271.104,200.921 273.232,205.176C280.85,220.411 289.629,235.026 297.151,250.071C298.912,253.592 300.046,258.001 302.119,261.11C304.869,265.234 308.559,271.764 308.559,276.934" style="fill:none;stroke:#ff8400;stroke-width:10px;"/>
        <path d="M192.989,358.844C192.421,360.794 191.122,363.291 190.895,365.336C190.089,372.589 190.184,382.597 195.083,388.476C197.532,391.415 200.889,393.59 203.983,395.91C206.877,398.081 209.927,400.151 213.407,401.145C225.016,404.462 238.781,402.519 250.682,401.669C259.03,401.072 267.432,400.622 275.811,400.622C277.691,400.622 279.728,400.419 281.569,400.726C281.748,400.756 283.035,400.597 283.035,400.831" style="fill:none;stroke:#ff8400;stroke-width:10px;"/>
        <path d="M287.763,400.315C294.8,396.629 302.241,393.574 309.016,389.405C312.86,387.039 317.277,385.66 320.835,382.813C325.123,379.383 330.371,377.261 333.564,372.471C339.02,364.287 341.254,353.489 340.156,343.604C339.292,335.823 335.71,328.338 332.996,321.101C328.13,308.125 320.118,296.165 313.448,283.937C311.23,279.87 308.936,275.708 306.856,271.549C306.181,270.198 305.373,268.922 304.697,267.571C304.604,267.386 303.477,265.382 303.447,265.412C302.801,266.057 305.184,269.91 305.493,270.526C308.082,275.704 310.943,280.81 313.789,285.869C321.228,299.094 327.569,312.956 334.701,326.329C338.827,334.065 341.715,344.267 349.93,348.831C355.4,351.87 363.94,353.199 370.046,351.673C372.233,351.126 374.216,350.001 376.411,349.513C377.209,349.336 378.032,349.119 378.797,348.831C379.179,348.688 379.934,348.377 379.934,348.377C379.934,348.377 378.948,348.63 378.57,348.945C377.714,349.658 376.68,350.064 375.729,350.65C373.251,352.175 370.773,353.741 368.228,355.196C363.726,357.768 359.89,361.121 355.726,364.174C350.674,367.88 344.882,370.693 339.588,374.062C336.579,375.977 333.041,378.176 330.382,380.54C329.515,381.311 328.588,382.29 327.541,382.813C326.962,383.103 325.722,383.495 325.722,383.495C325.722,383.495 326.511,383.168 326.859,382.927C327.744,382.314 328.637,381.674 329.473,380.995C332.076,378.879 335.194,377.181 337.997,375.312C345.908,370.038 354.362,364.877 362.772,360.424C365.932,358.751 368.659,356.625 371.524,354.514C372.697,353.65 373.767,352.598 375.047,351.9C375.526,351.638 376.957,350.991 376.411,350.991C375.089,350.991 373.574,352.643 372.546,353.377C368.911,355.974 365.369,358.806 361.863,361.56C354.583,367.281 346.784,372.571 338.679,377.13C333.792,379.879 328.407,381.902 323.677,384.859" style="fill:none;stroke:#ff8400;stroke-width:10px;"/>
        <path d="M382.003,347.223C385.781,342.814 388.442,337.238 392.5,333.18C399.45,326.231 406.765,319.089 413.086,311.503C416.257,307.699 418.237,302.565 420.448,298.143C424.415,290.209 429.134,283.053 430.264,274.012C430.886,269.037 432.617,263.785 434.354,259.152C434.94,257.589 436.691,253.454 435.581,251.79C433.806,249.128 432.749,251.942 432.446,253.562C431.839,256.796 431.684,260.043 430.946,263.242C430.727,264.19 428.776,269.866 429.446,266.514C430.187,262.809 429.014,258.814 427.265,255.607C426.113,253.494 425.254,251.449 423.72,249.608C418.489,243.331 409.645,240.632 402.316,237.884C399.767,236.928 397.425,235.438 394.954,234.339C387.924,231.215 382.009,226.896 375.595,222.887C366.819,217.402 357.76,211.857 348.465,207.209C329.52,197.737 310.085,189.392 290.796,180.624C281.986,176.62 272.036,172.076 264.348,166.309C262.819,165.163 259.539,163.897 258.485,162.492C258.054,161.917 256.805,159.902 256.168,159.902" style="fill:none;stroke:#ff8400;stroke-width:10px;"/>
        <path d="M432.184,247.16C436.371,243.392 439.821,238.983 443.189,234.491C447.279,229.039 451.864,224.015 455.474,218.239C463.644,205.168 468.043,190.117 473.518,175.882C476.68,167.66 480.492,158.927 482.22,150.288C482.826,147.255 483.501,144.262 484.011,141.203C484.151,140.367 484.419,139.607 484.523,138.771C484.585,138.276 485.035,137.364 485.035,137.364C485.035,137.364 485.095,138.221 485.035,138.643C484.882,139.714 484.734,140.759 484.651,141.843C484.418,144.871 484.439,148.22 483.755,151.184C481.517,160.885 478.981,170.24 475.821,179.721C473.011,188.151 468.826,196.113 465.712,204.419C459.399,221.254 453.184,237.832 444.085,253.43C441.179,258.413 438.727,263.797 436.279,269.042C435.594,270.512 434.235,274.927 432.696,275.697" style="fill:none;stroke:#ff8400;stroke-width:10px;"/>
        <path d="M466.109,29.973C473.625,36.806 474.865,45.733 476.765,55.231C479.919,70.999 483.758,86.519 484.658,102.721C485.055,109.862 484.658,117.139 484.658,124.295C484.658,126.705 484.614,129.257 484.395,131.662C484.318,132.508 484.263,133.307 484.263,134.161L484.263,135.345L484.263,132.451L484.263,125.084C484.263,117.613 482.716,110.176 482.29,102.721C481.604,90.714 481.511,78.667 480.712,66.676C480.311,60.667 480.069,54.499 478.475,48.654C477.462,44.938 476.712,41.162 475.186,37.603C474.699,36.466 474.026,34.26 472.819,33.657" style="fill:none;stroke:#ff8400;stroke-width:10px;"/>
        <path d="M268.184,155.551C297.35,154.225 326.645,153.704 355.531,150.494C361.631,149.816 367.952,150.851 374.073,150.341C389.218,149.079 404.445,149.151 419.585,147.889C432.143,146.843 444.621,145.502 457.128,144.365C460.787,144.032 468.13,145.01 470.92,142.219" style="fill:none;stroke:#ff8400;stroke-width:10px;"/>
        <path d="M110.807,286.006C115.537,282.177 120.064,278.653 124.175,274.168C125.195,273.056 126.23,271.984 127.235,270.867C127.435,270.644 128.363,269.713 128.363,269.498" style="fill:none;stroke:#ff8400;stroke-width:10px;"/>
        <path d="M150.428,273.121C152.678,267.947 155.005,263.011 157.998,258.223C158.684,257.125 159.428,256.107 160.092,255.002C160.167,254.876 160.509,253.875 160.655,253.875" style="fill:none;stroke:#ff8400;stroke-width:10px;"/>
        <path d="M175.876,254.116C178.507,249.073 180.426,243.708 182.882,238.574C183.716,236.83 185.7,234.214 185.7,232.212" style="fill:none;stroke:#ff8400;stroke-width:10px;"/>
        <path d="M257.008,240.926C254.824,243.984 251.497,246.394 249.936,249.907C244.064,263.119 243.354,277.235 244.547,291.555C244.67,293.028 245.247,294.595 245.558,296.045C246.118,298.661 246.251,301.538 247.242,304.015C248.999,308.41 254.188,311.181 258.692,309.179C259.9,308.642 261.169,307.699 262.172,306.822C266.722,302.841 268.269,297.241 269.581,291.555C271.229,284.413 271.717,276.525 269.918,269.328C268.634,264.193 266.258,259.505 264.305,254.622C262.633,250.441 260.904,246.275 259.141,242.161C258.652,241.02 258.05,238.007 256.447,238.007" style="fill:none;stroke:#ff8400;stroke-width:10px;"/>
        <path d="M251.507,341.397C252.31,344.287 253.416,348.38 253.416,351.388" style="fill:none;stroke:#ff8400;stroke-width:10px;"/>
        <path d="M297.533,339.826C298.616,343.074 300.003,346.902 300.003,350.378" style="fill:none;stroke:#ff8400;stroke-width:10px;"/>
        <path d="M341.67,271.84C344.921,273.613 346.44,276.646 348.646,279.531C349.857,281.114 351.501,282.175 352.671,283.735" style="fill:none;stroke:#ff8400;stroke-width:10px;"/>
        <path d="M345.248,248.944C347.481,250.304 349.663,251.747 351.598,253.506C352.148,254.006 353.05,254.465 353.297,255.205" style="fill:none;stroke:#ff8400;stroke-width:10px;"/>
        <path d="M336.045,169.987C342.901,170.299 349.754,170.16 356.601,170.541C361.011,170.786 365.848,171.169 369.966,172.753C375.081,174.72 379.81,178.68 381.949,183.814C383.447,187.409 383.454,190.436 379.737,192.294C372.455,195.935 364.06,193.018 357.154,190.174C351.485,187.84 345.663,185.862 340.47,182.523C337.717,180.754 334.794,178.655 332.727,176.071C332.09,175.275 331.068,174.171 331.068,173.121" style="fill:none;stroke:#ff8400;stroke-width:10px;"/>
        <path d="M366.467,129.129C370.051,128.105 373.74,128.175 377.387,127.103C379.183,126.574 381.011,126.12 382.79,125.526C383.379,125.33 384.254,124.626 384.817,124.626" style="fill:none;stroke:#ff8400;stroke-width:10px;"/>
        <path d="M411.159,99.635C414.095,98.834 417.865,97.608 420.953,97.608" style="fill:none;stroke:#ff8400;stroke-width:10px;"/>
        <path d="M407.782,85.676C409.813,82.372 412.395,81.812 415.549,79.709C421.639,75.649 427.076,70.688 434.124,68.339" style="fill:none;stroke:#ff8400;stroke-width:10px;"/>
        <path d="M25.542,282.112C32.263,286.592 37.159,293.608 42.2,299.657C43.751,301.519 44.887,303.821 46.641,305.543C55.46,314.197 66.286,321.685 75.736,330.084C82.273,335.895 88.732,341.647 95.502,347.186C102.367,352.802 109.083,358.506 116.268,363.732C118.041,365.021 120.166,365.826 122.043,366.952C122.751,367.377 124.101,368.019 124.375,368.84" style="fill:none;stroke:#ff8400;stroke-width:10px;"/>
        <path d="M104.681,352.87C109.692,354.123 114.207,356.858 119.081,358.631C121.911,359.659 124.928,360.28 127.847,361.01C144.291,365.121 162.469,363.02 178.563,358.631C180.26,358.168 181.918,357.101 183.447,356.251C187.687,353.896 193.211,350.997 195.719,346.609C196.939,344.475 198.308,342.347 199.1,339.972C199.198,339.678 199.803,336.341 199.851,336.341C200.227,336.341 199.913,337.097 199.851,337.468C199.636,338.763 198.959,339.965 198.599,341.224C197.731,344.261 197.11,347.306 196.345,350.366C194.812,356.5 193.103,362.793 192.213,369.024C191.643,373.012 190.256,377.523 191.086,381.672C191.769,385.086 194.379,386.926 196.47,389.436C199.124,392.62 202.795,395.213 206.113,397.701C207.823,398.983 209.74,400.035 211.497,401.207C212.108,401.614 212.85,401.962 213.501,402.334C213.843,402.529 214.897,402.96 214.503,402.96C212.42,402.96 211.073,402.247 209.243,401.332C204.326,398.874 199.346,396.344 194.342,394.069C182.278,388.586 169.537,384.485 157.651,378.541C151.571,375.502 145.593,372.534 139.618,369.275C137.514,368.127 135.37,367.049 133.357,365.768C132.487,365.215 130.727,364.14 130.727,364.14C130.727,364.14 131.821,364.043 132.355,364.14C133.306,364.313 134.26,364.842 135.11,365.268C137.978,366.701 140.794,368.258 143.751,369.525C154.13,373.973 164.227,377.79 175.683,377.79L182.57,377.79C183.372,377.79 184.686,378.021 185.2,377.164C186.235,375.44 184.567,374.109 183.322,373.157C180.125,370.712 176.424,370.276 172.552,370.276C171.252,370.276 170.172,370.311 168.921,370.652C168.397,370.795 166.883,371.189 167.418,371.278C173.274,372.254 179.675,370.036 184.574,367.021C186.653,365.742 188.722,364.37 190.209,362.387C190.249,362.334 191.469,360.335 191.086,360.259C187.875,359.616 184.95,361.165 182.07,362.262C179.867,363.101 177.731,363.773 175.433,364.266C174.491,364.467 172.805,364.305 172.177,365.142C170.507,367.368 173.311,370.851 174.431,372.531C178.422,378.517 183.171,384.22 188.957,388.559C206.019,401.356 226.715,404.338 247.562,404.338" style="fill:none;stroke:#ff8400;stroke-width:10px;"/>
        <path d="M256.882,404.742C264.721,404.742 272.352,404.648 279.944,402.577C284.132,401.435 288.014,399.505 292.071,398.029C298.196,395.802 305.612,394.518 311.019,390.775C316.062,387.284 321.778,385.06 326.718,381.355C328.202,380.243 329.852,379.281 331.374,378.216C331.931,377.825 332.469,377.448 332.998,377.025C333.187,376.873 333.89,376.7 333.648,376.7C331.953,376.7 330.245,378.778 328.884,379.731C327.473,380.719 326.348,381.958 324.986,382.98C323.389,384.177 321.212,384.932 319.464,385.903C316.865,387.347 313.84,388.097 311.127,389.259C308.235,390.499 305.416,391.914 302.465,393.049C294.655,396.053 287.411,399.573 279.295,401.603C272.144,403.39 264.238,404.718 256.882,405.284C254.386,405.476 251.783,405.623 249.303,405.933C248.427,406.043 247.597,406.15 246.704,406.15C246.343,406.15 245.261,406.15 245.622,406.15C252.968,406.15 260.798,403.949 267.926,402.252C273.771,400.86 279.698,399.726 285.466,398.029C299.073,394.027 312.438,387.575 325.094,381.247C334.796,376.396 343.828,371.05 352.162,364.032C354.213,362.305 356.201,360.479 357.901,358.402C357.942,358.351 359.164,356.802 359.092,356.777C358.121,356.454 356.963,357.381 356.168,357.752C354.224,358.659 352.263,359.539 350.322,360.459C349.458,360.868 348.665,361.412 347.831,361.866C347.505,362.044 346.857,362.779 346.857,362.408C346.857,361.985 347.704,361.367 347.94,361.108C348.442,360.556 352.223,355.999 349.564,356.886C346.384,357.946 342.8,360.605 340.144,362.624C339.362,363.218 338.547,363.768 337.762,364.357C337.496,364.556 337.262,364.796 337.004,365.006C336.807,365.168 336.259,365.701 336.463,365.548C337.964,364.422 339.143,362.863 340.577,361.65C342.204,360.273 345.375,359.775 346.749,358.402C347.229,357.921 346.965,356.443 346.965,355.803C346.965,352.994 345.896,350.659 345.233,348.007" style="fill:none;stroke:#ff8400;stroke-width:10px;"/>
        <path d="M484.206,123.828C484.206,142.006 481.699,160.466 475.575,177.612C474.312,181.15 473.596,185.054 471.997,188.453C470.635,191.346 469.849,194.537 468.418,197.399C464.917,204.401 461.404,211.621 458.419,218.87C452.759,232.616 447.875,246.715 441.684,260.129C435.399,273.748 428.007,286.598 420.002,299.178C417.354,303.339 415.243,307.781 412.424,311.808C411.422,313.239 410.414,314.871 409.161,316.123C408.561,316.724 407.583,318.123 407.583,318.123C407.583,318.123 408.044,316.671 408.425,316.018C409.26,314.585 410.099,313.122 410.951,311.703C413.401,307.618 416.103,303.836 418.108,299.493C424.449,285.753 432.055,272.418 437.158,258.129C439.085,252.735 441.346,247.461 443.158,242.026C443.765,240.205 444.233,238.397 444.736,236.553C444.887,236 445.181,235.443 445.263,234.869C445.308,234.554 445.368,233.604 445.368,233.921C445.368,235.411 443.995,236.943 443.158,238.026C438.527,244.015 429.038,246.442 421.686,244.341C419.242,243.643 416.833,242.714 414.424,242.026C414.212,241.965 412.319,241.428 412.319,241.184L427.791,241.184C434.968,241.184 442.076,237.002 446.947,232.132C448.148,230.93 451.052,228.354 451.052,226.449" style="fill:none;stroke:#ff8400;stroke-width:10px;"/>
        <path d="M480.543,140.992C477.888,141.561 475.105,142.395 472.392,142.642C471.363,142.735 470.168,142.898 469.19,143.224C469.169,143.231 468.353,143.551 468.414,143.612C469.082,144.281 472.025,143.011 472.586,142.836C475.425,141.949 480.602,140.733 481.222,137.014C481.51,135.287 481.283,133.468 481.707,131.774C481.885,131.061 482.108,130.363 482.289,129.64C482.363,129.342 482.58,128.767 482.58,128.767C482.58,128.767 481.874,129.935 481.513,130.513C480.897,131.498 480.141,132.396 479.281,133.133C476.406,135.597 473.915,138.148 470.354,139.731C468.491,140.559 466.468,141.609 464.533,142.254C464.322,142.324 461.594,143.487 461.719,143.612C462.175,144.068 464.119,143.987 464.727,144.097C466.128,144.352 467.809,145.008 469.093,145.65C471.301,146.754 473.64,148.062 475.4,149.822C475.888,150.311 476.434,150.813 476.855,151.375C476.945,151.494 477.652,152.595 477.729,152.442C478.595,150.708 476.211,147.102 476.079,145.262C475.962,143.616 475.799,141.95 475.594,140.313" style="fill:none;stroke:#ff8400;stroke-width:10px;"/>
        <path d="M472.039,22.765C474.102,25.071 474.524,28.061 475.551,30.937C477.476,36.328 478.561,42.686 478.561,48.426" style="fill:none;stroke:#ff8400;stroke-width:10px;"/>
        <path d="M506.659,5.061C507.531,6.598 507.232,8.271 507.232,10.007C507.232,13.856 506.45,17.676 506.802,21.547C506.978,23.477 507.588,25.334 508.021,27.209C509.401,33.19 510.888,39.686 510.888,45.846" style="fill:none;stroke:#ff8400;stroke-width:10px;"/>
        <path d="M507.089,7.928C507.746,11.654 507.374,15.69 507.734,19.468C508.07,22.993 509.055,26.521 509.669,30.005C511.133,38.301 512.21,46.664 513.97,54.877C515.278,60.982 517.153,67.084 518.772,73.155C519.471,75.773 519.82,78.507 520.564,81.111C521.432,84.146 522.285,87.68 522.285,90.859" style="fill:none;stroke:#ff8400;stroke-width:10px;"/>
    </g>
</svg>
