<?xml version="1.0" encoding="UTF-8" standalone="no"?>
<!DOCTYPE svg PUBLIC "-//W3C//DTD SVG 1.1//EN" "http://www.w3.org/Graphics/SVG/1.1/DTD/svg11.dtd">
<svg width="100%" height="100%" viewBox="0 0 923 1071" version="1.1" xmlns="http://www.w3.org/2000/svg" xmlns:xlink="http://www.w3.org/1999/xlink" xml:space="preserve" xmlns:serif="http://www.serif.com/" style="fill-rule:evenodd;clip-rule:evenodd;stroke-linecap:round;stroke-linejoin:round;stroke-miterlimit:1.5;">
    <g>
        <path d="M328.993,706.663c-0.629,11.603 -7.117,21.336 -9.313,32.577c-3.249,16.634 -3.104,34.61 -3.104,52.045c0,9.165 -0.964,19.297 0.776,28.208c8.118,41.557 36.35,72.627 71.398,94.158c9.104,5.592 19.211,6.532 29.102,10.329c16.803,6.452 39.207,9.022 57.429,6.357c37.187,-5.439 68.683,-33.673 86.919,-66.347c7.52,-13.474 11.206,-28.86 15.909,-43.305c5.552,-17.054 6.597,-34.129 6.597,-52.045c0,-5.886 0.029,-11.814 -1.552,-17.481c-0.472,-1.69 -3.105,-8.736 -3.105,-8.343" style="fill:none;stroke:rgb(67,152,0);stroke-width:6px;"/>
        <path d="M399.615,924.775c-1.654,14.391 -2.883,32.462 1.552,46.086c1.959,6.016 8.043,11.375 9.313,17.878c3.405,17.433 14.267,37.253 26.386,49.661c10.835,11.093 28.893,19.186 43.847,22.248c18.551,3.799 38.351,8.807 57.817,5.959c33.929,-4.962 61.081,-31.161 72.95,-63.566c15.635,-42.689 22.833,-102.583 -5.045,-140.641c-6.5,-8.874 -12.133,-21.705 -21.729,-26.618c-2.27,-1.162 -4.557,-6.357 -7.373,-6.357" style="fill:none;stroke:rgb(67,152,0);stroke-width:6px;"/>
        <path d="M616.524,864.784c13.958,0 25.502,-6.246 34.923,-15.891c7.066,-7.235 15.296,-13.22 21.73,-21.454c15.739,-20.144 21.376,-53.517 24.446,-78.664c2.169,-17.766 -1.274,-29.68 -7.373,-45.291c-0.79,-2.021 -5.2,-11.521 -7.372,-11.521" style="fill:none;stroke:rgb(67,152,0);stroke-width:6px;"/>
        <path d="M657.332,687.534c6.812,2.051 13.893,4.749 21.044,5.481c9.328,0.955 18.628,0.945 28.059,0.945c6.477,0 13.311,0.66 19.752,0c3.935,-0.402 7.858,-2.627 11.445,-4.158c3.32,-1.416 7.028,-2.38 10.153,-4.158c8.599,-4.891 16.286,-11.571 23.26,-18.711c2.683,-2.747 3.945,-6.686 6.461,-9.261" style="fill:none;stroke:rgb(67,152,0);stroke-width:6px;"/>
        <path d="M422.786,532.646c-1.445,6.286 -3.899,12.442 -5.687,17.934c-0.751,2.306 -0.743,5.262 -1.138,7.686c-2.229,13.692 -4.369,27.308 -6.597,40.992c-0.916,5.626 0,12.207 0,17.934c0,42.634 20.904,82.124 55.506,105.742c11.887,8.114 24.773,18.453 39.127,22.127c7.59,1.943 15.588,4.586 23.431,5.59c10.252,1.312 20.776,0.932 31.165,0.932c12.144,0 22.49,-4.273 33.668,-8.851c15.714,-6.436 29.287,-14.507 42.312,-25.62c5.412,-4.618 9.338,-11.547 13.194,-17.469c6.006,-9.224 13.137,-19.117 17.516,-29.58c6.021,-14.383 10.81,-28.094 12.967,-43.554c0.725,-5.194 0.682,-10.548 0.682,-15.838l0,-4.891c0,-0.604 0,-2.971 0,-2.795" style="fill:none;stroke:rgb(67,152,0);stroke-width:6px;"/>
        <path d="M176.809,651.844c-23.734,24.3 -30.921,59.199 -30.921,93.16c0,16.773 1.06,33.074 7.097,48.526c3.158,8.083 9.562,14.131 13.179,21.538c3.805,7.792 10.381,14.603 15.461,21.539c1.535,2.096 4.022,5.822 6.336,7.006c3.676,1.882 6.472,5.92 10.391,7.525c9.3,3.809 18.368,7.826 28.133,11.159c6.207,2.118 11.664,5.658 18.249,7.006c19.211,3.934 39.033,1.557 57.28,-4.671c7.542,-2.574 17.799,-4.73 23.571,-10.639" style="fill:none;stroke:rgb(67,152,0);stroke-width:6px;"/>
        <path d="M272.586,416.069c-9.131,-6.233 -16.165,-1.03 -25.053,1.245c-8.878,2.273 -14.768,10.3 -22.863,14.444c-11.252,5.76 -21.778,16.531 -29.187,26.646c-5.042,6.883 -10.267,13.303 -14.107,21.168c-0.554,1.133 -2.126,2.481 -2.433,3.735c-0.787,3.225 -3.509,6.296 -4.621,9.712c-3.036,9.325 -8.87,18.63 -10.459,28.39c-1.343,8.254 -3.027,16.496 -4.621,24.654c-1.536,7.862 -0.486,17.054 -0.486,25.152c0,30.481 6.528,61.896 25.295,85.915c7.965,10.193 17.534,23.458 28.944,30.133c25.578,14.965 54.781,25.152 85.129,25.152c5.01,0 10.608,0.725 15.567,0c21.025,-3.075 37.973,-12.397 55.942,-22.911c16.453,-9.626 24.473,-26.154 35.754,-40.592c3.41,-4.363 4.249,-9.887 7.054,-14.194c0.468,-0.719 0.539,-3.985 1.459,-3.985" style="fill:none;stroke:rgb(67,152,0);stroke-width:6px;"/>
        <path d="M171.521,649.237c-4.68,13.007 -18.776,12.545 -30.298,12.545c-6.892,0 -12.57,-2.3 -19.159,-3.649c-12.106,-2.479 -23.507,-7.13 -34.532,-12.774c-8.849,-4.53 -19.59,-8.652 -26.733,-15.967c-5.318,-5.444 -11.842,-10.886 -16.041,-17.335c-12.983,-19.939 -23.331,-43.128 -26.734,-67.517c-1.271,-9.109 -0.891,-18.566 -0.891,-27.828c0,-5.951 -0.641,-12.336 0,-18.248c0.943,-8.688 4.386,-18.008 8.466,-25.319c2.39,-4.282 3.825,-9.139 6.461,-13.457c8.812,-14.437 20.922,-23.931 32.526,-35.812c3.257,-3.335 7.682,-7.183 11.585,-9.58c6.126,-3.763 14.609,-7.155 21.832,-8.211c3.789,-0.555 6.546,-3.893 10.471,-4.562c11.064,-1.888 23.267,-2.053 34.531,-2.053" style="fill:none;stroke:rgb(67,152,0);stroke-width:6px;"/>
        <path d="M184.159,462.173c-5.986,-5.107 -10.63,-11.374 -15.385,-17.459c-5.42,-6.937 -10.622,-13.847 -15.57,-21.445c-1.784,-2.74 -2.773,-6.562 -4.078,-9.679c-4.763,-11.38 -8.657,-22.761 -10.379,-35.109c-2.593,-18.582 -0.545,-37.271 2.409,-55.416c1.382,-8.49 2.765,-17.292 5.746,-25.43c1.163,-3.174 3.108,-5.955 4.263,-9.11c2.824,-7.709 6.891,-15.215 12.234,-20.685" style="fill:none;stroke:rgb(67,152,0);stroke-width:6px;"/>
        <path d="M162.514,267.337c8.079,-17.461 26.5,-27.929 42.841,-36.294c14.123,-7.23 28.89,-14.47 44.856,-16.513c5.007,-0.641 10.088,-0.46 15.12,-1.032c6.138,-0.698 13.789,-1.201 19.825,0.344c7.28,1.863 13.69,4.127 20.496,7.224c7.694,3.502 16.252,7.18 22.008,13.073" style="fill:none;stroke:rgb(67,152,0);stroke-width:6px;"/>
        <path d="M324.809,237.342c4.14,10.067 -0.769,22.114 -2.426,32.295c-1.352,8.303 -1.704,17.079 -3.309,25.293c-1.595,8.167 0.014,17.076 -1.323,25.294c-0.936,5.745 0,12.443 0,18.293c0,11.037 -0.185,21.939 1.323,32.746c0.582,4.172 2.787,8.146 3.309,12.421c2.477,20.288 11.015,39.849 13.234,60.299c1.114,10.267 2.988,20.514 4.412,30.714c1.084,7.773 1.017,17.076 6.837,23.035c7.081,7.249 15.644,7.678 25.587,7.678c4.702,0 11.596,1.319 16.102,0c6.134,-1.794 12.8,-3.361 18.749,-5.645c7.732,-2.969 16.282,-3.693 23.822,-7.001c7.512,-3.297 14.419,-8.06 21.616,-11.744c21.637,-11.077 41.298,-24.442 58.672,-42.231c11.276,-11.545 22.412,-20.6 29.337,-34.779c0.419,-0.859 -1.627,0.93 -1.765,1.355c-0.659,2.024 -1.71,4.124 -2.426,6.323c-1.773,5.445 -1.637,12.183 -2.426,17.841c-1.21,8.667 -1.886,19.91 -0.662,28.682c1.126,8.073 3.746,15.79 5.294,23.712c2.334,11.953 7.442,24.52 13.455,34.779c1.895,3.234 3.703,6.466 5.514,9.711c0.734,1.316 2.426,3.135 2.426,4.743" style="fill:none;stroke:rgb(67,152,0);stroke-width:6px;"/>
        <path d="M321.942,259.474c-6.741,4.984 -14.141,11.793 -17.646,18.97c-1.536,3.145 -4.767,4.793 -6.397,8.13c-2.786,5.705 -6.371,11.664 -8.382,17.841c-1.616,4.965 -4.898,9.4 -6.396,14.002c-0.841,2.581 -2.949,5.586 -4.191,8.131c-4.603,9.425 -7.788,20.967 -9.485,31.391c-0.873,5.361 0.434,11.107 -0.441,16.486c-2.559,15.716 -0.119,33.511 4.632,48.103c1.39,4.27 3.104,9.344 3.97,13.776c0.461,2.36 1.231,6.649 2.647,8.582c1.724,2.354 2.364,5.841 3.97,8.582c2.266,3.867 5.098,8.204 6.397,12.195c0.781,2.399 3.146,4.41 4.191,6.549c4.686,9.596 12.706,17.526 20.293,25.294c11.292,11.561 25.581,16.302 38.38,24.165c2.073,1.273 6.017,2.08 8.381,2.484c7.915,1.351 15.698,3.168 23.602,4.517c20.455,3.49 44.771,4.358 63.966,-4.065c5.906,-2.592 12.488,-3.906 17.646,-8.131c5.874,-4.81 13.018,-9.263 18.528,-14.905c4.173,-4.272 7.991,-10.249 12.573,-14.002c6.664,-5.458 12.103,-14.846 15.881,-22.583c4.508,-9.231 8.453,-18.109 11.911,-27.552c1.109,-3.027 3.971,-7.385 3.971,-10.389" style="fill:none;stroke:rgb(67,152,0);stroke-width:6px;"/>
        <path d="M516.047,469.051c7.897,6.469 12.017,15.014 18.528,21.68" style="fill:white;stroke:rgb(67,152,0);stroke-width:6px;"/>
        <path d="M17.99,471.809c-2.651,-14.25 -10.268,-27.419 -12.063,-42.118c-2.459,-20.147 -4.013,-40.933 -2.01,-61.435c1.077,-11.032 -0.332,-22.549 2.32,-33.409c1.333,-5.461 2.319,-11.241 3.402,-16.784c1.541,-7.888 5.68,-15.597 8.351,-23.117c1.856,-5.227 4.567,-10.162 6.804,-15.201c0.748,-1.683 3.403,-4.692 3.403,-6.492" style="fill:none;stroke:rgb(67,152,0);stroke-width:6px;"/>
        <path d="M30.391,270.894c1.304,-7.34 5.05,-12.98 7.238,-19.701c2.612,-8.023 8.018,-15.784 13.417,-22.232c14.332,-17.119 31.059,-32.62 51.019,-42.838c6.638,-3.398 13.169,-5.621 20.478,-6.868c2.051,-0.35 4.256,-0.181 6.355,-0.181c0.211,0 1.908,0.216 2.119,0c1.577,-1.614 -3.5,-7.615 -4.237,-8.495c-6.889,-8.229 -9.943,-18.072 -15.712,-26.931c-5.35,-8.217 -10.084,-18.603 -12.71,-28.016c-0.528,-1.89 -1.428,-9.58 -3.354,-9.58" style="fill:none;stroke:rgb(67,152,0);stroke-width:6px;"/>
        <path d="M61.531,382.029c3.253,-10.658 9.643,-17.431 16.267,-25.909c11.144,-14.262 23.572,-27.478 35.427,-41.64c3.083,-3.682 7.145,-6.437 10.123,-9.993c5.79,-6.916 13.073,-12.563 20.424,-17.581c1.615,-1.102 5.018,-5.367 6.869,-5.367" style="fill:none;stroke:rgb(67,152,0);stroke-width:6px;"/>
        <path d="M98.296,109.665c-2.191,-9.87 -5.154,-22.006 -2.717,-31.987c1.843,-7.545 8.423,-14.58 14.489,-19.239c16.103,-12.365 31.581,-21.162 51.617,-25.265c15.341,-3.141 30.705,-6.296 46.184,-7.881c10.456,-1.071 21.397,-0.464 31.921,-0.464c7.925,0 16.128,-0.573 23.997,0.232c25.181,2.578 50.247,9.221 73.577,18.775c5.82,2.384 12.195,3.669 17.885,6.259c6.574,2.991 13.325,4.952 19.696,8.576c14.431,8.209 24.607,22.399 34.864,35.001c3.765,4.625 6.524,9.914 10.188,14.603c0.905,1.158 3.395,4.335 3.395,5.563" style="fill:none;stroke:rgb(67,152,0);stroke-width:6px;"/>
        <path d="M188.852,109.434c9.745,-1.996 19.801,-1.169 29.657,-2.087c11.568,-1.076 24.911,-1.312 36.449,0c7.048,0.802 13.981,2.753 21.054,3.477c7.816,0.8 15.168,4.914 22.866,6.49c9.709,1.989 22.062,6.021 30.789,11.126c8.751,5.121 18.117,9.805 26.714,14.835c5.202,3.044 9.79,7.678 15.168,10.431" style="fill:none;stroke:rgb(67,152,0);stroke-width:6px;"/>
        <path d="M270.579,211.422c17.042,-5.552 33.534,-11.064 51.391,-13.676c5.541,-0.81 11.022,-2.074 16.526,-3.013c1.311,-0.224 4.666,0.322 5.66,-0.695" style="fill:none;stroke:rgb(67,152,0);stroke-width:6px;"/>
        <path d="M328.082,239.469c4.521,-12.15 7.216,-24.655 12.225,-36.623c3.421,-8.173 9.473,-15.083 13.81,-22.484c16.873,-28.793 43.637,-48.648 73.124,-63.743c17.287,-8.849 34.068,-13.676 53.654,-13.676l13.584,0c1.368,0 3.622,-0.69 3.622,0.928" style="fill:none;stroke:rgb(67,152,0);stroke-width:6px;"/>
        <path d="M452.884,98.721c0.837,-8.994 -4.598,-14.458 -6.227,-22.795c-1.837,-9.406 -6.194,-18.67 -7.358,-28.206c-0.534,-4.374 -0.52,-8.939 -1.132,-13.329c-0.422,-3.022 -0.633,-7.101 0.188,-10.046c1.087,-3.895 5.41,-8.474 8.302,-11.012c6.173,-5.417 12.195,-10.238 20.756,-10.238c1.879,0 4.566,-0.441 6.226,0.579c3.79,2.328 7.475,5.575 10.189,9.466c1.663,2.384 3.424,4.914 4.34,7.728c2.148,6.597 2.09,13.463 2.83,20.284c1.316,12.124 1.913,24.338 3.585,36.319c0.849,6.087 0.356,12.446 1.51,18.353c0.175,0.9 -0.074,4.56 0.566,5.216" style="fill:none;stroke:rgb(67,152,0);stroke-width:6px;"/>
        <path d="M548.664,503.915c7.715,10.937 16.464,21.901 23.615,32.883c4.052,6.223 12.002,10.838 17.239,16.2c2.005,2.053 5.29,3.529 6.612,5.561c2.325,3.57 8.502,5.078 11.336,7.979c1.798,1.842 4.435,3.238 6.612,4.352c3.052,1.563 6.067,5.161 9.21,6.77c6.759,3.46 13.341,7.072 20.309,10.638c11.096,5.681 22.251,11.755 33.297,17.409c11.861,6.072 25.614,8.881 37.548,14.991c16.051,8.217 32.479,16.55 48.41,25.871c16.951,9.917 30.328,25.49 43.924,39.411c4.228,4.328 8.307,9.581 11.336,14.749c0.483,0.824 4.513,8.57 5.195,8.22c3.891,-1.992 7.324,-12.219 8.974,-16.441c6.367,-16.297 8.199,-35.753 17.003,-50.775c12.532,-21.385 20.426,-46.058 28.101,-69.634c3.325,-10.213 4.293,-21.136 8.502,-31.19c8.012,-19.14 14.479,-39.192 20.073,-59.238c3.412,-12.229 8.17,-24.106 10.863,-36.509c2.966,-13.666 2.833,-27.831 2.833,-41.829" style="fill:none;stroke:rgb(67,152,0);stroke-width:6px;"/>
        <path d="M766.282,250.785c8.303,-1.159 20.661,-2.46 29.121,-0.727c8.248,1.689 16.534,5.434 23.913,9.211c7.093,3.632 14.355,7.375 20.598,11.636c10.374,7.081 19.611,17.827 27.464,27.877c6.493,8.31 13.358,15.667 18.94,24.24c9.564,14.688 22.809,30.469 26.28,48.239c1.773,9.075 3.514,18.269 5.683,27.15c2.076,8.505 0.71,20.225 0.71,29.089" style="fill:none;stroke:rgb(67,152,0);stroke-width:6px;"/>
        <path d="M487.557,103.597c23.96,-4.906 52.184,10.946 67.792,26.927c1.435,1.469 6.835,-0.27 9.059,0.299c3.814,0.976 7.511,2.296 11.396,3.291c12.406,3.175 22.43,11.759 33.897,16.455c4.567,1.87 9.695,6.804 13.441,9.873c3.842,3.147 9.423,6.768 13.734,8.975c5.751,2.944 10.463,9.647 15.487,13.763c9.748,7.984 17.604,16.827 26.591,26.029c13.839,14.168 27.913,28.547 37.696,46.074c5.438,9.743 12.942,18.468 16.948,28.721c3.811,9.756 10.212,17.463 14.026,27.226c8.819,22.574 19.714,45.516 26.299,69.111c2.171,7.779 4.546,15.245 6.721,23.037c0.839,3.01 1.224,7.836 3.506,10.173" style="fill:none;stroke:rgb(67,152,0);stroke-width:6px;"/>
        <path d="M779.851,409.584c2.636,5.129 3.51,9.982 5.214,15.216c7.845,24.095 14.368,47.419 18.512,72.878c6.475,39.778 11.473,78.39 11.473,119.329" style="fill:none;stroke:rgb(67,152,0);stroke-width:6px;"/>
        <path d="M530.093,118.158c-3.388,2.041 -8.182,3.302 -11.206,5.624c-19.995,15.354 -39.135,33.101 -54.932,53.318c-12.455,15.941 -18.193,34.106 -27.026,52.193c-18.543,37.971 -26.909,80.929 -32.08,123.283c-2.906,23.804 -6.372,46.18 -6.372,70.415" style="fill:none;stroke:rgb(67,152,0);stroke-width:6px;"/>
        <path d="M546.2,116.111c11.314,-2.044 22.556,-6.024 34.011,-7.09c15.013,-1.398 30.258,0.203 45.091,1.891c14.006,1.593 27.848,2.506 41.397,6.775c9.11,2.87 18.378,5.548 26.932,9.927c2.563,1.312 6.249,2.144 8.31,4.254" style="fill:none;stroke:rgb(67,152,0);stroke-width:6px;"/>
        <path d="M502.46,102.293c6.163,-2.227 9.696,-7.722 14.869,-11.694c4.858,-3.73 12.656,-4.963 18.317,-6.619c21.081,-6.167 43.863,-5.075 65.727,-5.075c22.156,0 45.23,-0.446 66.803,3.971c9.305,1.906 19.419,2.05 28.446,5.516c6.398,2.457 12.792,3.999 19.179,6.178c7.522,2.567 15.143,6.808 22.843,8.384c4.96,1.016 9.75,5.213 14.222,7.502c9.001,4.608 17.735,9.41 26.937,14.121c8.229,4.213 15.539,10.718 22.843,16.327c6.457,4.959 14.508,8.456 20.256,14.342c8.341,8.539 14.517,16.976 20.473,27.138c2.201,3.756 1.706,8.72 2.37,12.797c1.35,8.292 -1.002,15.757 -4.956,22.505c-10.838,18.494 -27.236,27.376 -47.625,31.551c-5.214,1.068 -11.427,4.634 -16.593,4.634" style="fill:none;stroke:rgb(67,152,0);stroke-width:6px;"/>
    </g>
</svg>
