<?xml version="1.0" encoding="UTF-8" standalone="no"?>
<!DOCTYPE svg PUBLIC "-//W3C//DTD SVG 1.1//EN" "http://www.w3.org/Graphics/SVG/1.1/DTD/svg11.dtd">
<svg width="100%" height="100%" viewBox="0 0 360 755" version="1.1" xmlns="http://www.w3.org/2000/svg" xmlns:xlink="http://www.w3.org/1999/xlink" xml:space="preserve" xmlns:serif="http://www.serif.com/" style="fill-rule:evenodd;clip-rule:evenodd;stroke-linecap:round;stroke-linejoin:round;stroke-miterlimit:1.5;">
    <g>
        <path d="M326.647,93.669c-1.492,-1.492 -46.836,-47.885 -48.805,-47.885" style="fill:none;stroke:rgb(206,22,22);stroke-width:40px;"/>
        <path d="M305.468,163.655c-11.333,-7.015 -44.935,-42.36 -46.964,-42.36" style="fill:none;stroke:rgb(206,22,22);stroke-width:40px;"/>
        <path d="M301.784,240.086c-2.41,-2.283 -31.793,-38.676 -39.597,-38.676" style="fill:none;stroke:rgb(206,22,22);stroke-width:40px;"/>
        <path d="M315.597,323.885c-16.881,-16.881 -36.203,-33.44 -52.489,-49.727" style="fill:none;stroke:rgb(206,22,22);stroke-width:40px;"/>
        <path d="M327.568,414.129c-16.129,-16.129 -40.472,-44.639 -61.697,-55.251" style="fill:none;stroke:rgb(206,22,22);stroke-width:40px;"/>
        <path d="M325.727,486.878c-15.113,-12.954 -39.285,-49.623 -58.936,-56.173" style="fill:none;stroke:rgb(206,22,22);stroke-width:40px;"/>
        <path d="M333.094,565.151c-15.439,-13.813 -31.831,-27.027 -43.281,-44.201c-2.942,-4.414 -5.361,-12.892 -11.971,-12.892" style="fill:none;stroke:rgb(206,22,22);stroke-width:40px;"/>
        <path d="M339.54,645.266c-22.36,-15.372 -45.173,-34.122 -63.54,-52.489" style="fill:none;stroke:rgb(206,22,22);stroke-width:40px;"/>
        <path d="M310.993,713.41c-4.236,-5.749 -28.609,-43.281 -40.518,-43.281" style="fill:none;stroke:rgb(206,22,22);stroke-width:40px;"/>
        <path d="M205.094,73.41c-16.855,-21.349 -38.956,-34.351 -58.015,-53.41" style="fill:none;stroke:rgb(206,22,22);stroke-width:40px;"/>
        <path d="M202.331,169.18c-9.43,-25.597 -28.331,-37.54 -46.964,-56.173" style="fill:none;stroke:rgb(206,22,22);stroke-width:40px;"/>
        <path d="M199.568,253.899c-13.134,-13.134 -25.876,-28.301 -41.439,-38.676" style="fill:none;stroke:rgb(206,22,22);stroke-width:40px;"/>
        <path d="M206.014,330.331c-11.667,-10.981 -39.641,-31.399 -46.964,-46.043" style="fill:none;stroke:rgb(206,22,22);stroke-width:40px;"/>
        <path d="M212.46,405.842c-17.723,-21.047 -36.438,-36.597 -59.856,-50.648" style="fill:none;stroke:rgb(206,22,22);stroke-width:40px;"/>
        <path d="M217.065,486.878c-17.933,-14.768 -36.236,-28.761 -55.252,-41.439" style="fill:none;stroke:rgb(206,22,22);stroke-width:40px;"/>
        <path d="M216.144,563.309c-16.045,-19.82 -28.482,-30.652 -48.806,-44.201" style="fill:none;stroke:rgb(206,22,22);stroke-width:40px;"/>
        <path d="M218.906,648.95c-32.838,-8.21 -39.061,-32.385 -66.302,-43.281" style="fill:none;stroke:rgb(206,22,22);stroke-width:40px;"/>
        <path d="M89.986,74.331c-10.471,-9.162 -31.455,-33.506 -46.964,-38.676" style="fill:none;stroke:rgb(206,22,22);stroke-width:40px;"/>
        <path d="M73.41,151.683c-11.424,-15.504 -31.145,-39.597 -53.41,-39.597" style="fill:none;stroke:rgb(206,22,22);stroke-width:40px;"/>
        <path d="M83.54,234.561c-15.712,-16.636 -26.841,-26.136 -47.885,-33.151" style="fill:none;stroke:rgb(206,22,22);stroke-width:40px;"/>
        <path d="M89.986,314.676c-13.038,-23.326 -35.301,-29.775 -53.41,-47.885" style="fill:none;stroke:rgb(206,22,22);stroke-width:40px;"/>
        <path d="M88.144,396.633c-16.438,-10.959 -31.328,-23.265 -46.964,-34.993" style="fill:none;stroke:rgb(206,22,22);stroke-width:40px;"/>
        <path d="M103.799,474.906c-16.834,-21.042 -39.939,-30.73 -58.015,-48.805" style="fill:none;stroke:rgb(206,22,22);stroke-width:40px;"/>
        <path d="M108.403,560.547c-23.922,-19.138 -47.068,-38.729 -74.59,-52.489" style="fill:none;stroke:rgb(206,22,22);stroke-width:40px;"/>
        <path d="M106.561,658.158c-18.011,-20.262 -40.775,-35.471 -63.539,-50.647" style="fill:none;stroke:rgb(206,22,22);stroke-width:40px;"/>
        <g>
            <path d="M208.777,734.59c-11.662,-18.465 -24.652,-30.772 -41.439,-44.202" style="fill:none;stroke:rgb(206,22,22);stroke-width:40px;"/>
        </g>
    </g>
</svg>
