<?xml version="1.0" encoding="UTF-8" standalone="no"?>
<!DOCTYPE svg PUBLIC "-//W3C//DTD SVG 1.1//EN" "http://www.w3.org/Graphics/SVG/1.1/DTD/svg11.dtd">
<svg width="100%" height="100%" viewBox="0 0 546 480" version="1.1" xmlns="http://www.w3.org/2000/svg" xmlns:xlink="http://www.w3.org/1999/xlink" xml:space="preserve" xmlns:serif="http://www.serif.com/" style="fill-rule:evenodd;clip-rule:evenodd;stroke-linecap:round;stroke-linejoin:round;stroke-miterlimit:1.5;">
    <g>
        <path d="M415.357,67.885c-11.264,-5.632 -64.26,-47.885 -69.985,-47.885" style="fill:none;stroke:rgb(85,142,45);stroke-width:40px;"/>
        <path d="M525.861,162.427c-17.163,-14.302 -41.172,-31.35 -55.252,-45.429" style="fill:none;stroke:rgb(85,142,45);stroke-width:40px;"/>
        <path d="M313.448,88.758c-13.035,-16.295 -38.771,-53.765 -58.935,-63.847" style="fill:none;stroke:rgb(85,142,45);stroke-width:40px;"/>
        <path d="M415.357,161.199c-11.199,-8.4 -19.151,-25.784 -33.151,-25.784" style="fill:none;stroke:rgb(85,142,45);stroke-width:40px;"/>
        <path d="M511.127,249.602c-11.884,-9.62 -38.703,-38.529 -56.48,-42.974" style="fill:none;stroke:rgb(85,142,45);stroke-width:40px;"/>
        <path d="M210.312,77.707c-8.824,-7.562 -37.324,-26.763 -44.202,-40.518c-1.631,-3.262 -1.053,-3.683 -4.911,-3.683" style="fill:none;stroke:rgb(85,142,45);stroke-width:40px;"/>
        <path d="M288.892,145.237c-4.159,-5.198 -12.367,-25.784 -24.556,-25.784" style="fill:none;stroke:rgb(85,142,45);stroke-width:40px;"/>
        <path d="M363.789,222.59c-10.068,-9.589 -18.26,-22.022 -30.695,-28.24" style="fill:none;stroke:rgb(85,142,45);stroke-width:40px;"/>
        <path d="M448.508,299.942c-17.018,-13.777 -23.791,-21.104 -40.518,-29.467" style="fill:none;stroke:rgb(85,142,45);stroke-width:40px;"/>
        <path d="M103.492,72.796c-17.914,-16.356 -33.505,-32.277 -50.341,-49.113" style="fill:none;stroke:rgb(85,142,45);stroke-width:40px;"/>
        <path d="M195.578,142.782c-10.121,-7.921 -19.201,-17.581 -30.696,-23.329" style="fill:none;stroke:rgb(85,142,45);stroke-width:40px;"/>
        <path d="M266.791,216.451c-16.125,-12.9 -22.443,-19.816 -36.834,-27.012" style="fill:none;stroke:rgb(85,142,45);stroke-width:40px;"/>
        <path d="M330.638,285.209c-3.899,-3.899 -27.889,-31.748 -38.062,-36.835" style="fill:none;stroke:rgb(85,142,45);stroke-width:40px;"/>
        <path d="M409.218,362.561c-3.332,-2.877 -23.911,-23.006 -34.379,-28.24" style="fill:none;stroke:rgb(85,142,45);stroke-width:40px;"/>
        <path d="M501.305,436.23c-9.63,-9.192 -22.287,-16.333 -28.24,-28.24" style="fill:none;stroke:rgb(85,142,45);stroke-width:40px;"/>
        <path d="M517.266,350.283c-7.776,-6.139 -15.552,-12.278 -23.328,-18.417" style="fill:none;stroke:rgb(85,142,45);stroke-width:40px;"/>
        <path d="M66.657,147.693c-16.55,-18.292 -30.589,-33.045 -46.657,-49.113" style="fill:none;stroke:rgb(85,142,45);stroke-width:40px;"/>
        <path d="M145.237,221.362c-8.514,-10.643 -13.382,-30.695 -27.012,-30.695" style="fill:none;stroke:rgb(85,142,45);stroke-width:40px;"/>
        <path d="M244.691,293.803c-16.597,-17.426 -28.561,-32.697 -49.113,-42.973" style="fill:none;stroke:rgb(85,142,45);stroke-width:40px;"/>
        <path d="M328.182,377.295c-7.56,-7.56 -23.042,-20.443 -30.695,-31.923" style="fill:none;stroke:rgb(85,142,45);stroke-width:40px;"/>
        <path d="M416.585,459.559c-10.914,-12.005 -20.761,-23.217 -31.923,-34.379" style="fill:none;stroke:rgb(85,142,45);stroke-width:40px;"/>
        <path d="M80.163,231.185c-10.746,-10.235 -30.73,-32.344 -47.885,-38.063" style="fill:none;stroke:rgb(85,142,45);stroke-width:40px;"/>
        <path d="M147.693,313.448c-12.027,-11.504 -23.916,-22.688 -35.607,-34.378" style="fill:none;stroke:rgb(85,142,45);stroke-width:40px;"/>
        <path d="M223.818,367.472c-7.015,-6.71 -26.177,-29.87 -40.518,-35.606" style="fill:none;stroke:rgb(85,142,45);stroke-width:40px;"/>
        <path d="M317.132,448.508c-10.649,-9.722 -25.177,-25.91 -39.29,-34.379" style="fill:none;stroke:rgb(85,142,45);stroke-width:40px;"/>
    </g>
</svg>
