<?xml version="1.0" encoding="UTF-8" standalone="no"?>
<!DOCTYPE svg PUBLIC "-//W3C//DTD SVG 1.1//EN" "http://www.w3.org/Graphics/SVG/1.1/DTD/svg11.dtd">
<svg width="100%" height="100%" viewBox="0 0 628 90" version="1.1" xmlns="http://www.w3.org/2000/svg" xmlns:xlink="http://www.w3.org/1999/xlink" xml:space="preserve" xmlns:serif="http://www.serif.com/" style="fill-rule:evenodd;clip-rule:evenodd;stroke-linecap:round;stroke-linejoin:round;stroke-miterlimit:1.5;">
    <g transform="matrix(1,0,0,1,-861.118,-985.454)">
        <g>
            <path d="M949.649,998.032C920.888,1021.92 892.976,1046.14 865.285,1071.24" style="fill:none;stroke:rgb(189,55,0);stroke-width:8.33px;"/>
            <path d="M1005.6,1011.59C983.038,1029.89 960.612,1047.91 938.637,1066.9" style="fill:none;stroke:rgb(189,55,0);stroke-width:8.33px;"/>
            <path d="M1072.97,1009.24C1052.18,1025.01 1032.12,1041.75 1012.53,1058.98" style="fill:none;stroke:rgb(189,55,0);stroke-width:8.33px;"/>
            <g transform="matrix(1,0,0,1,7.61843,-12.8511)">
                <path d="M1142.37,1005.57C1120.68,1030.16 1099.53,1053.62 1071.66,1071.29" style="fill:none;stroke:rgb(189,55,0);stroke-width:8.33px;"/>
            </g>
            <path d="M1206.63,989.621C1188.97,1012.34 1168.9,1033.34 1149.99,1055.03" style="fill:none;stroke:rgb(189,55,0);stroke-width:8.33px;"/>
            <g transform="matrix(1,0,0,1,12.9711,-9.22755)">
                <path d="M1240.84,1015.38C1223.89,1031.94 1206.21,1047.73 1189.24,1064.25" style="fill:none;stroke:rgb(189,55,0);stroke-width:8.33px;"/>
            </g>
            <path d="M1312.18,995.561C1296.1,1016.23 1278.61,1035.41 1262,1055.6" style="fill:none;stroke:rgb(189,55,0);stroke-width:8.33px;"/>
            <path d="M1357.18,1008.51C1341.26,1026.68 1326.16,1045.48 1311.79,1064.88" style="fill:none;stroke:rgb(189,55,0);stroke-width:8.33px;"/>
            <path d="M1420.44,1013.61C1405.08,1030.82 1388.38,1046.68 1372.75,1063.63" style="fill:none;stroke:rgb(189,55,0);stroke-width:8.33px;"/>
            <path d="M1484.13,1006.77C1464.15,1025.07 1445.29,1043.47 1428.63,1064.95" style="fill:none;stroke:rgb(189,55,0);stroke-width:8.33px;"/>
        </g>
    </g>
</svg>
